<ttFont>
    <TTGlyph name=".notdef" xMin="0" yMin="0" xMax="500" yMax="700">
      <contour>
        <pt x="0" y="700" on="1"/>
        <pt x="500" y="700" on="1"/>
        <pt x="500" y="0" on="1"/>
        <pt x="0" y="0" on="1"/>
      </contour>
      <contour>
        <pt x="50" y="650" on="1"/>
        <pt x="50" y="50" on="1"/>
        <pt x="450" y="50" on="1"/>
        <pt x="450" y="650" on="1"/>
      </contour>
      <contour>
        <pt x="73" y="571" on="1"/>
        <pt x="113" y="600" on="1"/>
        <pt x="250" y="395" on="1"/>
        <pt x="386" y="599" on="1"/>
        <pt x="425" y="567" on="1"/>
        <pt x="280" y="350" on="1"/>
        <pt x="425" y="133" on="1"/>
        <pt x="386" y="101" on="1"/>
        <pt x="250" y="305" on="1"/>
        <pt x="113" y="100" on="1"/>
        <pt x="73" y="129" on="1"/>
        <pt x="220" y="350" on="1"/>
      </contour>
    </TTGlyph>
    <TTGlyph name="A" xMin="12" yMin="0" xMax="517" yMax="700">
      <contour>
        <pt x="242" y="700" on="1"/>
        <pt x="284" y="700" on="1"/>
        <pt x="517" y="0" on="1"/>
        <pt x="469" y="0" on="1"/>
        <pt x="383" y="256" on="1"/>
        <pt x="143" y="256" on="1"/>
        <pt x="59" y="0" on="1"/>
        <pt x="12" y="0" on="1"/>
      </contour>
      <contour>
        <pt x="263" y="627" on="1"/>
        <pt x="157" y="300" on="1"/>
        <pt x="371" y="300" on="1"/>
      </contour>
    </TTGlyph>
    <TTGlyph name="AE" xMin="78" yMin="0" xMax="779" yMax="700">
      <contour>
        <pt x="444" y="700" on="1"/>
        <pt x="779" y="700" on="1"/>
        <pt x="779" y="658" on="1"/>
        <pt x="490" y="658" on="1"/>
        <pt x="490" y="413" on="1"/>
        <pt x="692" y="413" on="1"/>
        <pt x="677" y="369" on="1"/>
        <pt x="490" y="369" on="1"/>
        <pt x="490" y="41" on="1"/>
        <pt x="777" y="41" on="1"/>
        <pt x="777" y="0" on="1"/>
        <pt x="444" y="0" on="1"/>
        <pt x="445" y="256" on="1"/>
        <pt x="260" y="256" on="1"/>
        <pt x="126" y="0" on="1"/>
        <pt x="78" y="0" on="1"/>
      </contour>
      <contour>
        <pt x="445" y="612" on="1"/>
        <pt x="282" y="300" on="1"/>
        <pt x="445" y="300" on="1"/>
      </contour>
    </TTGlyph>
    <TTGlyph name="Aacute" xMin="12" yMin="0" xMax="517" yMax="872">
      <contour>
        <pt x="242" y="700" on="1"/>
        <pt x="284" y="700" on="1"/>
        <pt x="517" y="0" on="1"/>
        <pt x="469" y="0" on="1"/>
        <pt x="383" y="256" on="1"/>
        <pt x="143" y="256" on="1"/>
        <pt x="59" y="0" on="1"/>
        <pt x="12" y="0" on="1"/>
      </contour>
      <contour>
        <pt x="263" y="627" on="1"/>
        <pt x="157" y="300" on="1"/>
        <pt x="371" y="300" on="1"/>
      </contour>
      <contour>
        <pt x="242" y="731" on="1"/>
        <pt x="294" y="852" on="1"/>
        <pt x="303" y="872" on="0"/>
        <pt x="320" y="872" on="1"/>
        <pt x="344" y="872" on="0"/>
        <pt x="350" y="852" on="1"/>
        <pt x="351" y="848" on="0"/>
        <pt x="351" y="836" on="0"/>
        <pt x="346" y="829" on="1"/>
        <pt x="278" y="731" on="1"/>
      </contour>
    </TTGlyph>
    <TTGlyph name="Abreve" xMin="12" yMin="0" xMax="517" yMax="848">
      <contour>
        <pt x="242" y="700" on="1"/>
        <pt x="284" y="700" on="1"/>
        <pt x="517" y="0" on="1"/>
        <pt x="469" y="0" on="1"/>
        <pt x="383" y="256" on="1"/>
        <pt x="143" y="256" on="1"/>
        <pt x="59" y="0" on="1"/>
        <pt x="12" y="0" on="1"/>
      </contour>
      <contour>
        <pt x="263" y="627" on="1"/>
        <pt x="157" y="300" on="1"/>
        <pt x="371" y="300" on="1"/>
      </contour>
      <contour>
        <pt x="152" y="848" on="1"/>
        <pt x="190" y="848" on="1"/>
        <pt x="190" y="843" on="1"/>
        <pt x="190" y="813" on="0"/>
        <pt x="232" y="767" on="0"/>
        <pt x="297" y="767" on="0"/>
        <pt x="340" y="813" on="0"/>
        <pt x="340" y="843" on="1"/>
        <pt x="340" y="848" on="1"/>
        <pt x="378" y="848" on="1"/>
        <pt x="378" y="843" on="1"/>
        <pt x="378" y="796" on="0"/>
        <pt x="312" y="730" on="0"/>
        <pt x="218" y="730" on="0"/>
        <pt x="152" y="796" on="0"/>
        <pt x="152" y="843" on="1"/>
      </contour>
    </TTGlyph>
    <TTGlyph name="Acircumflex" xMin="12" yMin="0" xMax="517" yMax="913">
      <contour>
        <pt x="242" y="700" on="1"/>
        <pt x="284" y="700" on="1"/>
        <pt x="517" y="0" on="1"/>
        <pt x="469" y="0" on="1"/>
        <pt x="383" y="256" on="1"/>
        <pt x="143" y="256" on="1"/>
        <pt x="59" y="0" on="1"/>
        <pt x="12" y="0" on="1"/>
      </contour>
      <contour>
        <pt x="263" y="627" on="1"/>
        <pt x="157" y="300" on="1"/>
        <pt x="371" y="300" on="1"/>
      </contour>
      <contour>
        <pt x="118" y="772" on="1"/>
        <pt x="266" y="913" on="1"/>
        <pt x="408" y="772" on="1"/>
        <pt x="376" y="740" on="1"/>
        <pt x="265" y="851" on="1"/>
        <pt x="149" y="740" on="1"/>
      </contour>
    </TTGlyph>
    <TTGlyph name="Adieresis" xMin="12" yMin="0" xMax="517" yMax="700">
      <contour>
        <pt x="242" y="700" on="1"/>
        <pt x="284" y="700" on="1"/>
        <pt x="517" y="0" on="1"/>
        <pt x="469" y="0" on="1"/>
        <pt x="383" y="256" on="1"/>
        <pt x="143" y="256" on="1"/>
        <pt x="59" y="0" on="1"/>
        <pt x="12" y="0" on="1"/>
      </contour>
      <contour>
        <pt x="263" y="627" on="1"/>
        <pt x="157" y="300" on="1"/>
        <pt x="371" y="300" on="1"/>
      </contour>
    </TTGlyph>
    <TTGlyph name="Agrave" xMin="12" yMin="0" xMax="517" yMax="871">
      <contour>
        <pt x="242" y="700" on="1"/>
        <pt x="284" y="700" on="1"/>
        <pt x="517" y="0" on="1"/>
        <pt x="469" y="0" on="1"/>
        <pt x="383" y="256" on="1"/>
        <pt x="143" y="256" on="1"/>
        <pt x="59" y="0" on="1"/>
        <pt x="12" y="0" on="1"/>
      </contour>
      <contour>
        <pt x="263" y="627" on="1"/>
        <pt x="157" y="300" on="1"/>
        <pt x="371" y="300" on="1"/>
      </contour>
      <contour>
        <pt x="224" y="851" on="1"/>
        <pt x="277" y="730" on="1"/>
        <pt x="240" y="730" on="1"/>
        <pt x="173" y="829" on="1"/>
        <pt x="168" y="836" on="0"/>
        <pt x="168" y="842" on="1"/>
        <pt x="168" y="871" on="0"/>
        <pt x="198" y="871" on="1"/>
        <pt x="216" y="871" on="0"/>
      </contour>
    </TTGlyph>
    <TTGlyph name="Alpha" xMin="12" yMin="0" xMax="517" yMax="700">
      <contour>
        <pt x="242" y="700" on="1"/>
        <pt x="284" y="700" on="1"/>
        <pt x="517" y="0" on="1"/>
        <pt x="469" y="0" on="1"/>
        <pt x="383" y="256" on="1"/>
        <pt x="143" y="256" on="1"/>
        <pt x="59" y="0" on="1"/>
        <pt x="12" y="0" on="1"/>
      </contour>
      <contour>
        <pt x="263" y="627" on="1"/>
        <pt x="157" y="300" on="1"/>
        <pt x="371" y="300" on="1"/>
      </contour>
    </TTGlyph>
    <TTGlyph name="Alphatonos" xMin="78" yMin="0" xMax="583" yMax="709">
      <contour>
        <pt x="308" y="700" on="1"/>
        <pt x="350" y="700" on="1"/>
        <pt x="583" y="0" on="1"/>
        <pt x="535" y="0" on="1"/>
        <pt x="449" y="256" on="1"/>
        <pt x="209" y="256" on="1"/>
        <pt x="125" y="0" on="1"/>
        <pt x="78" y="0" on="1"/>
      </contour>
      <contour>
        <pt x="329" y="627" on="1"/>
        <pt x="223" y="300" on="1"/>
        <pt x="437" y="300" on="1"/>
      </contour>
      <contour>
        <pt x="93" y="568" on="1"/>
        <pt x="145" y="689" on="1"/>
        <pt x="154" y="709" on="0"/>
        <pt x="171" y="709" on="1"/>
        <pt x="195" y="709" on="0"/>
        <pt x="200" y="690" on="1"/>
        <pt x="202" y="685" on="0"/>
        <pt x="202" y="673" on="0"/>
        <pt x="197" y="666" on="1"/>
        <pt x="129" y="568" on="1"/>
      </contour>
    </TTGlyph>
    <TTGlyph name="Amacron" xMin="12" yMin="0" xMax="517" yMax="788">
      <contour>
        <pt x="242" y="700" on="1"/>
        <pt x="284" y="700" on="1"/>
        <pt x="517" y="0" on="1"/>
        <pt x="469" y="0" on="1"/>
        <pt x="383" y="256" on="1"/>
        <pt x="143" y="256" on="1"/>
        <pt x="59" y="0" on="1"/>
        <pt x="12" y="0" on="1"/>
      </contour>
      <contour>
        <pt x="263" y="627" on="1"/>
        <pt x="157" y="300" on="1"/>
        <pt x="371" y="300" on="1"/>
      </contour>
      <contour>
        <pt x="151" y="788" on="1"/>
        <pt x="368" y="788" on="1"/>
        <pt x="368" y="742" on="1"/>
        <pt x="151" y="742" on="1"/>
      </contour>
    </TTGlyph>
    <TTGlyph name="Aogonek" xMin="78" yMin="-213" xMax="627" yMax="700">
      <contour>
        <pt x="582" y="0" on="1"/>
        <pt x="479" y="-82" on="0"/>
        <pt x="479" y="-129" on="1"/>
        <pt x="479" y="-147" on="0"/>
        <pt x="505" y="-174" on="0"/>
        <pt x="528" y="-174" on="1"/>
        <pt x="570" y="-174" on="0"/>
        <pt x="596" y="-132" on="1"/>
        <pt x="627" y="-163" on="1"/>
        <pt x="595" y="-213" on="0"/>
        <pt x="530" y="-213" on="1"/>
        <pt x="504" y="-213" on="0"/>
        <pt x="482" y="-202" on="1"/>
        <pt x="438" y="-181" on="0"/>
        <pt x="438" y="-130" on="1"/>
        <pt x="438" y="-63" on="0"/>
        <pt x="534" y="0" on="1"/>
        <pt x="535" y="0" on="1"/>
        <pt x="449" y="256" on="1"/>
        <pt x="209" y="256" on="1"/>
        <pt x="125" y="0" on="1"/>
        <pt x="78" y="0" on="1"/>
        <pt x="308" y="700" on="1"/>
        <pt x="350" y="700" on="1"/>
        <pt x="583" y="0" on="1"/>
      </contour>
      <contour>
        <pt x="329" y="627" on="1"/>
        <pt x="223" y="300" on="1"/>
        <pt x="437" y="300" on="1"/>
      </contour>
    </TTGlyph>
    <TTGlyph name="Aring" xMin="12" yMin="0" xMax="517" yMax="885">
      <contour>
        <pt x="196" y="678" on="0"/>
        <pt x="152" y="737" on="0"/>
        <pt x="152" y="820" on="0"/>
        <pt x="217" y="885" on="0"/>
        <pt x="308" y="885" on="0"/>
        <pt x="373" y="820" on="0"/>
        <pt x="373" y="737" on="0"/>
        <pt x="329" y="678" on="0"/>
        <pt x="295" y="667" on="1"/>
        <pt x="517" y="0" on="1"/>
        <pt x="469" y="0" on="1"/>
        <pt x="383" y="256" on="1"/>
        <pt x="143" y="256" on="1"/>
        <pt x="59" y="0" on="1"/>
        <pt x="12" y="0" on="1"/>
        <pt x="231" y="667" on="1"/>
      </contour>
      <contour>
        <pt x="263" y="627" on="1"/>
        <pt x="157" y="300" on="1"/>
        <pt x="371" y="300" on="1"/>
      </contour>
      <contour>
        <pt x="189" y="805" on="0"/>
        <pt x="189" y="743" on="0"/>
        <pt x="232" y="701" on="0"/>
        <pt x="294" y="701" on="0"/>
        <pt x="336" y="743" on="0"/>
        <pt x="336" y="805" on="0"/>
        <pt x="294" y="847" on="0"/>
        <pt x="232" y="847" on="0"/>
      </contour>
    </TTGlyph>
    <TTGlyph name="Atilde" xMin="12" yMin="0" xMax="517" yMax="826">
      <contour>
        <pt x="242" y="700" on="1"/>
        <pt x="284" y="700" on="1"/>
        <pt x="517" y="0" on="1"/>
        <pt x="469" y="0" on="1"/>
        <pt x="383" y="256" on="1"/>
        <pt x="143" y="256" on="1"/>
        <pt x="59" y="0" on="1"/>
        <pt x="12" y="0" on="1"/>
      </contour>
      <contour>
        <pt x="263" y="627" on="1"/>
        <pt x="157" y="300" on="1"/>
        <pt x="371" y="300" on="1"/>
      </contour>
      <contour>
        <pt x="194" y="780" on="1"/>
        <pt x="152" y="780" on="0"/>
        <pt x="117" y="742" on="1"/>
        <pt x="96" y="774" on="1"/>
        <pt x="143" y="826" on="0"/>
        <pt x="196" y="826" on="1"/>
        <pt x="220" y="826" on="0"/>
        <pt x="288" y="795" on="1"/>
        <pt x="311" y="784" on="0"/>
        <pt x="335" y="784" on="1"/>
        <pt x="375" y="784" on="0"/>
        <pt x="406" y="818" on="1"/>
        <pt x="426" y="785" on="1"/>
        <pt x="383" y="738" on="0"/>
        <pt x="334" y="738" on="1"/>
        <pt x="314" y="738" on="0"/>
        <pt x="267" y="758" on="0"/>
        <pt x="218" y="780" on="0"/>
      </contour>
    </TTGlyph>
    <TTGlyph name="B" xMin="78" yMin="0" xMax="511" yMax="700">
      <contour>
        <pt x="78" y="700" on="1"/>
        <pt x="299" y="700" on="1"/>
        <pt x="381" y="700" on="0"/>
        <pt x="475" y="616" on="0"/>
        <pt x="475" y="440" on="0"/>
        <pt x="403" y="397" on="1"/>
        <pt x="402" y="396" on="0"/>
        <pt x="402" y="395" on="1"/>
        <pt x="402" y="394" on="1"/>
        <pt x="449" y="374" on="0"/>
        <pt x="511" y="283" on="0"/>
        <pt x="511" y="209" on="1"/>
        <pt x="511" y="129" on="0"/>
        <pt x="470" y="70" on="1"/>
        <pt x="449" y="38" on="0"/>
        <pt x="366" y="0" on="0"/>
        <pt x="308" y="0" on="1"/>
        <pt x="78" y="0" on="1"/>
      </contour>
      <contour>
        <pt x="123" y="657" on="1"/>
        <pt x="123" y="413" on="1"/>
        <pt x="308" y="413" on="1"/>
        <pt x="361" y="413" on="0"/>
        <pt x="429" y="475" on="0"/>
        <pt x="429" y="598" on="0"/>
        <pt x="355" y="657" on="0"/>
        <pt x="291" y="657" on="1"/>
      </contour>
      <contour>
        <pt x="123" y="369" on="1"/>
        <pt x="123" y="43" on="1"/>
        <pt x="306" y="43" on="1"/>
        <pt x="463" y="43" on="0"/>
        <pt x="463" y="213" on="1"/>
        <pt x="463" y="285" on="0"/>
        <pt x="381" y="369" on="0"/>
        <pt x="319" y="369" on="1"/>
      </contour>
    </TTGlyph>
    <TTGlyph name="Beta" xMin="78" yMin="0" xMax="511" yMax="700">
      <contour>
        <pt x="78" y="700" on="1"/>
        <pt x="299" y="700" on="1"/>
        <pt x="381" y="700" on="0"/>
        <pt x="475" y="616" on="0"/>
        <pt x="475" y="440" on="0"/>
        <pt x="403" y="397" on="1"/>
        <pt x="402" y="396" on="0"/>
        <pt x="402" y="395" on="1"/>
        <pt x="402" y="394" on="1"/>
        <pt x="449" y="374" on="0"/>
        <pt x="511" y="283" on="0"/>
        <pt x="511" y="209" on="1"/>
        <pt x="511" y="129" on="0"/>
        <pt x="470" y="70" on="1"/>
        <pt x="449" y="38" on="0"/>
        <pt x="366" y="0" on="0"/>
        <pt x="308" y="0" on="1"/>
        <pt x="78" y="0" on="1"/>
      </contour>
      <contour>
        <pt x="123" y="657" on="1"/>
        <pt x="123" y="413" on="1"/>
        <pt x="308" y="413" on="1"/>
        <pt x="361" y="413" on="0"/>
        <pt x="429" y="475" on="0"/>
        <pt x="429" y="598" on="0"/>
        <pt x="355" y="657" on="0"/>
        <pt x="291" y="657" on="1"/>
      </contour>
      <contour>
        <pt x="123" y="369" on="1"/>
        <pt x="123" y="43" on="1"/>
        <pt x="306" y="43" on="1"/>
        <pt x="463" y="43" on="0"/>
        <pt x="463" y="213" on="1"/>
        <pt x="463" y="285" on="0"/>
        <pt x="381" y="369" on="0"/>
        <pt x="319" y="369" on="1"/>
      </contour>
    </TTGlyph>
    <TTGlyph name="C" xMin="66" yMin="-10" xMax="427" yMax="710">
      <contour>
        <pt x="427" y="23" on="1"/>
        <pt x="342" y="-10" on="0"/>
        <pt x="265" y="-10" on="1"/>
        <pt x="249" y="-10" on="0"/>
        <pt x="184" y="-4" on="0"/>
        <pt x="111" y="35" on="0"/>
        <pt x="66" y="120" on="0"/>
        <pt x="66" y="183" on="1"/>
        <pt x="66" y="504" on="1"/>
        <pt x="66" y="580" on="0"/>
        <pt x="109" y="658" on="0"/>
        <pt x="153" y="685" on="1"/>
        <pt x="198" y="710" on="0"/>
        <pt x="260" y="710" on="1"/>
        <pt x="338" y="710" on="0"/>
        <pt x="402" y="677" on="1"/>
        <pt x="388" y="645" on="1"/>
        <pt x="330" y="669" on="0"/>
        <pt x="273" y="669" on="1"/>
        <pt x="193" y="669" on="0"/>
        <pt x="152" y="629" on="1"/>
        <pt x="135" y="613" on="0"/>
        <pt x="111" y="553" on="0"/>
        <pt x="111" y="513" on="1"/>
        <pt x="111" y="185" on="1"/>
        <pt x="111" y="78" on="0"/>
        <pt x="190" y="44" on="1"/>
        <pt x="221" y="31" on="0"/>
        <pt x="328" y="31" on="0"/>
        <pt x="417" y="61" on="1"/>
      </contour>
    </TTGlyph>
    <TTGlyph name="Cacute" xMin="66" yMin="-10" xMax="427" yMax="875">
      <contour>
        <pt x="427" y="23" on="1"/>
        <pt x="342" y="-10" on="0"/>
        <pt x="265" y="-10" on="1"/>
        <pt x="249" y="-10" on="0"/>
        <pt x="184" y="-4" on="0"/>
        <pt x="111" y="35" on="0"/>
        <pt x="66" y="120" on="0"/>
        <pt x="66" y="183" on="1"/>
        <pt x="66" y="504" on="1"/>
        <pt x="66" y="580" on="0"/>
        <pt x="109" y="658" on="0"/>
        <pt x="153" y="685" on="1"/>
        <pt x="198" y="710" on="0"/>
        <pt x="260" y="710" on="1"/>
        <pt x="338" y="710" on="0"/>
        <pt x="402" y="677" on="1"/>
        <pt x="388" y="645" on="1"/>
        <pt x="330" y="669" on="0"/>
        <pt x="273" y="669" on="1"/>
        <pt x="193" y="669" on="0"/>
        <pt x="152" y="629" on="1"/>
        <pt x="135" y="613" on="0"/>
        <pt x="111" y="553" on="0"/>
        <pt x="111" y="513" on="1"/>
        <pt x="111" y="185" on="1"/>
        <pt x="111" y="78" on="0"/>
        <pt x="190" y="44" on="1"/>
        <pt x="221" y="31" on="0"/>
        <pt x="328" y="31" on="0"/>
        <pt x="417" y="61" on="1"/>
      </contour>
      <contour>
        <pt x="234" y="734" on="1"/>
        <pt x="286" y="855" on="1"/>
        <pt x="295" y="875" on="0"/>
        <pt x="312" y="875" on="1"/>
        <pt x="336" y="875" on="0"/>
        <pt x="342" y="856" on="1"/>
        <pt x="343" y="851" on="0"/>
        <pt x="343" y="839" on="0"/>
        <pt x="338" y="832" on="1"/>
        <pt x="270" y="734" on="1"/>
      </contour>
    </TTGlyph>
    <TTGlyph name="Ccaron" xMin="66" yMin="-10" xMax="427" yMax="906">
      <contour>
        <pt x="427" y="23" on="1"/>
        <pt x="342" y="-10" on="0"/>
        <pt x="265" y="-10" on="1"/>
        <pt x="249" y="-10" on="0"/>
        <pt x="184" y="-4" on="0"/>
        <pt x="111" y="35" on="0"/>
        <pt x="66" y="120" on="0"/>
        <pt x="66" y="183" on="1"/>
        <pt x="66" y="504" on="1"/>
        <pt x="66" y="580" on="0"/>
        <pt x="109" y="658" on="0"/>
        <pt x="153" y="685" on="1"/>
        <pt x="198" y="710" on="0"/>
        <pt x="260" y="710" on="1"/>
        <pt x="338" y="710" on="0"/>
        <pt x="402" y="677" on="1"/>
        <pt x="388" y="645" on="1"/>
        <pt x="330" y="669" on="0"/>
        <pt x="273" y="669" on="1"/>
        <pt x="193" y="669" on="0"/>
        <pt x="152" y="629" on="1"/>
        <pt x="135" y="613" on="0"/>
        <pt x="111" y="553" on="0"/>
        <pt x="111" y="513" on="1"/>
        <pt x="111" y="185" on="1"/>
        <pt x="111" y="78" on="0"/>
        <pt x="190" y="44" on="1"/>
        <pt x="221" y="31" on="0"/>
        <pt x="328" y="31" on="0"/>
        <pt x="417" y="61" on="1"/>
      </contour>
      <contour>
        <pt x="108" y="874" on="1"/>
        <pt x="139" y="906" on="1"/>
        <pt x="255" y="795" on="1"/>
        <pt x="367" y="906" on="1"/>
        <pt x="398" y="874" on="1"/>
        <pt x="256" y="733" on="1"/>
      </contour>
    </TTGlyph>
    <TTGlyph name="Ccedilla" xMin="66" yMin="-210" xMax="427" yMax="710">
      <contour>
        <pt x="111" y="513" on="1"/>
        <pt x="111" y="185" on="1"/>
        <pt x="111" y="78" on="0"/>
        <pt x="190" y="44" on="1"/>
        <pt x="221" y="31" on="0"/>
        <pt x="328" y="31" on="0"/>
        <pt x="417" y="61" on="1"/>
        <pt x="427" y="23" on="1"/>
        <pt x="342" y="-10" on="0"/>
        <pt x="259" y="-10" on="1"/>
        <pt x="227" y="-55" on="1"/>
        <pt x="241" y="-47" on="0"/>
        <pt x="300" y="-47" on="0"/>
        <pt x="351" y="-84" on="0"/>
        <pt x="351" y="-169" on="0"/>
        <pt x="277" y="-210" on="0"/>
        <pt x="187" y="-210" on="0"/>
        <pt x="135" y="-191" on="1"/>
        <pt x="155" y="-148" on="1"/>
        <pt x="190" y="-172" on="0"/>
        <pt x="264" y="-172" on="0"/>
        <pt x="309" y="-146" on="0"/>
        <pt x="309" y="-94" on="0"/>
        <pt x="284" y="-83" on="1"/>
        <pt x="272" y="-78" on="0"/>
        <pt x="242" y="-78" on="0"/>
        <pt x="221" y="-86" on="1"/>
        <pt x="185" y="-101" on="1"/>
        <pt x="171" y="-78" on="1"/>
        <pt x="225" y="-8" on="1"/>
        <pt x="153" y="0" on="0"/>
        <pt x="66" y="92" on="0"/>
        <pt x="66" y="183" on="1"/>
        <pt x="66" y="504" on="1"/>
        <pt x="66" y="580" on="0"/>
        <pt x="109" y="658" on="0"/>
        <pt x="153" y="685" on="1"/>
        <pt x="198" y="710" on="0"/>
        <pt x="260" y="710" on="1"/>
        <pt x="338" y="710" on="0"/>
        <pt x="402" y="677" on="1"/>
        <pt x="388" y="645" on="1"/>
        <pt x="330" y="669" on="0"/>
        <pt x="273" y="669" on="1"/>
        <pt x="193" y="669" on="0"/>
        <pt x="152" y="629" on="1"/>
        <pt x="135" y="613" on="0"/>
        <pt x="111" y="553" on="0"/>
      </contour>
    </TTGlyph>
    <TTGlyph name="Ccircumflex" xMin="66" yMin="-10" xMax="427" yMax="913">
      <contour>
        <pt x="131" y="772" on="1"/>
        <pt x="279" y="913" on="1"/>
        <pt x="421" y="772" on="1"/>
        <pt x="389" y="740" on="1"/>
        <pt x="278" y="851" on="1"/>
        <pt x="162" y="740" on="1"/>
      </contour>
      <contour>
        <pt x="427" y="23" on="1"/>
        <pt x="342" y="-10" on="0"/>
        <pt x="265" y="-10" on="1"/>
        <pt x="249" y="-10" on="0"/>
        <pt x="184" y="-4" on="0"/>
        <pt x="111" y="35" on="0"/>
        <pt x="66" y="120" on="0"/>
        <pt x="66" y="183" on="1"/>
        <pt x="66" y="504" on="1"/>
        <pt x="66" y="580" on="0"/>
        <pt x="109" y="658" on="0"/>
        <pt x="153" y="685" on="1"/>
        <pt x="198" y="710" on="0"/>
        <pt x="260" y="710" on="1"/>
        <pt x="338" y="710" on="0"/>
        <pt x="402" y="677" on="1"/>
        <pt x="388" y="645" on="1"/>
        <pt x="330" y="669" on="0"/>
        <pt x="273" y="669" on="1"/>
        <pt x="193" y="669" on="0"/>
        <pt x="152" y="629" on="1"/>
        <pt x="135" y="613" on="0"/>
        <pt x="111" y="553" on="0"/>
        <pt x="111" y="513" on="1"/>
        <pt x="111" y="185" on="1"/>
        <pt x="111" y="78" on="0"/>
        <pt x="190" y="44" on="1"/>
        <pt x="221" y="31" on="0"/>
        <pt x="328" y="31" on="0"/>
        <pt x="417" y="61" on="1"/>
      </contour>
    </TTGlyph>
    <TTGlyph name="Cdotaccent" xMin="66" yMin="-10" xMax="427" yMax="797">
      <contour>
        <pt x="427" y="23" on="1"/>
        <pt x="342" y="-10" on="0"/>
        <pt x="265" y="-10" on="1"/>
        <pt x="249" y="-10" on="0"/>
        <pt x="184" y="-4" on="0"/>
        <pt x="111" y="35" on="0"/>
        <pt x="66" y="120" on="0"/>
        <pt x="66" y="183" on="1"/>
        <pt x="66" y="504" on="1"/>
        <pt x="66" y="580" on="0"/>
        <pt x="109" y="658" on="0"/>
        <pt x="153" y="685" on="1"/>
        <pt x="198" y="710" on="0"/>
        <pt x="260" y="710" on="1"/>
        <pt x="338" y="710" on="0"/>
        <pt x="402" y="677" on="1"/>
        <pt x="388" y="645" on="1"/>
        <pt x="330" y="669" on="0"/>
        <pt x="273" y="669" on="1"/>
        <pt x="193" y="669" on="0"/>
        <pt x="152" y="629" on="1"/>
        <pt x="135" y="613" on="0"/>
        <pt x="111" y="553" on="0"/>
        <pt x="111" y="513" on="1"/>
        <pt x="111" y="185" on="1"/>
        <pt x="111" y="78" on="0"/>
        <pt x="190" y="44" on="1"/>
        <pt x="221" y="31" on="0"/>
        <pt x="328" y="31" on="0"/>
        <pt x="417" y="61" on="1"/>
      </contour>
      <contour>
        <pt x="237" y="759" on="0"/>
        <pt x="237" y="781" on="0"/>
        <pt x="254" y="797" on="0"/>
        <pt x="276" y="797" on="0"/>
        <pt x="292" y="781" on="0"/>
        <pt x="292" y="759" on="0"/>
        <pt x="276" y="742" on="0"/>
        <pt x="254" y="742" on="0"/>
      </contour>
    </TTGlyph>
    <TTGlyph name="Chi" xMin="78" yMin="0" xMax="585" yMax="700">
      <contour>
        <pt x="97" y="700" on="1"/>
        <pt x="147" y="700" on="1"/>
        <pt x="332" y="399" on="1"/>
        <pt x="517" y="700" on="1"/>
        <pt x="569" y="700" on="1"/>
        <pt x="359" y="356" on="1"/>
        <pt x="585" y="1" on="1"/>
        <pt x="530" y="0" on="1"/>
        <pt x="332" y="310" on="1"/>
        <pt x="134" y="0" on="1"/>
        <pt x="78" y="0" on="1"/>
        <pt x="305" y="356" on="1"/>
      </contour>
    </TTGlyph>
    <TTGlyph name="D" xMin="78" yMin="0" xMax="498" yMax="701">
      <contour>
        <pt x="78" y="701" on="1"/>
        <pt x="266" y="701" on="1"/>
        <pt x="379" y="701" on="0"/>
        <pt x="498" y="577" on="0"/>
        <pt x="498" y="474" on="1"/>
        <pt x="498" y="200" on="1"/>
        <pt x="498" y="0" on="0"/>
        <pt x="286" y="0" on="1"/>
        <pt x="78" y="0" on="1"/>
      </contour>
      <contour>
        <pt x="123" y="659" on="1"/>
        <pt x="123" y="41" on="1"/>
        <pt x="272" y="41" on="1"/>
        <pt x="338" y="41" on="0"/>
        <pt x="389" y="65" on="1"/>
        <pt x="453" y="95" on="0"/>
        <pt x="453" y="197" on="1"/>
        <pt x="453" y="479" on="1"/>
        <pt x="453" y="570" on="0"/>
        <pt x="348" y="659" on="0"/>
        <pt x="276" y="659" on="1"/>
      </contour>
    </TTGlyph>
    <TTGlyph name="Dcaron" xMin="78" yMin="0" xMax="498" yMax="907">
      <contour>
        <pt x="78" y="701" on="1"/>
        <pt x="266" y="701" on="1"/>
        <pt x="379" y="701" on="0"/>
        <pt x="498" y="577" on="0"/>
        <pt x="498" y="474" on="1"/>
        <pt x="498" y="200" on="1"/>
        <pt x="498" y="0" on="0"/>
        <pt x="286" y="0" on="1"/>
        <pt x="78" y="0" on="1"/>
      </contour>
      <contour>
        <pt x="123" y="659" on="1"/>
        <pt x="123" y="41" on="1"/>
        <pt x="272" y="41" on="1"/>
        <pt x="338" y="41" on="0"/>
        <pt x="389" y="65" on="1"/>
        <pt x="453" y="95" on="0"/>
        <pt x="453" y="197" on="1"/>
        <pt x="453" y="479" on="1"/>
        <pt x="453" y="570" on="0"/>
        <pt x="348" y="659" on="0"/>
        <pt x="276" y="659" on="1"/>
      </contour>
      <contour>
        <pt x="126" y="875" on="1"/>
        <pt x="157" y="907" on="1"/>
        <pt x="273" y="796" on="1"/>
        <pt x="385" y="907" on="1"/>
        <pt x="416" y="875" on="1"/>
        <pt x="274" y="734" on="1"/>
      </contour>
    </TTGlyph>
    <TTGlyph name="Dcroat" xMin="78" yMin="0" xMax="498" yMax="788">
      <contour>
        <pt x="78" y="701" on="1"/>
        <pt x="266" y="701" on="1"/>
        <pt x="379" y="701" on="0"/>
        <pt x="498" y="577" on="0"/>
        <pt x="498" y="474" on="1"/>
        <pt x="498" y="200" on="1"/>
        <pt x="498" y="0" on="0"/>
        <pt x="286" y="0" on="1"/>
        <pt x="78" y="0" on="1"/>
      </contour>
      <contour>
        <pt x="123" y="659" on="1"/>
        <pt x="123" y="41" on="1"/>
        <pt x="272" y="41" on="1"/>
        <pt x="338" y="41" on="0"/>
        <pt x="389" y="65" on="1"/>
        <pt x="453" y="95" on="0"/>
        <pt x="453" y="197" on="1"/>
        <pt x="453" y="479" on="1"/>
        <pt x="453" y="570" on="0"/>
        <pt x="348" y="659" on="0"/>
        <pt x="276" y="659" on="1"/>
      </contour>
      <contour>
        <pt x="175" y="788" on="1"/>
        <pt x="392" y="788" on="1"/>
        <pt x="392" y="742" on="1"/>
        <pt x="175" y="742" on="1"/>
      </contour>
    </TTGlyph>
    <TTGlyph name="Delta" xMin="78" yMin="0" xMax="583" yMax="700">
      <contour>
        <pt x="307" y="700" on="1"/>
        <pt x="350" y="700" on="1"/>
        <pt x="583" y="0" on="1"/>
        <pt x="78" y="0" on="1"/>
      </contour>
      <contour>
        <pt x="328" y="631" on="1"/>
        <pt x="138" y="41" on="1"/>
        <pt x="522" y="41" on="1"/>
      </contour>
    </TTGlyph>
    <TTGlyph name="E" xMin="78" yMin="0" xMax="412" yMax="700">
      <contour>
        <pt x="78" y="700" on="1"/>
        <pt x="412" y="700" on="1"/>
        <pt x="412" y="658" on="1"/>
        <pt x="123" y="658" on="1"/>
        <pt x="123" y="413" on="1"/>
        <pt x="325" y="413" on="1"/>
        <pt x="310" y="369" on="1"/>
        <pt x="123" y="369" on="1"/>
        <pt x="123" y="41" on="1"/>
        <pt x="410" y="41" on="1"/>
        <pt x="410" y="0" on="1"/>
        <pt x="78" y="0" on="1"/>
      </contour>
    </TTGlyph>
    <TTGlyph name="Eacute" xMin="78" yMin="0" xMax="412" yMax="871">
      <contour>
        <pt x="78" y="700" on="1"/>
        <pt x="412" y="700" on="1"/>
        <pt x="412" y="658" on="1"/>
        <pt x="123" y="658" on="1"/>
        <pt x="123" y="413" on="1"/>
        <pt x="325" y="413" on="1"/>
        <pt x="310" y="369" on="1"/>
        <pt x="123" y="369" on="1"/>
        <pt x="123" y="41" on="1"/>
        <pt x="410" y="41" on="1"/>
        <pt x="410" y="0" on="1"/>
        <pt x="78" y="0" on="1"/>
      </contour>
      <contour>
        <pt x="237" y="730" on="1"/>
        <pt x="289" y="851" on="1"/>
        <pt x="298" y="871" on="0"/>
        <pt x="315" y="871" on="1"/>
        <pt x="339" y="871" on="0"/>
        <pt x="344" y="852" on="1"/>
        <pt x="346" y="847" on="0"/>
        <pt x="346" y="835" on="0"/>
        <pt x="341" y="828" on="1"/>
        <pt x="273" y="730" on="1"/>
      </contour>
    </TTGlyph>
    <TTGlyph name="Ecaron" xMin="78" yMin="0" xMax="412" yMax="907">
      <contour>
        <pt x="78" y="700" on="1"/>
        <pt x="412" y="700" on="1"/>
        <pt x="412" y="658" on="1"/>
        <pt x="123" y="658" on="1"/>
        <pt x="123" y="413" on="1"/>
        <pt x="325" y="413" on="1"/>
        <pt x="310" y="369" on="1"/>
        <pt x="123" y="369" on="1"/>
        <pt x="123" y="41" on="1"/>
        <pt x="410" y="41" on="1"/>
        <pt x="410" y="0" on="1"/>
        <pt x="78" y="0" on="1"/>
      </contour>
      <contour>
        <pt x="101" y="875" on="1"/>
        <pt x="132" y="907" on="1"/>
        <pt x="248" y="796" on="1"/>
        <pt x="360" y="907" on="1"/>
        <pt x="391" y="875" on="1"/>
        <pt x="249" y="734" on="1"/>
      </contour>
    </TTGlyph>
    <TTGlyph name="Ecircumflex" xMin="78" yMin="0" xMax="412" yMax="913">
      <contour>
        <pt x="78" y="700" on="1"/>
        <pt x="412" y="700" on="1"/>
        <pt x="412" y="658" on="1"/>
        <pt x="123" y="658" on="1"/>
        <pt x="123" y="413" on="1"/>
        <pt x="325" y="413" on="1"/>
        <pt x="310" y="369" on="1"/>
        <pt x="123" y="369" on="1"/>
        <pt x="123" y="41" on="1"/>
        <pt x="410" y="41" on="1"/>
        <pt x="410" y="0" on="1"/>
        <pt x="78" y="0" on="1"/>
      </contour>
      <contour>
        <pt x="93" y="772" on="1"/>
        <pt x="241" y="913" on="1"/>
        <pt x="383" y="772" on="1"/>
        <pt x="351" y="740" on="1"/>
        <pt x="240" y="851" on="1"/>
        <pt x="124" y="740" on="1"/>
      </contour>
    </TTGlyph>
    <TTGlyph name="Edieresis" xMin="78" yMin="0" xMax="412" yMax="700">
      <contour>
        <pt x="78" y="700" on="1"/>
        <pt x="412" y="700" on="1"/>
        <pt x="412" y="658" on="1"/>
        <pt x="123" y="658" on="1"/>
        <pt x="123" y="413" on="1"/>
        <pt x="325" y="413" on="1"/>
        <pt x="310" y="369" on="1"/>
        <pt x="123" y="369" on="1"/>
        <pt x="123" y="41" on="1"/>
        <pt x="410" y="41" on="1"/>
        <pt x="410" y="0" on="1"/>
        <pt x="78" y="0" on="1"/>
      </contour>
    </TTGlyph>
    <TTGlyph name="Edotaccent" xMin="78" yMin="0" xMax="412" yMax="797">
      <contour>
        <pt x="78" y="700" on="1"/>
        <pt x="412" y="700" on="1"/>
        <pt x="412" y="658" on="1"/>
        <pt x="123" y="658" on="1"/>
        <pt x="123" y="413" on="1"/>
        <pt x="325" y="413" on="1"/>
        <pt x="310" y="369" on="1"/>
        <pt x="123" y="369" on="1"/>
        <pt x="123" y="41" on="1"/>
        <pt x="410" y="41" on="1"/>
        <pt x="410" y="0" on="1"/>
        <pt x="78" y="0" on="1"/>
      </contour>
      <contour>
        <pt x="227" y="759" on="0"/>
        <pt x="227" y="781" on="0"/>
        <pt x="244" y="797" on="0"/>
        <pt x="266" y="797" on="0"/>
        <pt x="282" y="781" on="0"/>
        <pt x="282" y="759" on="0"/>
        <pt x="266" y="742" on="0"/>
        <pt x="244" y="742" on="0"/>
      </contour>
    </TTGlyph>
    <TTGlyph name="Egrave" xMin="78" yMin="0" xMax="412" yMax="870">
      <contour>
        <pt x="78" y="700" on="1"/>
        <pt x="412" y="700" on="1"/>
        <pt x="412" y="658" on="1"/>
        <pt x="123" y="658" on="1"/>
        <pt x="123" y="413" on="1"/>
        <pt x="325" y="413" on="1"/>
        <pt x="310" y="369" on="1"/>
        <pt x="123" y="369" on="1"/>
        <pt x="123" y="41" on="1"/>
        <pt x="410" y="41" on="1"/>
        <pt x="410" y="0" on="1"/>
        <pt x="78" y="0" on="1"/>
      </contour>
      <contour>
        <pt x="218" y="850" on="1"/>
        <pt x="271" y="729" on="1"/>
        <pt x="234" y="729" on="1"/>
        <pt x="167" y="828" on="1"/>
        <pt x="162" y="835" on="0"/>
        <pt x="162" y="841" on="1"/>
        <pt x="162" y="870" on="0"/>
        <pt x="192" y="870" on="1"/>
        <pt x="210" y="870" on="0"/>
      </contour>
    </TTGlyph>
    <TTGlyph name="Emacron" xMin="78" yMin="0" xMax="412" yMax="788">
      <contour>
        <pt x="78" y="700" on="1"/>
        <pt x="412" y="700" on="1"/>
        <pt x="412" y="658" on="1"/>
        <pt x="123" y="658" on="1"/>
        <pt x="123" y="413" on="1"/>
        <pt x="325" y="413" on="1"/>
        <pt x="310" y="369" on="1"/>
        <pt x="123" y="369" on="1"/>
        <pt x="123" y="41" on="1"/>
        <pt x="410" y="41" on="1"/>
        <pt x="410" y="0" on="1"/>
        <pt x="78" y="0" on="1"/>
      </contour>
      <contour>
        <pt x="135" y="788" on="1"/>
        <pt x="352" y="788" on="1"/>
        <pt x="352" y="742" on="1"/>
        <pt x="135" y="742" on="1"/>
      </contour>
    </TTGlyph>
    <TTGlyph name="Eng" xMin="78" yMin="-37" xMax="571" yMax="700">
      <contour>
        <pt x="453" y="700" on="1"/>
        <pt x="571" y="700" on="1"/>
        <pt x="571" y="119" on="1"/>
        <pt x="571" y="-31" on="0"/>
        <pt x="451" y="-37" on="1"/>
        <pt x="447" y="-23" on="0"/>
        <pt x="440" y="-6" on="1"/>
        <pt x="484" y="-2" on="0"/>
        <pt x="505" y="31" on="1"/>
        <pt x="377" y="227" on="0"/>
        <pt x="123" y="619" on="1"/>
        <pt x="123" y="0" on="1"/>
        <pt x="78" y="0" on="1"/>
        <pt x="78" y="700" on="1"/>
        <pt x="123" y="700" on="1"/>
        <pt x="148" y="662" on="0"/>
        <pt x="444" y="206" on="0"/>
        <pt x="523" y="86" on="1"/>
        <pt x="525" y="100" on="0"/>
        <pt x="525" y="135" on="1"/>
        <pt x="525" y="658" on="1"/>
        <pt x="453" y="660" on="1"/>
      </contour>
    </TTGlyph>
    <TTGlyph name="Eogonek" xMin="78" yMin="-213" xMax="454" yMax="700">
      <contour>
        <pt x="409" y="0" on="1"/>
        <pt x="306" y="-82" on="0"/>
        <pt x="306" y="-129" on="1"/>
        <pt x="306" y="-147" on="0"/>
        <pt x="332" y="-174" on="0"/>
        <pt x="355" y="-174" on="1"/>
        <pt x="397" y="-174" on="0"/>
        <pt x="423" y="-132" on="1"/>
        <pt x="454" y="-163" on="1"/>
        <pt x="422" y="-213" on="0"/>
        <pt x="357" y="-213" on="1"/>
        <pt x="331" y="-213" on="0"/>
        <pt x="309" y="-202" on="1"/>
        <pt x="265" y="-181" on="0"/>
        <pt x="265" y="-130" on="1"/>
        <pt x="265" y="-63" on="0"/>
        <pt x="361" y="0" on="1"/>
        <pt x="78" y="0" on="1"/>
        <pt x="78" y="700" on="1"/>
        <pt x="412" y="700" on="1"/>
        <pt x="412" y="658" on="1"/>
        <pt x="123" y="658" on="1"/>
        <pt x="123" y="413" on="1"/>
        <pt x="325" y="413" on="1"/>
        <pt x="310" y="369" on="1"/>
        <pt x="123" y="369" on="1"/>
        <pt x="123" y="41" on="1"/>
        <pt x="410" y="41" on="1"/>
        <pt x="410" y="0" on="1"/>
      </contour>
    </TTGlyph>
    <TTGlyph name="Epsilon" xMin="78" yMin="0" xMax="412" yMax="700">
      <contour>
        <pt x="78" y="700" on="1"/>
        <pt x="412" y="700" on="1"/>
        <pt x="412" y="658" on="1"/>
        <pt x="123" y="658" on="1"/>
        <pt x="123" y="413" on="1"/>
        <pt x="325" y="413" on="1"/>
        <pt x="310" y="369" on="1"/>
        <pt x="123" y="369" on="1"/>
        <pt x="123" y="41" on="1"/>
        <pt x="410" y="41" on="1"/>
        <pt x="410" y="0" on="1"/>
        <pt x="78" y="0" on="1"/>
      </contour>
    </TTGlyph>
    <TTGlyph name="Epsilontonos" xMin="78" yMin="0" xMax="579" yMax="709">
      <contour>
        <pt x="78" y="568" on="1"/>
        <pt x="130" y="689" on="1"/>
        <pt x="139" y="709" on="0"/>
        <pt x="156" y="709" on="1"/>
        <pt x="180" y="709" on="0"/>
        <pt x="186" y="690" on="1"/>
        <pt x="189" y="676" on="0"/>
        <pt x="182" y="666" on="1"/>
        <pt x="114" y="568" on="1"/>
      </contour>
      <contour>
        <pt x="245" y="700" on="1"/>
        <pt x="579" y="700" on="1"/>
        <pt x="579" y="658" on="1"/>
        <pt x="290" y="658" on="1"/>
        <pt x="290" y="413" on="1"/>
        <pt x="492" y="413" on="1"/>
        <pt x="477" y="369" on="1"/>
        <pt x="290" y="369" on="1"/>
        <pt x="290" y="41" on="1"/>
        <pt x="577" y="41" on="1"/>
        <pt x="577" y="0" on="1"/>
        <pt x="245" y="0" on="1"/>
      </contour>
    </TTGlyph>
    <TTGlyph name="Eta" xMin="80" yMin="0" xMax="510" yMax="700">
      <contour>
        <pt x="80" y="700" on="1"/>
        <pt x="125" y="700" on="1"/>
        <pt x="125" y="413" on="1"/>
        <pt x="465" y="413" on="1"/>
        <pt x="465" y="700" on="1"/>
        <pt x="510" y="700" on="1"/>
        <pt x="510" y="0" on="1"/>
        <pt x="465" y="0" on="1"/>
        <pt x="465" y="369" on="1"/>
        <pt x="125" y="369" on="1"/>
        <pt x="125" y="0" on="1"/>
        <pt x="80" y="0" on="1"/>
      </contour>
    </TTGlyph>
    <TTGlyph name="Etatonos" xMin="78" yMin="0" xMax="677" yMax="709">
      <contour>
        <pt x="78" y="568" on="1"/>
        <pt x="130" y="689" on="1"/>
        <pt x="139" y="709" on="0"/>
        <pt x="156" y="709" on="1"/>
        <pt x="180" y="709" on="0"/>
        <pt x="186" y="690" on="1"/>
        <pt x="189" y="676" on="0"/>
        <pt x="182" y="666" on="1"/>
        <pt x="114" y="568" on="1"/>
      </contour>
      <contour>
        <pt x="247" y="700" on="1"/>
        <pt x="292" y="700" on="1"/>
        <pt x="292" y="413" on="1"/>
        <pt x="632" y="413" on="1"/>
        <pt x="632" y="700" on="1"/>
        <pt x="677" y="700" on="1"/>
        <pt x="677" y="0" on="1"/>
        <pt x="632" y="0" on="1"/>
        <pt x="632" y="369" on="1"/>
        <pt x="292" y="369" on="1"/>
        <pt x="292" y="0" on="1"/>
        <pt x="247" y="0" on="1"/>
      </contour>
    </TTGlyph>
    <TTGlyph name="Eth" xMin="78" yMin="0" xMax="605" yMax="701">
      <contour>
        <pt x="78" y="538" on="1"/>
        <pt x="127" y="538" on="1"/>
        <pt x="127" y="701" on="1"/>
        <pt x="315" y="701" on="1"/>
        <pt x="408" y="701" on="0"/>
        <pt x="523" y="613" on="0"/>
        <pt x="540" y="538" on="1"/>
        <pt x="605" y="538" on="1"/>
        <pt x="605" y="494" on="1"/>
        <pt x="546" y="494" on="1"/>
        <pt x="547" y="487" on="0"/>
        <pt x="547" y="474" on="1"/>
        <pt x="547" y="200" on="1"/>
        <pt x="547" y="0" on="0"/>
        <pt x="335" y="0" on="1"/>
        <pt x="127" y="0" on="1"/>
        <pt x="127" y="494" on="1"/>
        <pt x="78" y="494" on="1"/>
      </contour>
      <contour>
        <pt x="502" y="479" on="1"/>
        <pt x="502" y="489" on="0"/>
        <pt x="501" y="494" on="1"/>
        <pt x="172" y="494" on="1"/>
        <pt x="172" y="41" on="1"/>
        <pt x="321" y="41" on="1"/>
        <pt x="387" y="41" on="0"/>
        <pt x="438" y="65" on="1"/>
        <pt x="502" y="95" on="0"/>
        <pt x="502" y="197" on="1"/>
      </contour>
      <contour>
        <pt x="172" y="659" on="1"/>
        <pt x="172" y="538" on="1"/>
        <pt x="494" y="538" on="1"/>
        <pt x="478" y="599" on="0"/>
        <pt x="383" y="659" on="0"/>
        <pt x="325" y="659" on="1"/>
      </contour>
    </TTGlyph>
    <TTGlyph name="Euro" xMin="78" yMin="-10" xMax="494" yMax="710">
      <contour>
        <pt x="494" y="23" on="1"/>
        <pt x="409" y="-10" on="0"/>
        <pt x="332" y="-10" on="1"/>
        <pt x="316" y="-10" on="0"/>
        <pt x="251" y="-4" on="0"/>
        <pt x="178" y="35" on="0"/>
        <pt x="133" y="120" on="0"/>
        <pt x="133" y="183" on="1"/>
        <pt x="133" y="264" on="1"/>
        <pt x="78" y="264" on="1"/>
        <pt x="78" y="308" on="1"/>
        <pt x="133" y="308" on="1"/>
        <pt x="133" y="369" on="1"/>
        <pt x="78" y="369" on="1"/>
        <pt x="78" y="413" on="1"/>
        <pt x="133" y="413" on="1"/>
        <pt x="133" y="504" on="1"/>
        <pt x="133" y="580" on="0"/>
        <pt x="176" y="658" on="0"/>
        <pt x="220" y="685" on="1"/>
        <pt x="265" y="710" on="0"/>
        <pt x="327" y="710" on="1"/>
        <pt x="405" y="710" on="0"/>
        <pt x="469" y="677" on="1"/>
        <pt x="455" y="645" on="1"/>
        <pt x="397" y="669" on="0"/>
        <pt x="340" y="669" on="1"/>
        <pt x="260" y="669" on="0"/>
        <pt x="218" y="629" on="1"/>
        <pt x="202" y="613" on="0"/>
        <pt x="178" y="553" on="0"/>
        <pt x="178" y="513" on="1"/>
        <pt x="178" y="413" on="1"/>
        <pt x="398" y="413" on="1"/>
        <pt x="398" y="369" on="1"/>
        <pt x="178" y="369" on="1"/>
        <pt x="178" y="308" on="1"/>
        <pt x="398" y="308" on="1"/>
        <pt x="398" y="264" on="1"/>
        <pt x="178" y="264" on="1"/>
        <pt x="178" y="185" on="1"/>
        <pt x="178" y="78" on="0"/>
        <pt x="257" y="44" on="1"/>
        <pt x="289" y="31" on="0"/>
        <pt x="395" y="31" on="0"/>
        <pt x="484" y="61" on="1"/>
      </contour>
    </TTGlyph>
    <TTGlyph name="F" xMin="78" yMin="0" xMax="412" yMax="700">
      <contour>
        <pt x="78" y="700" on="1"/>
        <pt x="412" y="700" on="1"/>
        <pt x="412" y="657" on="1"/>
        <pt x="123" y="657" on="1"/>
        <pt x="123" y="413" on="1"/>
        <pt x="305" y="413" on="1"/>
        <pt x="286" y="369" on="1"/>
        <pt x="123" y="369" on="1"/>
        <pt x="123" y="0" on="1"/>
        <pt x="78" y="0" on="1"/>
      </contour>
    </TTGlyph>
    <TTGlyph name="G" xMin="65" yMin="-10" xMax="476" yMax="709">
      <contour>
        <pt x="110" y="507" on="1"/>
        <pt x="110" y="187" on="1"/>
        <pt x="110" y="116" on="0"/>
        <pt x="202" y="33" on="0"/>
        <pt x="352" y="33" on="0"/>
        <pt x="433" y="119" on="0"/>
        <pt x="433" y="185" on="1"/>
        <pt x="433" y="256" on="1"/>
        <pt x="354" y="256" on="1"/>
        <pt x="338" y="300" on="1"/>
        <pt x="476" y="300" on="1"/>
        <pt x="476" y="0" on="1"/>
        <pt x="442" y="0" on="1"/>
        <pt x="432" y="55" on="1"/>
        <pt x="383" y="-10" on="0"/>
        <pt x="276" y="-10" on="1"/>
        <pt x="188" y="-10" on="0"/>
        <pt x="65" y="90" on="0"/>
        <pt x="65" y="189" on="1"/>
        <pt x="65" y="503" on="1"/>
        <pt x="65" y="631" on="0"/>
        <pt x="152" y="684" on="1"/>
        <pt x="197" y="709" on="0"/>
        <pt x="259" y="709" on="1"/>
        <pt x="336" y="709" on="0"/>
        <pt x="401" y="676" on="1"/>
        <pt x="388" y="644" on="1"/>
        <pt x="331" y="668" on="0"/>
        <pt x="277" y="669" on="1"/>
        <pt x="110" y="669" on="0"/>
      </contour>
    </TTGlyph>
    <TTGlyph name="Gamma" xMin="78" yMin="0" xMax="412" yMax="700">
      <contour>
        <pt x="78" y="700" on="1"/>
        <pt x="412" y="700" on="1"/>
        <pt x="412" y="657" on="1"/>
        <pt x="123" y="657" on="1"/>
        <pt x="123" y="0" on="1"/>
        <pt x="78" y="0" on="1"/>
      </contour>
    </TTGlyph>
    <TTGlyph name="Gbreve" xMin="65" yMin="-10" xMax="476" yMax="846">
      <contour>
        <pt x="110" y="507" on="1"/>
        <pt x="110" y="187" on="1"/>
        <pt x="110" y="116" on="0"/>
        <pt x="202" y="33" on="0"/>
        <pt x="352" y="33" on="0"/>
        <pt x="433" y="119" on="0"/>
        <pt x="433" y="185" on="1"/>
        <pt x="433" y="256" on="1"/>
        <pt x="354" y="256" on="1"/>
        <pt x="338" y="300" on="1"/>
        <pt x="476" y="300" on="1"/>
        <pt x="476" y="0" on="1"/>
        <pt x="442" y="0" on="1"/>
        <pt x="432" y="55" on="1"/>
        <pt x="383" y="-10" on="0"/>
        <pt x="276" y="-10" on="1"/>
        <pt x="188" y="-10" on="0"/>
        <pt x="65" y="90" on="0"/>
        <pt x="65" y="189" on="1"/>
        <pt x="65" y="503" on="1"/>
        <pt x="65" y="631" on="0"/>
        <pt x="152" y="684" on="1"/>
        <pt x="197" y="709" on="0"/>
        <pt x="259" y="709" on="1"/>
        <pt x="336" y="709" on="0"/>
        <pt x="401" y="676" on="1"/>
        <pt x="388" y="644" on="1"/>
        <pt x="331" y="668" on="0"/>
        <pt x="277" y="669" on="1"/>
        <pt x="110" y="669" on="0"/>
      </contour>
      <contour>
        <pt x="163" y="846" on="1"/>
        <pt x="201" y="846" on="1"/>
        <pt x="201" y="841" on="1"/>
        <pt x="201" y="811" on="0"/>
        <pt x="244" y="765" on="0"/>
        <pt x="308" y="765" on="0"/>
        <pt x="351" y="811" on="0"/>
        <pt x="351" y="841" on="1"/>
        <pt x="351" y="846" on="1"/>
        <pt x="389" y="846" on="1"/>
        <pt x="389" y="841" on="1"/>
        <pt x="389" y="794" on="0"/>
        <pt x="322" y="728" on="0"/>
        <pt x="230" y="728" on="0"/>
        <pt x="163" y="794" on="0"/>
        <pt x="163" y="841" on="1"/>
      </contour>
    </TTGlyph>
    <TTGlyph name="Gcircumflex" xMin="65" yMin="-10" xMax="476" yMax="913">
      <contour>
        <pt x="110" y="507" on="1"/>
        <pt x="110" y="187" on="1"/>
        <pt x="110" y="116" on="0"/>
        <pt x="202" y="33" on="0"/>
        <pt x="352" y="33" on="0"/>
        <pt x="433" y="119" on="0"/>
        <pt x="433" y="185" on="1"/>
        <pt x="433" y="256" on="1"/>
        <pt x="354" y="256" on="1"/>
        <pt x="338" y="300" on="1"/>
        <pt x="476" y="300" on="1"/>
        <pt x="476" y="0" on="1"/>
        <pt x="442" y="0" on="1"/>
        <pt x="432" y="55" on="1"/>
        <pt x="383" y="-10" on="0"/>
        <pt x="276" y="-10" on="1"/>
        <pt x="188" y="-10" on="0"/>
        <pt x="65" y="90" on="0"/>
        <pt x="65" y="189" on="1"/>
        <pt x="65" y="503" on="1"/>
        <pt x="65" y="631" on="0"/>
        <pt x="152" y="684" on="1"/>
        <pt x="197" y="709" on="0"/>
        <pt x="259" y="709" on="1"/>
        <pt x="336" y="709" on="0"/>
        <pt x="401" y="676" on="1"/>
        <pt x="388" y="644" on="1"/>
        <pt x="331" y="668" on="0"/>
        <pt x="277" y="669" on="1"/>
        <pt x="110" y="669" on="0"/>
      </contour>
      <contour>
        <pt x="134" y="772" on="1"/>
        <pt x="282" y="913" on="1"/>
        <pt x="424" y="772" on="1"/>
        <pt x="392" y="740" on="1"/>
        <pt x="281" y="851" on="1"/>
        <pt x="165" y="740" on="1"/>
      </contour>
    </TTGlyph>
    <TTGlyph name="Gcommaaccent" xMin="65" yMin="-184" xMax="476" yMax="709">
      <contour>
        <pt x="110" y="507" on="1"/>
        <pt x="110" y="187" on="1"/>
        <pt x="110" y="116" on="0"/>
        <pt x="202" y="33" on="0"/>
        <pt x="352" y="33" on="0"/>
        <pt x="433" y="119" on="0"/>
        <pt x="433" y="185" on="1"/>
        <pt x="433" y="256" on="1"/>
        <pt x="354" y="256" on="1"/>
        <pt x="338" y="300" on="1"/>
        <pt x="476" y="300" on="1"/>
        <pt x="476" y="0" on="1"/>
        <pt x="442" y="0" on="1"/>
        <pt x="432" y="55" on="1"/>
        <pt x="383" y="-10" on="0"/>
        <pt x="276" y="-10" on="1"/>
        <pt x="188" y="-10" on="0"/>
        <pt x="65" y="90" on="0"/>
        <pt x="65" y="189" on="1"/>
        <pt x="65" y="503" on="1"/>
        <pt x="65" y="631" on="0"/>
        <pt x="152" y="684" on="1"/>
        <pt x="197" y="709" on="0"/>
        <pt x="259" y="709" on="1"/>
        <pt x="336" y="709" on="0"/>
        <pt x="401" y="676" on="1"/>
        <pt x="388" y="644" on="1"/>
        <pt x="331" y="668" on="0"/>
        <pt x="277" y="669" on="1"/>
        <pt x="110" y="669" on="0"/>
      </contour>
      <contour>
        <pt x="269" y="-102" on="1"/>
        <pt x="262" y="-100" on="1"/>
        <pt x="245" y="-90" on="0"/>
        <pt x="246" y="-59" on="0"/>
        <pt x="261" y="-45" on="0"/>
        <pt x="273" y="-45" on="0"/>
        <pt x="285" y="-46" on="0"/>
        <pt x="303" y="-65" on="0"/>
        <pt x="303" y="-76" on="1"/>
        <pt x="303" y="-131" on="0"/>
        <pt x="239" y="-184" on="1"/>
        <pt x="207" y="-161" on="1"/>
        <pt x="229" y="-149" on="0"/>
        <pt x="260" y="-119" on="0"/>
      </contour>
    </TTGlyph>
    <TTGlyph name="Gdotaccent" xMin="74" yMin="-7" xMax="495" yMax="796">
      <contour>
        <pt x="74" y="701" on="1"/>
        <pt x="119" y="701" on="1"/>
        <pt x="119" y="180" on="1"/>
        <pt x="119" y="110" on="0"/>
        <pt x="217" y="34" on="0"/>
        <pt x="353" y="34" on="0"/>
        <pt x="450" y="110" on="0"/>
        <pt x="450" y="180" on="1"/>
        <pt x="450" y="701" on="1"/>
        <pt x="495" y="701" on="1"/>
        <pt x="495" y="186" on="1"/>
        <pt x="495" y="133" on="0"/>
        <pt x="458" y="55" on="0"/>
        <pt x="395" y="13" on="0"/>
        <pt x="325" y="-7" on="0"/>
        <pt x="245" y="-7" on="0"/>
        <pt x="174" y="13" on="0"/>
        <pt x="111" y="55" on="0"/>
        <pt x="74" y="133" on="0"/>
        <pt x="74" y="186" on="1"/>
      </contour>
      <contour>
        <pt x="264" y="758" on="0"/>
        <pt x="264" y="780" on="0"/>
        <pt x="281" y="796" on="0"/>
        <pt x="303" y="796" on="0"/>
        <pt x="319" y="780" on="0"/>
        <pt x="319" y="758" on="0"/>
        <pt x="303" y="741" on="0"/>
        <pt x="281" y="741" on="0"/>
      </contour>
    </TTGlyph>
    <TTGlyph name="H" xMin="78" yMin="0" xMax="508" yMax="700">
      <contour>
        <pt x="78" y="700" on="1"/>
        <pt x="123" y="700" on="1"/>
        <pt x="123" y="413" on="1"/>
        <pt x="463" y="413" on="1"/>
        <pt x="463" y="700" on="1"/>
        <pt x="508" y="700" on="1"/>
        <pt x="508" y="0" on="1"/>
        <pt x="463" y="0" on="1"/>
        <pt x="463" y="369" on="1"/>
        <pt x="123" y="369" on="1"/>
        <pt x="123" y="0" on="1"/>
        <pt x="78" y="0" on="1"/>
      </contour>
    </TTGlyph>
    <TTGlyph name="Hbar" xMin="78" yMin="0" xMax="605" yMax="700">
      <contour>
        <pt x="78" y="538" on="1"/>
        <pt x="127" y="538" on="1"/>
        <pt x="127" y="700" on="1"/>
        <pt x="172" y="700" on="1"/>
        <pt x="172" y="538" on="1"/>
        <pt x="512" y="538" on="1"/>
        <pt x="512" y="700" on="1"/>
        <pt x="557" y="700" on="1"/>
        <pt x="557" y="538" on="1"/>
        <pt x="605" y="538" on="1"/>
        <pt x="605" y="494" on="1"/>
        <pt x="557" y="494" on="1"/>
        <pt x="557" y="0" on="1"/>
        <pt x="512" y="0" on="1"/>
        <pt x="512" y="369" on="1"/>
        <pt x="172" y="369" on="1"/>
        <pt x="172" y="0" on="1"/>
        <pt x="127" y="0" on="1"/>
        <pt x="127" y="494" on="1"/>
        <pt x="78" y="494" on="1"/>
      </contour>
      <contour>
        <pt x="172" y="413" on="1"/>
        <pt x="512" y="413" on="1"/>
        <pt x="512" y="494" on="1"/>
        <pt x="172" y="494" on="1"/>
      </contour>
    </TTGlyph>
    <TTGlyph name="Hcircumflex" xMin="78" yMin="0" xMax="508" yMax="913">
      <contour>
        <pt x="78" y="700" on="1"/>
        <pt x="123" y="700" on="1"/>
        <pt x="123" y="413" on="1"/>
        <pt x="463" y="413" on="1"/>
        <pt x="463" y="700" on="1"/>
        <pt x="508" y="700" on="1"/>
        <pt x="508" y="0" on="1"/>
        <pt x="463" y="0" on="1"/>
        <pt x="463" y="369" on="1"/>
        <pt x="123" y="369" on="1"/>
        <pt x="123" y="0" on="1"/>
        <pt x="78" y="0" on="1"/>
      </contour>
      <contour>
        <pt x="149" y="772" on="1"/>
        <pt x="297" y="913" on="1"/>
        <pt x="439" y="772" on="1"/>
        <pt x="407" y="740" on="1"/>
        <pt x="296" y="851" on="1"/>
        <pt x="180" y="740" on="1"/>
      </contour>
    </TTGlyph>
    <TTGlyph name="I" xMin="29" yMin="0" xMax="146" yMax="700">
      <contour>
        <pt x="29" y="700" on="1"/>
        <pt x="146" y="700" on="1"/>
        <pt x="146" y="0" on="1"/>
        <pt x="101" y="0" on="1"/>
        <pt x="101" y="658" on="1"/>
        <pt x="29" y="660" on="1"/>
      </contour>
    </TTGlyph>
    <TTGlyph name="Iacute" xMin="78" yMin="0" xMax="265" yMax="871">
      <contour>
        <pt x="78" y="700" on="1"/>
        <pt x="195" y="700" on="1"/>
        <pt x="195" y="0" on="1"/>
        <pt x="150" y="0" on="1"/>
        <pt x="150" y="658" on="1"/>
        <pt x="78" y="660" on="1"/>
      </contour>
      <contour>
        <pt x="156" y="730" on="1"/>
        <pt x="208" y="851" on="1"/>
        <pt x="217" y="871" on="0"/>
        <pt x="234" y="871" on="1"/>
        <pt x="258" y="871" on="0"/>
        <pt x="264" y="852" on="1"/>
        <pt x="265" y="847" on="0"/>
        <pt x="265" y="835" on="0"/>
        <pt x="260" y="828" on="1"/>
        <pt x="192" y="730" on="1"/>
      </contour>
    </TTGlyph>
    <TTGlyph name="Icircumflex" xMin="78" yMin="0" xMax="368" yMax="913">
      <contour>
        <pt x="134" y="700" on="1"/>
        <pt x="251" y="700" on="1"/>
        <pt x="251" y="0" on="1"/>
        <pt x="206" y="0" on="1"/>
        <pt x="206" y="658" on="1"/>
        <pt x="134" y="660" on="1"/>
      </contour>
      <contour>
        <pt x="78" y="772" on="1"/>
        <pt x="226" y="913" on="1"/>
        <pt x="368" y="772" on="1"/>
        <pt x="336" y="740" on="1"/>
        <pt x="225" y="851" on="1"/>
        <pt x="109" y="740" on="1"/>
      </contour>
    </TTGlyph>
    <TTGlyph name="Idieresis" xMin="78" yMin="0" xMax="195" yMax="700">
      <contour>
        <pt x="78" y="700" on="1"/>
        <pt x="195" y="700" on="1"/>
        <pt x="195" y="0" on="1"/>
        <pt x="150" y="0" on="1"/>
        <pt x="150" y="658" on="1"/>
        <pt x="78" y="660" on="1"/>
      </contour>
    </TTGlyph>
    <TTGlyph name="Idotaccent" xMin="78" yMin="0" xMax="200" yMax="797">
      <contour>
        <pt x="78" y="700" on="1"/>
        <pt x="195" y="700" on="1"/>
        <pt x="195" y="0" on="1"/>
        <pt x="150" y="0" on="1"/>
        <pt x="150" y="658" on="1"/>
        <pt x="78" y="660" on="1"/>
      </contour>
      <contour>
        <pt x="145" y="759" on="0"/>
        <pt x="145" y="781" on="0"/>
        <pt x="162" y="797" on="0"/>
        <pt x="184" y="797" on="0"/>
        <pt x="200" y="781" on="0"/>
        <pt x="200" y="759" on="0"/>
        <pt x="184" y="742" on="0"/>
        <pt x="162" y="742" on="0"/>
      </contour>
    </TTGlyph>
    <TTGlyph name="Igrave" xMin="83" yMin="0" xMax="200" yMax="870">
      <contour>
        <pt x="83" y="700" on="1"/>
        <pt x="200" y="700" on="1"/>
        <pt x="200" y="0" on="1"/>
        <pt x="155" y="0" on="1"/>
        <pt x="155" y="658" on="1"/>
        <pt x="83" y="660" on="1"/>
      </contour>
      <contour>
        <pt x="139" y="850" on="1"/>
        <pt x="192" y="729" on="1"/>
        <pt x="155" y="729" on="1"/>
        <pt x="88" y="828" on="1"/>
        <pt x="83" y="835" on="0"/>
        <pt x="83" y="841" on="1"/>
        <pt x="83" y="870" on="0"/>
        <pt x="113" y="870" on="1"/>
        <pt x="131" y="870" on="0"/>
      </contour>
    </TTGlyph>
    <TTGlyph name="Imacron" xMin="78" yMin="0" xMax="294" yMax="788">
      <contour>
        <pt x="122" y="700" on="1"/>
        <pt x="239" y="700" on="1"/>
        <pt x="239" y="0" on="1"/>
        <pt x="194" y="0" on="1"/>
        <pt x="194" y="658" on="1"/>
        <pt x="122" y="660" on="1"/>
      </contour>
      <contour>
        <pt x="78" y="788" on="1"/>
        <pt x="294" y="788" on="1"/>
        <pt x="294" y="742" on="1"/>
        <pt x="78" y="742" on="1"/>
      </contour>
    </TTGlyph>
    <TTGlyph name="Iogonek" xMin="78" yMin="-213" xMax="267" yMax="700">
      <contour>
        <pt x="222" y="0" on="1"/>
        <pt x="119" y="-82" on="0"/>
        <pt x="119" y="-129" on="1"/>
        <pt x="119" y="-147" on="0"/>
        <pt x="145" y="-174" on="0"/>
        <pt x="168" y="-174" on="1"/>
        <pt x="210" y="-174" on="0"/>
        <pt x="236" y="-132" on="1"/>
        <pt x="267" y="-163" on="1"/>
        <pt x="235" y="-213" on="0"/>
        <pt x="170" y="-213" on="1"/>
        <pt x="144" y="-213" on="0"/>
        <pt x="122" y="-202" on="1"/>
        <pt x="78" y="-181" on="0"/>
        <pt x="78" y="-130" on="1"/>
        <pt x="78" y="-63" on="0"/>
        <pt x="174" y="0" on="1"/>
        <pt x="176" y="0" on="1"/>
        <pt x="176" y="658" on="1"/>
        <pt x="104" y="660" on="1"/>
        <pt x="104" y="700" on="1"/>
        <pt x="221" y="700" on="1"/>
        <pt x="221" y="0" on="1"/>
      </contour>
    </TTGlyph>
    <TTGlyph name="Iota" xMin="80" yMin="0" xMax="197" yMax="700">
      <contour>
        <pt x="80" y="700" on="1"/>
        <pt x="197" y="700" on="1"/>
        <pt x="197" y="0" on="1"/>
        <pt x="152" y="0" on="1"/>
        <pt x="152" y="658" on="1"/>
        <pt x="80" y="660" on="1"/>
      </contour>
    </TTGlyph>
    <TTGlyph name="Iotadieresis" xMin="35" yMin="0" xMax="249" yMax="796">
      <contour>
        <pt x="47" y="700" on="1"/>
        <pt x="164" y="700" on="1"/>
        <pt x="164" y="0" on="1"/>
        <pt x="119" y="0" on="1"/>
        <pt x="119" y="658" on="1"/>
        <pt x="47" y="660" on="1"/>
      </contour>
      <contour>
        <pt x="52" y="796" on="0"/>
        <pt x="74" y="796" on="0"/>
        <pt x="91" y="779" on="0"/>
        <pt x="91" y="757" on="0"/>
        <pt x="74" y="741" on="0"/>
        <pt x="52" y="741" on="0"/>
        <pt x="35" y="757" on="0"/>
        <pt x="35" y="779" on="0"/>
      </contour>
      <contour>
        <pt x="210" y="796" on="0"/>
        <pt x="232" y="796" on="0"/>
        <pt x="249" y="780" on="0"/>
        <pt x="249" y="758" on="0"/>
        <pt x="232" y="741" on="0"/>
        <pt x="210" y="741" on="0"/>
        <pt x="194" y="758" on="0"/>
        <pt x="194" y="780" on="0"/>
      </contour>
    </TTGlyph>
    <TTGlyph name="Iotatonos" xMin="78" yMin="0" xMax="351" yMax="709">
      <contour>
        <pt x="234" y="700" on="1"/>
        <pt x="351" y="700" on="1"/>
        <pt x="351" y="0" on="1"/>
        <pt x="306" y="0" on="1"/>
        <pt x="306" y="658" on="1"/>
        <pt x="234" y="660" on="1"/>
      </contour>
      <contour>
        <pt x="78" y="568" on="1"/>
        <pt x="130" y="689" on="1"/>
        <pt x="139" y="709" on="0"/>
        <pt x="156" y="709" on="1"/>
        <pt x="180" y="709" on="0"/>
        <pt x="186" y="690" on="1"/>
        <pt x="187" y="685" on="0"/>
        <pt x="187" y="673" on="0"/>
        <pt x="182" y="666" on="1"/>
        <pt x="114" y="568" on="1"/>
      </contour>
    </TTGlyph>
    <TTGlyph name="Itilde" xMin="78" yMin="0" xMax="408" yMax="827">
      <contour>
        <pt x="163" y="700" on="1"/>
        <pt x="280" y="700" on="1"/>
        <pt x="280" y="0" on="1"/>
        <pt x="235" y="0" on="1"/>
        <pt x="235" y="658" on="1"/>
        <pt x="163" y="660" on="1"/>
      </contour>
      <contour>
        <pt x="176" y="781" on="1"/>
        <pt x="134" y="781" on="0"/>
        <pt x="99" y="743" on="1"/>
        <pt x="78" y="775" on="1"/>
        <pt x="125" y="827" on="0"/>
        <pt x="178" y="827" on="1"/>
        <pt x="202" y="827" on="0"/>
        <pt x="270" y="796" on="1"/>
        <pt x="293" y="785" on="0"/>
        <pt x="317" y="785" on="1"/>
        <pt x="357" y="785" on="0"/>
        <pt x="388" y="819" on="1"/>
        <pt x="408" y="786" on="1"/>
        <pt x="365" y="739" on="0"/>
        <pt x="316" y="739" on="1"/>
        <pt x="296" y="739" on="0"/>
        <pt x="249" y="759" on="0"/>
        <pt x="200" y="781" on="0"/>
      </contour>
    </TTGlyph>
    <TTGlyph name="J" xMin="-2" yMin="-37" xMax="128" yMax="700">
      <contour>
        <pt x="11" y="700" on="1"/>
        <pt x="128" y="700" on="1"/>
        <pt x="128" y="119" on="1"/>
        <pt x="128" y="-31" on="0"/>
        <pt x="9" y="-37" on="1"/>
        <pt x="-2" y="-6" on="1"/>
        <pt x="33" y="-4" on="0"/>
        <pt x="83" y="52" on="0"/>
        <pt x="83" y="115" on="1"/>
        <pt x="83" y="658" on="1"/>
        <pt x="11" y="660" on="1"/>
      </contour>
    </TTGlyph>
    <TTGlyph name="Jcircumflex" xMin="-2" yMin="-37" xMax="224" yMax="846">
      <contour>
        <pt x="21" y="700" on="1"/>
        <pt x="138" y="700" on="1"/>
        <pt x="138" y="119" on="1"/>
        <pt x="138" y="-31" on="0"/>
        <pt x="19" y="-37" on="1"/>
        <pt x="8" y="-6" on="1"/>
        <pt x="43" y="-4" on="0"/>
        <pt x="93" y="52" on="0"/>
        <pt x="93" y="115" on="1"/>
        <pt x="93" y="658" on="1"/>
        <pt x="21" y="660" on="1"/>
      </contour>
      <contour>
        <pt x="-2" y="846" on="1"/>
        <pt x="36" y="846" on="1"/>
        <pt x="36" y="841" on="1"/>
        <pt x="36" y="811" on="0"/>
        <pt x="78" y="765" on="0"/>
        <pt x="143" y="765" on="0"/>
        <pt x="186" y="811" on="0"/>
        <pt x="186" y="841" on="1"/>
        <pt x="186" y="846" on="1"/>
        <pt x="224" y="846" on="1"/>
        <pt x="224" y="841" on="1"/>
        <pt x="224" y="794" on="0"/>
        <pt x="158" y="728" on="0"/>
        <pt x="64" y="728" on="0"/>
        <pt x="-2" y="794" on="0"/>
        <pt x="-2" y="841" on="1"/>
      </contour>
    </TTGlyph>
    <TTGlyph name="K" xMin="79" yMin="0" xMax="476" yMax="701">
      <contour>
        <pt x="79" y="701" on="1"/>
        <pt x="124" y="701" on="1"/>
        <pt x="124" y="349" on="1"/>
        <pt x="372" y="701" on="1"/>
        <pt x="424" y="701" on="1"/>
        <pt x="215" y="404" on="1"/>
        <pt x="476" y="0" on="1"/>
        <pt x="423" y="0" on="1"/>
        <pt x="187" y="362" on="1"/>
        <pt x="124" y="272" on="1"/>
        <pt x="124" y="0" on="1"/>
        <pt x="79" y="0" on="1"/>
      </contour>
    </TTGlyph>
    <TTGlyph name="Kappa" xMin="78" yMin="0" xMax="475" yMax="701">
      <contour>
        <pt x="78" y="701" on="1"/>
        <pt x="123" y="701" on="1"/>
        <pt x="123" y="349" on="1"/>
        <pt x="371" y="701" on="1"/>
        <pt x="423" y="701" on="1"/>
        <pt x="214" y="404" on="1"/>
        <pt x="475" y="0" on="1"/>
        <pt x="422" y="0" on="1"/>
        <pt x="186" y="362" on="1"/>
        <pt x="123" y="272" on="1"/>
        <pt x="123" y="0" on="1"/>
        <pt x="78" y="0" on="1"/>
      </contour>
    </TTGlyph>
    <TTGlyph name="Kcommaaccent" xMin="79" yMin="-184" xMax="476" yMax="701">
      <contour>
        <pt x="79" y="701" on="1"/>
        <pt x="124" y="701" on="1"/>
        <pt x="124" y="349" on="1"/>
        <pt x="372" y="701" on="1"/>
        <pt x="424" y="701" on="1"/>
        <pt x="215" y="404" on="1"/>
        <pt x="476" y="0" on="1"/>
        <pt x="423" y="0" on="1"/>
        <pt x="187" y="362" on="1"/>
        <pt x="124" y="272" on="1"/>
        <pt x="124" y="0" on="1"/>
        <pt x="79" y="0" on="1"/>
      </contour>
      <contour>
        <pt x="258" y="-102" on="1"/>
        <pt x="251" y="-100" on="1"/>
        <pt x="234" y="-90" on="0"/>
        <pt x="235" y="-59" on="0"/>
        <pt x="250" y="-45" on="0"/>
        <pt x="262" y="-45" on="0"/>
        <pt x="274" y="-46" on="0"/>
        <pt x="292" y="-65" on="0"/>
        <pt x="292" y="-76" on="1"/>
        <pt x="292" y="-131" on="0"/>
        <pt x="228" y="-184" on="1"/>
        <pt x="196" y="-161" on="1"/>
        <pt x="218" y="-149" on="0"/>
        <pt x="249" y="-119" on="0"/>
      </contour>
    </TTGlyph>
    <TTGlyph name="L" xMin="78" yMin="0" xMax="439" yMax="700">
      <contour>
        <pt x="78" y="700" on="1"/>
        <pt x="123" y="700" on="1"/>
        <pt x="123" y="41" on="1"/>
        <pt x="439" y="41" on="1"/>
        <pt x="439" y="0" on="1"/>
        <pt x="78" y="0" on="1"/>
      </contour>
    </TTGlyph>
    <TTGlyph name="Lacute" xMin="78" yMin="0" xMax="439" yMax="871">
      <contour>
        <pt x="78" y="700" on="1"/>
        <pt x="123" y="700" on="1"/>
        <pt x="123" y="41" on="1"/>
        <pt x="439" y="41" on="1"/>
        <pt x="439" y="0" on="1"/>
        <pt x="78" y="0" on="1"/>
      </contour>
      <contour>
        <pt x="81" y="730" on="1"/>
        <pt x="133" y="851" on="1"/>
        <pt x="142" y="871" on="0"/>
        <pt x="159" y="871" on="1"/>
        <pt x="183" y="871" on="0"/>
        <pt x="188" y="852" on="1"/>
        <pt x="190" y="847" on="0"/>
        <pt x="190" y="835" on="0"/>
        <pt x="185" y="828" on="1"/>
        <pt x="117" y="730" on="1"/>
      </contour>
    </TTGlyph>
    <TTGlyph name="Lambda" xMin="12" yMin="0" xMax="517" yMax="700">
      <contour>
        <pt x="241" y="700" on="1"/>
        <pt x="284" y="700" on="1"/>
        <pt x="517" y="0" on="1"/>
        <pt x="469" y="0" on="1"/>
        <pt x="262" y="630" on="1"/>
        <pt x="59" y="0" on="1"/>
        <pt x="12" y="0" on="1"/>
      </contour>
    </TTGlyph>
    <TTGlyph name="Lcaron" xMin="-34" yMin="0" xMax="446" yMax="907">
      <contour>
        <pt x="85" y="700" on="1"/>
        <pt x="130" y="700" on="1"/>
        <pt x="130" y="41" on="1"/>
        <pt x="446" y="41" on="1"/>
        <pt x="446" y="0" on="1"/>
        <pt x="85" y="0" on="1"/>
      </contour>
      <contour>
        <pt x="-34" y="875" on="1"/>
        <pt x="-3" y="907" on="1"/>
        <pt x="113" y="796" on="1"/>
        <pt x="225" y="907" on="1"/>
        <pt x="256" y="875" on="1"/>
        <pt x="114" y="734" on="1"/>
      </contour>
    </TTGlyph>
    <TTGlyph name="Lcommaaccent" xMin="78" yMin="-184" xMax="439" yMax="700">
      <contour>
        <pt x="78" y="700" on="1"/>
        <pt x="123" y="700" on="1"/>
        <pt x="123" y="41" on="1"/>
        <pt x="439" y="41" on="1"/>
        <pt x="439" y="0" on="1"/>
        <pt x="78" y="0" on="1"/>
      </contour>
      <contour>
        <pt x="269" y="-102" on="1"/>
        <pt x="262" y="-100" on="1"/>
        <pt x="245" y="-90" on="0"/>
        <pt x="246" y="-59" on="0"/>
        <pt x="261" y="-45" on="0"/>
        <pt x="273" y="-45" on="0"/>
        <pt x="285" y="-46" on="0"/>
        <pt x="303" y="-65" on="0"/>
        <pt x="303" y="-76" on="1"/>
        <pt x="303" y="-131" on="0"/>
        <pt x="239" y="-184" on="1"/>
        <pt x="207" y="-161" on="1"/>
        <pt x="229" y="-149" on="0"/>
        <pt x="260" y="-119" on="0"/>
      </contour>
    </TTGlyph>
    <TTGlyph name="Lslash" xMin="78" yMin="0" xMax="562" yMax="700">
      <contour>
        <pt x="201" y="700" on="1"/>
        <pt x="246" y="700" on="1"/>
        <pt x="246" y="433" on="1"/>
        <pt x="369" y="489" on="1"/>
        <pt x="387" y="449" on="1"/>
        <pt x="246" y="385" on="1"/>
        <pt x="246" y="41" on="1"/>
        <pt x="562" y="41" on="1"/>
        <pt x="562" y="0" on="1"/>
        <pt x="201" y="0" on="1"/>
        <pt x="201" y="365" on="1"/>
        <pt x="95" y="318" on="1"/>
        <pt x="78" y="358" on="1"/>
        <pt x="201" y="413" on="1"/>
      </contour>
    </TTGlyph>
    <TTGlyph name="M" xMin="78" yMin="0" xMax="614" yMax="700">
      <contour>
        <pt x="78" y="700" on="1"/>
        <pt x="123" y="700" on="1"/>
        <pt x="345" y="69" on="1"/>
        <pt x="569" y="700" on="1"/>
        <pt x="614" y="700" on="1"/>
        <pt x="614" y="0" on="1"/>
        <pt x="569" y="0" on="1"/>
        <pt x="569" y="569" on="1"/>
        <pt x="369" y="0" on="1"/>
        <pt x="321" y="0" on="1"/>
        <pt x="123" y="569" on="1"/>
        <pt x="123" y="0" on="1"/>
        <pt x="78" y="0" on="1"/>
      </contour>
    </TTGlyph>
    <TTGlyph name="Mu" xMin="80" yMin="0" xMax="616" yMax="700">
      <contour>
        <pt x="80" y="700" on="1"/>
        <pt x="125" y="700" on="1"/>
        <pt x="347" y="69" on="1"/>
        <pt x="571" y="700" on="1"/>
        <pt x="616" y="700" on="1"/>
        <pt x="616" y="0" on="1"/>
        <pt x="571" y="0" on="1"/>
        <pt x="571" y="569" on="1"/>
        <pt x="371" y="0" on="1"/>
        <pt x="323" y="0" on="1"/>
        <pt x="125" y="569" on="1"/>
        <pt x="125" y="0" on="1"/>
        <pt x="80" y="0" on="1"/>
      </contour>
    </TTGlyph>
    <TTGlyph name="N" xMin="78" yMin="0" xMax="570" yMax="700">
      <contour>
        <pt x="78" y="700" on="1"/>
        <pt x="123" y="700" on="1"/>
        <pt x="526" y="82" on="1"/>
        <pt x="526" y="700" on="1"/>
        <pt x="570" y="700" on="1"/>
        <pt x="570" y="0" on="1"/>
        <pt x="526" y="0" on="1"/>
        <pt x="123" y="619" on="1"/>
        <pt x="123" y="0" on="1"/>
        <pt x="78" y="0" on="1"/>
      </contour>
    </TTGlyph>
    <TTGlyph name="Nacute" xMin="78" yMin="0" xMax="570" yMax="871">
      <contour>
        <pt x="78" y="700" on="1"/>
        <pt x="123" y="700" on="1"/>
        <pt x="526" y="82" on="1"/>
        <pt x="526" y="700" on="1"/>
        <pt x="570" y="700" on="1"/>
        <pt x="570" y="0" on="1"/>
        <pt x="526" y="0" on="1"/>
        <pt x="123" y="619" on="1"/>
        <pt x="123" y="0" on="1"/>
        <pt x="78" y="0" on="1"/>
      </contour>
      <contour>
        <pt x="278" y="730" on="1"/>
        <pt x="330" y="851" on="1"/>
        <pt x="339" y="871" on="0"/>
        <pt x="356" y="871" on="1"/>
        <pt x="380" y="871" on="0"/>
        <pt x="386" y="852" on="1"/>
        <pt x="387" y="847" on="0"/>
        <pt x="387" y="835" on="0"/>
        <pt x="382" y="828" on="1"/>
        <pt x="314" y="730" on="1"/>
      </contour>
    </TTGlyph>
    <TTGlyph name="Ncaron" xMin="78" yMin="0" xMax="570" yMax="907">
      <contour>
        <pt x="78" y="700" on="1"/>
        <pt x="123" y="700" on="1"/>
        <pt x="526" y="82" on="1"/>
        <pt x="526" y="700" on="1"/>
        <pt x="570" y="700" on="1"/>
        <pt x="570" y="0" on="1"/>
        <pt x="526" y="0" on="1"/>
        <pt x="123" y="619" on="1"/>
        <pt x="123" y="0" on="1"/>
        <pt x="78" y="0" on="1"/>
      </contour>
      <contour>
        <pt x="184" y="875" on="1"/>
        <pt x="215" y="907" on="1"/>
        <pt x="331" y="796" on="1"/>
        <pt x="443" y="907" on="1"/>
        <pt x="474" y="875" on="1"/>
        <pt x="332" y="734" on="1"/>
      </contour>
    </TTGlyph>
    <TTGlyph name="Ncommaaccent" xMin="78" yMin="-184" xMax="570" yMax="700">
      <contour>
        <pt x="78" y="700" on="1"/>
        <pt x="123" y="700" on="1"/>
        <pt x="526" y="82" on="1"/>
        <pt x="526" y="700" on="1"/>
        <pt x="570" y="700" on="1"/>
        <pt x="570" y="0" on="1"/>
        <pt x="526" y="0" on="1"/>
        <pt x="123" y="619" on="1"/>
        <pt x="123" y="0" on="1"/>
        <pt x="78" y="0" on="1"/>
      </contour>
      <contour>
        <pt x="342" y="-102" on="1"/>
        <pt x="335" y="-100" on="1"/>
        <pt x="318" y="-90" on="0"/>
        <pt x="319" y="-59" on="0"/>
        <pt x="334" y="-45" on="0"/>
        <pt x="346" y="-45" on="0"/>
        <pt x="358" y="-46" on="0"/>
        <pt x="376" y="-65" on="0"/>
        <pt x="376" y="-76" on="1"/>
        <pt x="376" y="-131" on="0"/>
        <pt x="312" y="-184" on="1"/>
        <pt x="280" y="-161" on="1"/>
        <pt x="302" y="-149" on="0"/>
        <pt x="333" y="-119" on="0"/>
      </contour>
    </TTGlyph>
    <TTGlyph name="Ntilde" xMin="78" yMin="0" xMax="570" yMax="826">
      <contour>
        <pt x="78" y="700" on="1"/>
        <pt x="123" y="700" on="1"/>
        <pt x="526" y="82" on="1"/>
        <pt x="526" y="700" on="1"/>
        <pt x="570" y="700" on="1"/>
        <pt x="570" y="0" on="1"/>
        <pt x="526" y="0" on="1"/>
        <pt x="123" y="619" on="1"/>
        <pt x="123" y="0" on="1"/>
        <pt x="78" y="0" on="1"/>
      </contour>
      <contour>
        <pt x="256" y="780" on="1"/>
        <pt x="214" y="780" on="0"/>
        <pt x="179" y="742" on="1"/>
        <pt x="158" y="774" on="1"/>
        <pt x="205" y="826" on="0"/>
        <pt x="258" y="826" on="1"/>
        <pt x="282" y="826" on="0"/>
        <pt x="350" y="795" on="1"/>
        <pt x="373" y="784" on="0"/>
        <pt x="397" y="784" on="1"/>
        <pt x="437" y="784" on="0"/>
        <pt x="468" y="818" on="1"/>
        <pt x="488" y="785" on="1"/>
        <pt x="445" y="738" on="0"/>
        <pt x="396" y="738" on="1"/>
        <pt x="376" y="738" on="0"/>
        <pt x="329" y="758" on="0"/>
        <pt x="280" y="780" on="0"/>
      </contour>
    </TTGlyph>
    <TTGlyph name="Nu" xMin="80" yMin="0" xMax="572" yMax="700">
      <contour>
        <pt x="80" y="700" on="1"/>
        <pt x="125" y="700" on="1"/>
        <pt x="528" y="82" on="1"/>
        <pt x="528" y="700" on="1"/>
        <pt x="572" y="700" on="1"/>
        <pt x="572" y="0" on="1"/>
        <pt x="528" y="0" on="1"/>
        <pt x="125" y="619" on="1"/>
        <pt x="125" y="0" on="1"/>
        <pt x="80" y="0" on="1"/>
      </contour>
    </TTGlyph>
    <TTGlyph name="O" xMin="63" yMin="-11" xMax="483" yMax="716">
      <contour>
        <pt x="63" y="185" on="1"/>
        <pt x="63" y="507" on="1"/>
        <pt x="63" y="610" on="0"/>
        <pt x="176" y="716" on="0"/>
        <pt x="374" y="716" on="0"/>
        <pt x="483" y="604" on="0"/>
        <pt x="483" y="506" on="1"/>
        <pt x="483" y="185" on="1"/>
        <pt x="483" y="84" on="0"/>
        <pt x="360" y="-11" on="0"/>
        <pt x="188" y="-11" on="0"/>
        <pt x="63" y="84" on="0"/>
      </contour>
      <contour>
        <pt x="108" y="514" on="1"/>
        <pt x="108" y="185" on="1"/>
        <pt x="108" y="109" on="0"/>
        <pt x="203" y="32" on="0"/>
        <pt x="345" y="32" on="0"/>
        <pt x="439" y="107" on="0"/>
        <pt x="439" y="186" on="1"/>
        <pt x="439" y="514" on="1"/>
        <pt x="439" y="591" on="0"/>
        <pt x="350" y="673" on="0"/>
        <pt x="196" y="673" on="0"/>
        <pt x="108" y="591" on="0"/>
      </contour>
    </TTGlyph>
    <TTGlyph name="OE" xMin="78" yMin="-11" xMax="787" yMax="716">
      <contour>
        <pt x="453" y="700" on="1"/>
        <pt x="787" y="700" on="1"/>
        <pt x="787" y="658" on="1"/>
        <pt x="498" y="658" on="1"/>
        <pt x="498" y="413" on="1"/>
        <pt x="700" y="413" on="1"/>
        <pt x="685" y="369" on="1"/>
        <pt x="498" y="369" on="1"/>
        <pt x="498" y="41" on="1"/>
        <pt x="785" y="41" on="1"/>
        <pt x="785" y="0" on="1"/>
        <pt x="453" y="0" on="1"/>
        <pt x="453" y="52" on="1"/>
        <pt x="397" y="-11" on="0"/>
        <pt x="289" y="-11" on="1"/>
        <pt x="203" y="-11" on="0"/>
        <pt x="78" y="84" on="0"/>
        <pt x="78" y="185" on="1"/>
        <pt x="78" y="507" on="1"/>
        <pt x="78" y="610" on="0"/>
        <pt x="191" y="716" on="0"/>
        <pt x="398" y="716" on="0"/>
        <pt x="453" y="650" on="1"/>
      </contour>
      <contour>
        <pt x="123" y="514" on="1"/>
        <pt x="123" y="185" on="1"/>
        <pt x="123" y="109" on="0"/>
        <pt x="218" y="32" on="0"/>
        <pt x="355" y="32" on="0"/>
        <pt x="447" y="97" on="0"/>
        <pt x="453" y="165" on="1"/>
        <pt x="453" y="536" on="1"/>
        <pt x="446" y="602" on="0"/>
        <pt x="359" y="673" on="0"/>
        <pt x="211" y="673" on="0"/>
        <pt x="123" y="591" on="0"/>
      </contour>
    </TTGlyph>
    <TTGlyph name="Oacute" xMin="63" yMin="-11" xMax="483" yMax="871">
      <contour>
        <pt x="63" y="185" on="1"/>
        <pt x="63" y="507" on="1"/>
        <pt x="63" y="610" on="0"/>
        <pt x="176" y="716" on="0"/>
        <pt x="374" y="716" on="0"/>
        <pt x="483" y="604" on="0"/>
        <pt x="483" y="506" on="1"/>
        <pt x="483" y="185" on="1"/>
        <pt x="483" y="84" on="0"/>
        <pt x="360" y="-11" on="0"/>
        <pt x="188" y="-11" on="0"/>
        <pt x="63" y="84" on="0"/>
      </contour>
      <contour>
        <pt x="108" y="514" on="1"/>
        <pt x="108" y="185" on="1"/>
        <pt x="108" y="109" on="0"/>
        <pt x="203" y="32" on="0"/>
        <pt x="345" y="32" on="0"/>
        <pt x="439" y="107" on="0"/>
        <pt x="439" y="186" on="1"/>
        <pt x="439" y="514" on="1"/>
        <pt x="439" y="591" on="0"/>
        <pt x="350" y="673" on="0"/>
        <pt x="196" y="673" on="0"/>
        <pt x="108" y="591" on="0"/>
      </contour>
      <contour>
        <pt x="257" y="730" on="1"/>
        <pt x="309" y="851" on="1"/>
        <pt x="318" y="871" on="0"/>
        <pt x="335" y="871" on="1"/>
        <pt x="359" y="871" on="0"/>
        <pt x="364" y="852" on="1"/>
        <pt x="366" y="847" on="0"/>
        <pt x="366" y="835" on="0"/>
        <pt x="361" y="828" on="1"/>
        <pt x="293" y="730" on="1"/>
      </contour>
    </TTGlyph>
    <TTGlyph name="Ocircumflex" xMin="63" yMin="-11" xMax="483" yMax="913">
      <contour>
        <pt x="63" y="185" on="1"/>
        <pt x="63" y="507" on="1"/>
        <pt x="63" y="610" on="0"/>
        <pt x="176" y="716" on="0"/>
        <pt x="374" y="716" on="0"/>
        <pt x="483" y="604" on="0"/>
        <pt x="483" y="506" on="1"/>
        <pt x="483" y="185" on="1"/>
        <pt x="483" y="84" on="0"/>
        <pt x="360" y="-11" on="0"/>
        <pt x="188" y="-11" on="0"/>
        <pt x="63" y="84" on="0"/>
      </contour>
      <contour>
        <pt x="108" y="514" on="1"/>
        <pt x="108" y="185" on="1"/>
        <pt x="108" y="109" on="0"/>
        <pt x="203" y="32" on="0"/>
        <pt x="345" y="32" on="0"/>
        <pt x="439" y="107" on="0"/>
        <pt x="439" y="186" on="1"/>
        <pt x="439" y="514" on="1"/>
        <pt x="439" y="591" on="0"/>
        <pt x="350" y="673" on="0"/>
        <pt x="196" y="673" on="0"/>
        <pt x="108" y="591" on="0"/>
      </contour>
      <contour>
        <pt x="126" y="772" on="1"/>
        <pt x="274" y="913" on="1"/>
        <pt x="416" y="772" on="1"/>
        <pt x="384" y="740" on="1"/>
        <pt x="273" y="851" on="1"/>
        <pt x="157" y="740" on="1"/>
      </contour>
    </TTGlyph>
    <TTGlyph name="Odieresis" xMin="63" yMin="-11" xMax="483" yMax="716">
      <contour>
        <pt x="63" y="185" on="1"/>
        <pt x="63" y="507" on="1"/>
        <pt x="63" y="610" on="0"/>
        <pt x="176" y="716" on="0"/>
        <pt x="374" y="716" on="0"/>
        <pt x="483" y="604" on="0"/>
        <pt x="483" y="506" on="1"/>
        <pt x="483" y="185" on="1"/>
        <pt x="483" y="84" on="0"/>
        <pt x="360" y="-11" on="0"/>
        <pt x="188" y="-11" on="0"/>
        <pt x="63" y="84" on="0"/>
      </contour>
      <contour>
        <pt x="108" y="514" on="1"/>
        <pt x="108" y="185" on="1"/>
        <pt x="108" y="109" on="0"/>
        <pt x="203" y="32" on="0"/>
        <pt x="345" y="32" on="0"/>
        <pt x="439" y="107" on="0"/>
        <pt x="439" y="186" on="1"/>
        <pt x="439" y="514" on="1"/>
        <pt x="439" y="591" on="0"/>
        <pt x="350" y="673" on="0"/>
        <pt x="196" y="673" on="0"/>
        <pt x="108" y="591" on="0"/>
      </contour>
    </TTGlyph>
    <TTGlyph name="Ograve" xMin="63" yMin="-11" xMax="483" yMax="870">
      <contour>
        <pt x="63" y="185" on="1"/>
        <pt x="63" y="507" on="1"/>
        <pt x="63" y="610" on="0"/>
        <pt x="176" y="716" on="0"/>
        <pt x="374" y="716" on="0"/>
        <pt x="483" y="604" on="0"/>
        <pt x="483" y="506" on="1"/>
        <pt x="483" y="185" on="1"/>
        <pt x="483" y="84" on="0"/>
        <pt x="360" y="-11" on="0"/>
        <pt x="188" y="-11" on="0"/>
        <pt x="63" y="84" on="0"/>
      </contour>
      <contour>
        <pt x="108" y="514" on="1"/>
        <pt x="108" y="185" on="1"/>
        <pt x="108" y="109" on="0"/>
        <pt x="203" y="32" on="0"/>
        <pt x="345" y="32" on="0"/>
        <pt x="439" y="107" on="0"/>
        <pt x="439" y="186" on="1"/>
        <pt x="439" y="514" on="1"/>
        <pt x="439" y="591" on="0"/>
        <pt x="350" y="673" on="0"/>
        <pt x="196" y="673" on="0"/>
        <pt x="108" y="591" on="0"/>
      </contour>
      <contour>
        <pt x="240" y="850" on="1"/>
        <pt x="293" y="729" on="1"/>
        <pt x="256" y="729" on="1"/>
        <pt x="189" y="828" on="1"/>
        <pt x="184" y="835" on="0"/>
        <pt x="184" y="841" on="1"/>
        <pt x="184" y="870" on="0"/>
        <pt x="214" y="870" on="1"/>
        <pt x="232" y="870" on="0"/>
      </contour>
    </TTGlyph>
    <TTGlyph name="Ohungarumlaut" xMin="63" yMin="-11" xMax="483" yMax="872">
      <contour>
        <pt x="63" y="185" on="1"/>
        <pt x="63" y="507" on="1"/>
        <pt x="63" y="610" on="0"/>
        <pt x="176" y="716" on="0"/>
        <pt x="374" y="716" on="0"/>
        <pt x="483" y="604" on="0"/>
        <pt x="483" y="506" on="1"/>
        <pt x="483" y="185" on="1"/>
        <pt x="483" y="84" on="0"/>
        <pt x="360" y="-11" on="0"/>
        <pt x="188" y="-11" on="0"/>
        <pt x="63" y="84" on="0"/>
      </contour>
      <contour>
        <pt x="108" y="514" on="1"/>
        <pt x="108" y="185" on="1"/>
        <pt x="108" y="109" on="0"/>
        <pt x="203" y="32" on="0"/>
        <pt x="345" y="32" on="0"/>
        <pt x="439" y="107" on="0"/>
        <pt x="439" y="186" on="1"/>
        <pt x="439" y="514" on="1"/>
        <pt x="439" y="591" on="0"/>
        <pt x="350" y="673" on="0"/>
        <pt x="196" y="673" on="0"/>
        <pt x="108" y="591" on="0"/>
      </contour>
      <contour>
        <pt x="301" y="731" on="1"/>
        <pt x="353" y="852" on="1"/>
        <pt x="362" y="872" on="0"/>
        <pt x="379" y="872" on="1"/>
        <pt x="403" y="872" on="0"/>
        <pt x="408" y="852" on="1"/>
        <pt x="410" y="848" on="0"/>
        <pt x="410" y="836" on="0"/>
        <pt x="405" y="829" on="1"/>
        <pt x="337" y="731" on="1"/>
      </contour>
      <contour>
        <pt x="189" y="731" on="1"/>
        <pt x="241" y="852" on="1"/>
        <pt x="250" y="872" on="0"/>
        <pt x="267" y="872" on="1"/>
        <pt x="291" y="872" on="0"/>
        <pt x="296" y="852" on="1"/>
        <pt x="298" y="848" on="0"/>
        <pt x="298" y="836" on="0"/>
        <pt x="293" y="829" on="1"/>
        <pt x="225" y="731" on="1"/>
      </contour>
    </TTGlyph>
    <TTGlyph name="Omacron" xMin="63" yMin="-11" xMax="483" yMax="788">
      <contour>
        <pt x="63" y="185" on="1"/>
        <pt x="63" y="507" on="1"/>
        <pt x="63" y="610" on="0"/>
        <pt x="176" y="716" on="0"/>
        <pt x="374" y="716" on="0"/>
        <pt x="483" y="604" on="0"/>
        <pt x="483" y="506" on="1"/>
        <pt x="483" y="185" on="1"/>
        <pt x="483" y="84" on="0"/>
        <pt x="360" y="-11" on="0"/>
        <pt x="188" y="-11" on="0"/>
        <pt x="63" y="84" on="0"/>
      </contour>
      <contour>
        <pt x="108" y="514" on="1"/>
        <pt x="108" y="185" on="1"/>
        <pt x="108" y="109" on="0"/>
        <pt x="203" y="32" on="0"/>
        <pt x="345" y="32" on="0"/>
        <pt x="439" y="107" on="0"/>
        <pt x="439" y="186" on="1"/>
        <pt x="439" y="514" on="1"/>
        <pt x="439" y="591" on="0"/>
        <pt x="350" y="673" on="0"/>
        <pt x="196" y="673" on="0"/>
        <pt x="108" y="591" on="0"/>
      </contour>
      <contour>
        <pt x="160" y="788" on="1"/>
        <pt x="377" y="788" on="1"/>
        <pt x="377" y="742" on="1"/>
        <pt x="160" y="742" on="1"/>
      </contour>
    </TTGlyph>
    <TTGlyph name="Omega" xMin="78" yMin="0" xMax="592" yMax="707">
      <contour>
        <pt x="279" y="707" on="1"/>
        <pt x="391" y="707" on="1"/>
        <pt x="485" y="707" on="0"/>
        <pt x="579" y="595" on="0"/>
        <pt x="579" y="503" on="1"/>
        <pt x="579" y="196" on="1"/>
        <pt x="579" y="137" on="0"/>
        <pt x="534" y="67" on="0"/>
        <pt x="491" y="42" on="1"/>
        <pt x="577" y="42" on="1"/>
        <pt x="592" y="0" on="1"/>
        <pt x="364" y="0" on="1"/>
        <pt x="364" y="42" on="1"/>
        <pt x="425" y="50" on="0"/>
        <pt x="474" y="76" on="1"/>
        <pt x="535" y="109" on="0"/>
        <pt x="535" y="196" on="1"/>
        <pt x="535" y="510" on="1"/>
        <pt x="535" y="586" on="0"/>
        <pt x="456" y="666" on="0"/>
        <pt x="391" y="666" on="1"/>
        <pt x="279" y="666" on="1"/>
        <pt x="215" y="666" on="0"/>
        <pt x="136" y="585" on="0"/>
        <pt x="136" y="510" on="1"/>
        <pt x="136" y="196" on="1"/>
        <pt x="136" y="109" on="0"/>
        <pt x="196" y="76" on="1"/>
        <pt x="242" y="50" on="0"/>
        <pt x="306" y="42" on="1"/>
        <pt x="306" y="0" on="1"/>
        <pt x="78" y="0" on="1"/>
        <pt x="92" y="42" on="1"/>
        <pt x="176" y="42" on="1"/>
        <pt x="91" y="88" on="0"/>
        <pt x="91" y="196" on="1"/>
        <pt x="91" y="503" on="1"/>
        <pt x="91" y="595" on="0"/>
        <pt x="185" y="707" on="0"/>
      </contour>
    </TTGlyph>
    <TTGlyph name="Omegatonos" xMin="78" yMin="0" xMax="686" yMax="709">
      <contour>
        <pt x="373" y="707" on="1"/>
        <pt x="485" y="707" on="1"/>
        <pt x="579" y="707" on="0"/>
        <pt x="673" y="595" on="0"/>
        <pt x="673" y="503" on="1"/>
        <pt x="673" y="196" on="1"/>
        <pt x="673" y="137" on="0"/>
        <pt x="628" y="67" on="0"/>
        <pt x="585" y="42" on="1"/>
        <pt x="671" y="42" on="1"/>
        <pt x="686" y="0" on="1"/>
        <pt x="458" y="0" on="1"/>
        <pt x="458" y="42" on="1"/>
        <pt x="519" y="50" on="0"/>
        <pt x="568" y="76" on="1"/>
        <pt x="629" y="109" on="0"/>
        <pt x="629" y="196" on="1"/>
        <pt x="629" y="510" on="1"/>
        <pt x="629" y="586" on="0"/>
        <pt x="550" y="666" on="0"/>
        <pt x="485" y="666" on="1"/>
        <pt x="373" y="666" on="1"/>
        <pt x="309" y="666" on="0"/>
        <pt x="230" y="585" on="0"/>
        <pt x="230" y="510" on="1"/>
        <pt x="230" y="196" on="1"/>
        <pt x="230" y="109" on="0"/>
        <pt x="290" y="76" on="1"/>
        <pt x="336" y="50" on="0"/>
        <pt x="400" y="42" on="1"/>
        <pt x="400" y="0" on="1"/>
        <pt x="172" y="0" on="1"/>
        <pt x="186" y="42" on="1"/>
        <pt x="270" y="42" on="1"/>
        <pt x="185" y="88" on="0"/>
        <pt x="185" y="196" on="1"/>
        <pt x="185" y="503" on="1"/>
        <pt x="185" y="595" on="0"/>
        <pt x="279" y="707" on="0"/>
      </contour>
      <contour>
        <pt x="78" y="568" on="1"/>
        <pt x="130" y="689" on="1"/>
        <pt x="139" y="709" on="0"/>
        <pt x="156" y="709" on="1"/>
        <pt x="180" y="709" on="0"/>
        <pt x="186" y="690" on="1"/>
        <pt x="187" y="685" on="0"/>
        <pt x="187" y="673" on="0"/>
        <pt x="182" y="666" on="1"/>
        <pt x="114" y="568" on="1"/>
      </contour>
    </TTGlyph>
    <TTGlyph name="Omicron" xMin="62" yMin="-11" xMax="482" yMax="716">
      <contour>
        <pt x="62" y="185" on="1"/>
        <pt x="62" y="507" on="1"/>
        <pt x="62" y="610" on="0"/>
        <pt x="175" y="716" on="0"/>
        <pt x="373" y="716" on="0"/>
        <pt x="482" y="604" on="0"/>
        <pt x="482" y="506" on="1"/>
        <pt x="482" y="185" on="1"/>
        <pt x="482" y="84" on="0"/>
        <pt x="359" y="-11" on="0"/>
        <pt x="187" y="-11" on="0"/>
        <pt x="62" y="84" on="0"/>
      </contour>
      <contour>
        <pt x="107" y="514" on="1"/>
        <pt x="107" y="185" on="1"/>
        <pt x="107" y="109" on="0"/>
        <pt x="202" y="32" on="0"/>
        <pt x="344" y="32" on="0"/>
        <pt x="438" y="107" on="0"/>
        <pt x="438" y="186" on="1"/>
        <pt x="438" y="514" on="1"/>
        <pt x="438" y="591" on="0"/>
        <pt x="349" y="673" on="0"/>
        <pt x="195" y="673" on="0"/>
        <pt x="107" y="591" on="0"/>
      </contour>
    </TTGlyph>
    <TTGlyph name="Omicrontonos" xMin="78" yMin="-11" xMax="615" yMax="716">
      <contour>
        <pt x="195" y="185" on="1"/>
        <pt x="195" y="507" on="1"/>
        <pt x="195" y="610" on="0"/>
        <pt x="308" y="716" on="0"/>
        <pt x="506" y="716" on="0"/>
        <pt x="615" y="604" on="0"/>
        <pt x="615" y="506" on="1"/>
        <pt x="615" y="185" on="1"/>
        <pt x="615" y="84" on="0"/>
        <pt x="492" y="-11" on="0"/>
        <pt x="320" y="-11" on="0"/>
        <pt x="195" y="84" on="0"/>
      </contour>
      <contour>
        <pt x="240" y="514" on="1"/>
        <pt x="240" y="185" on="1"/>
        <pt x="240" y="109" on="0"/>
        <pt x="335" y="32" on="0"/>
        <pt x="477" y="32" on="0"/>
        <pt x="571" y="107" on="0"/>
        <pt x="571" y="186" on="1"/>
        <pt x="571" y="514" on="1"/>
        <pt x="571" y="591" on="0"/>
        <pt x="482" y="673" on="0"/>
        <pt x="328" y="673" on="0"/>
        <pt x="240" y="591" on="0"/>
      </contour>
      <contour>
        <pt x="78" y="568" on="1"/>
        <pt x="130" y="689" on="1"/>
        <pt x="139" y="709" on="0"/>
        <pt x="156" y="709" on="1"/>
        <pt x="180" y="709" on="0"/>
        <pt x="186" y="690" on="1"/>
        <pt x="187" y="685" on="0"/>
        <pt x="187" y="673" on="0"/>
        <pt x="182" y="666" on="1"/>
        <pt x="114" y="568" on="1"/>
      </contour>
    </TTGlyph>
    <TTGlyph name="Oslash" xMin="78" yMin="-114" xMax="498" yMax="817">
      <contour>
        <pt x="424" y="817" on="1"/>
        <pt x="470" y="817" on="1"/>
        <pt x="422" y="678" on="1"/>
        <pt x="498" y="622" on="0"/>
        <pt x="498" y="506" on="1"/>
        <pt x="498" y="185" on="1"/>
        <pt x="498" y="84" on="0"/>
        <pt x="375" y="-11" on="0"/>
        <pt x="289" y="-11" on="1"/>
        <pt x="236" y="-11" on="0"/>
        <pt x="190" y="7" on="1"/>
        <pt x="148" y="-114" on="1"/>
        <pt x="100" y="-114" on="1"/>
        <pt x="150" y="29" on="1"/>
        <pt x="78" y="82" on="0"/>
        <pt x="78" y="185" on="1"/>
        <pt x="78" y="507" on="1"/>
        <pt x="78" y="610" on="0"/>
        <pt x="191" y="716" on="0"/>
        <pt x="290" y="716" on="1"/>
        <pt x="340" y="716" on="0"/>
        <pt x="383" y="700" on="1"/>
      </contour>
      <contour>
        <pt x="454" y="514" on="1"/>
        <pt x="454" y="592" on="0"/>
        <pt x="407" y="634" on="1"/>
        <pt x="204" y="49" on="1"/>
        <pt x="239" y="32" on="0"/>
        <pt x="288" y="32" on="1"/>
        <pt x="360" y="32" on="0"/>
        <pt x="454" y="107" on="0"/>
        <pt x="454" y="186" on="1"/>
      </contour>
      <contour>
        <pt x="123" y="514" on="1"/>
        <pt x="123" y="185" on="1"/>
        <pt x="123" y="116" on="0"/>
        <pt x="166" y="75" on="1"/>
        <pt x="369" y="658" on="1"/>
        <pt x="334" y="673" on="0"/>
        <pt x="288" y="673" on="1"/>
        <pt x="211" y="673" on="0"/>
        <pt x="123" y="591" on="0"/>
      </contour>
    </TTGlyph>
    <TTGlyph name="Otilde" xMin="63" yMin="-11" xMax="483" yMax="826">
      <contour>
        <pt x="63" y="185" on="1"/>
        <pt x="63" y="507" on="1"/>
        <pt x="63" y="610" on="0"/>
        <pt x="176" y="716" on="0"/>
        <pt x="374" y="716" on="0"/>
        <pt x="483" y="604" on="0"/>
        <pt x="483" y="506" on="1"/>
        <pt x="483" y="185" on="1"/>
        <pt x="483" y="84" on="0"/>
        <pt x="360" y="-11" on="0"/>
        <pt x="188" y="-11" on="0"/>
        <pt x="63" y="84" on="0"/>
      </contour>
      <contour>
        <pt x="108" y="514" on="1"/>
        <pt x="108" y="185" on="1"/>
        <pt x="108" y="109" on="0"/>
        <pt x="203" y="32" on="0"/>
        <pt x="345" y="32" on="0"/>
        <pt x="439" y="107" on="0"/>
        <pt x="439" y="186" on="1"/>
        <pt x="439" y="514" on="1"/>
        <pt x="439" y="591" on="0"/>
        <pt x="350" y="673" on="0"/>
        <pt x="196" y="673" on="0"/>
        <pt x="108" y="591" on="0"/>
      </contour>
      <contour>
        <pt x="209" y="780" on="1"/>
        <pt x="167" y="780" on="0"/>
        <pt x="132" y="742" on="1"/>
        <pt x="111" y="774" on="1"/>
        <pt x="158" y="826" on="0"/>
        <pt x="211" y="826" on="1"/>
        <pt x="235" y="826" on="0"/>
        <pt x="302" y="795" on="1"/>
        <pt x="326" y="784" on="0"/>
        <pt x="350" y="784" on="1"/>
        <pt x="390" y="784" on="0"/>
        <pt x="421" y="818" on="1"/>
        <pt x="441" y="785" on="1"/>
        <pt x="398" y="738" on="0"/>
        <pt x="349" y="738" on="1"/>
        <pt x="328" y="738" on="0"/>
        <pt x="282" y="758" on="0"/>
        <pt x="233" y="780" on="0"/>
      </contour>
    </TTGlyph>
    <TTGlyph name="P" xMin="78" yMin="0" xMax="512" yMax="700">
      <contour>
        <pt x="123" y="657" on="1"/>
        <pt x="123" y="300" on="1"/>
        <pt x="325" y="300" on="1"/>
        <pt x="365" y="300" on="0"/>
        <pt x="421" y="329" on="0"/>
        <pt x="449" y="366" on="0"/>
        <pt x="457" y="395" on="1"/>
        <pt x="467" y="431" on="0"/>
        <pt x="467" y="486" on="1"/>
        <pt x="467" y="569" on="0"/>
        <pt x="395" y="657" on="0"/>
        <pt x="327" y="657" on="1"/>
      </contour>
      <contour>
        <pt x="78" y="700" on="1"/>
        <pt x="324" y="700" on="1"/>
        <pt x="419" y="700" on="0"/>
        <pt x="512" y="584" on="0"/>
        <pt x="512" y="486" on="1"/>
        <pt x="512" y="364" on="0"/>
        <pt x="467" y="310" on="1"/>
        <pt x="448" y="288" on="0"/>
        <pt x="375" y="256" on="0"/>
        <pt x="325" y="256" on="1"/>
        <pt x="123" y="256" on="1"/>
        <pt x="123" y="0" on="1"/>
        <pt x="78" y="0" on="1"/>
      </contour>
    </TTGlyph>
    <TTGlyph name="Phi" xMin="78" yMin="-34" xMax="605" yMax="711">
      <contour>
        <pt x="194" y="706" on="1"/>
        <pt x="217" y="670" on="1"/>
        <pt x="123" y="644" on="0"/>
        <pt x="123" y="517" on="1"/>
        <pt x="123" y="215" on="1"/>
        <pt x="123" y="144" on="0"/>
        <pt x="200" y="71" on="0"/>
        <pt x="266" y="71" on="1"/>
        <pt x="316" y="71" on="1"/>
        <pt x="316" y="605" on="1"/>
        <pt x="318" y="655" on="0"/>
        <pt x="374" y="711" on="0"/>
        <pt x="421" y="711" on="1"/>
        <pt x="506" y="711" on="0"/>
        <pt x="605" y="602" on="0"/>
        <pt x="605" y="511" on="1"/>
        <pt x="605" y="225" on="1"/>
        <pt x="605" y="134" on="0"/>
        <pt x="512" y="30" on="0"/>
        <pt x="417" y="30" on="1"/>
        <pt x="362" y="30" on="1"/>
        <pt x="362" y="-34" on="1"/>
        <pt x="316" y="-23" on="1"/>
        <pt x="316" y="30" on="1"/>
        <pt x="266" y="30" on="1"/>
        <pt x="171" y="30" on="0"/>
        <pt x="78" y="134" on="0"/>
        <pt x="78" y="225" on="1"/>
        <pt x="78" y="517" on="1"/>
        <pt x="78" y="669" on="0"/>
      </contour>
      <contour>
        <pt x="429" y="669" on="1"/>
        <pt x="362" y="669" on="0"/>
        <pt x="362" y="596" on="1"/>
        <pt x="362" y="72" on="1"/>
        <pt x="419" y="72" on="1"/>
        <pt x="485" y="72" on="0"/>
        <pt x="560" y="146" on="0"/>
        <pt x="560" y="215" on="1"/>
        <pt x="560" y="521" on="1"/>
        <pt x="560" y="595" on="0"/>
        <pt x="476" y="669" on="0"/>
      </contour>
    </TTGlyph>
    <TTGlyph name="Pi" xMin="80" yMin="0" xMax="510" yMax="700">
      <contour>
        <pt x="80" y="700" on="1"/>
        <pt x="510" y="700" on="1"/>
        <pt x="510" y="0" on="1"/>
        <pt x="465" y="0" on="1"/>
        <pt x="465" y="655" on="1"/>
        <pt x="125" y="655" on="1"/>
        <pt x="125" y="0" on="1"/>
        <pt x="80" y="0" on="1"/>
      </contour>
    </TTGlyph>
    <TTGlyph name="Psi" xMin="44" yMin="0" xMax="571" yMax="709">
      <contour>
        <pt x="44" y="700" on="1"/>
        <pt x="89" y="700" on="1"/>
        <pt x="89" y="399" on="1"/>
        <pt x="89" y="325" on="0"/>
        <pt x="167" y="253" on="0"/>
        <pt x="232" y="253" on="1"/>
        <pt x="282" y="253" on="1"/>
        <pt x="282" y="700" on="1"/>
        <pt x="328" y="700" on="1"/>
        <pt x="328" y="253" on="1"/>
        <pt x="383" y="253" on="1"/>
        <pt x="450" y="253" on="0"/>
        <pt x="526" y="328" on="0"/>
        <pt x="526" y="399" on="1"/>
        <pt x="526" y="564" on="1"/>
        <pt x="526" y="607" on="0"/>
        <pt x="509" y="663" on="0"/>
        <pt x="497" y="677" on="0"/>
        <pt x="478" y="696" on="1"/>
        <pt x="515" y="709" on="1"/>
        <pt x="542" y="692" on="0"/>
        <pt x="568" y="633" on="0"/>
        <pt x="571" y="591" on="0"/>
        <pt x="571" y="549" on="1"/>
        <pt x="571" y="406" on="1"/>
        <pt x="571" y="315" on="0"/>
        <pt x="478" y="212" on="0"/>
        <pt x="383" y="212" on="1"/>
        <pt x="328" y="212" on="1"/>
        <pt x="328" y="0" on="1"/>
        <pt x="282" y="0" on="1"/>
        <pt x="282" y="212" on="1"/>
        <pt x="232" y="212" on="1"/>
        <pt x="137" y="212" on="0"/>
        <pt x="44" y="315" on="0"/>
        <pt x="44" y="406" on="1"/>
      </contour>
    </TTGlyph>
    <TTGlyph name="Q" xMin="63" yMin="-94" xMax="483" yMax="716">
      <contour>
        <pt x="63" y="185" on="1"/>
        <pt x="63" y="507" on="1"/>
        <pt x="63" y="610" on="0"/>
        <pt x="176" y="716" on="0"/>
        <pt x="374" y="716" on="0"/>
        <pt x="483" y="604" on="0"/>
        <pt x="483" y="506" on="1"/>
        <pt x="483" y="185" on="1"/>
        <pt x="483" y="98" on="0"/>
        <pt x="390" y="3" on="0"/>
        <pt x="315" y="-8" on="1"/>
        <pt x="340" y="-51" on="0"/>
        <pt x="428" y="-51" on="1"/>
        <pt x="428" y="-94" on="1"/>
        <pt x="307" y="-94" on="0"/>
        <pt x="269" y="-11" on="1"/>
        <pt x="183" y="-9" on="0"/>
        <pt x="63" y="86" on="0"/>
      </contour>
      <contour>
        <pt x="108" y="516" on="1"/>
        <pt x="108" y="185" on="1"/>
        <pt x="108" y="113" on="0"/>
        <pt x="194" y="36" on="0"/>
        <pt x="256" y="32" on="1"/>
        <pt x="252" y="56" on="0"/>
        <pt x="252" y="95" on="1"/>
        <pt x="252" y="174" on="1"/>
        <pt x="297" y="174" on="1"/>
        <pt x="297" y="96" on="1"/>
        <pt x="297" y="56" on="0"/>
        <pt x="301" y="33" on="1"/>
        <pt x="364" y="39" on="0"/>
        <pt x="438" y="119" on="0"/>
        <pt x="438" y="187" on="1"/>
        <pt x="438" y="516" on="1"/>
        <pt x="438" y="594" on="0"/>
        <pt x="347" y="673" on="0"/>
        <pt x="200" y="673" on="0"/>
        <pt x="108" y="595" on="0"/>
      </contour>
    </TTGlyph>
    <TTGlyph name="R" xMin="78" yMin="0" xMax="513" yMax="700">
      <contour>
        <pt x="78" y="700" on="1"/>
        <pt x="322" y="700" on="1"/>
        <pt x="418" y="700" on="0"/>
        <pt x="512" y="584" on="0"/>
        <pt x="512" y="486" on="1"/>
        <pt x="512" y="317" on="0"/>
        <pt x="410" y="272" on="1"/>
        <pt x="513" y="0" on="1"/>
        <pt x="467" y="0" on="1"/>
        <pt x="367" y="258" on="1"/>
        <pt x="345" y="256" on="0"/>
        <pt x="331" y="256" on="1"/>
        <pt x="123" y="256" on="1"/>
        <pt x="123" y="0" on="1"/>
        <pt x="78" y="0" on="1"/>
      </contour>
      <contour>
        <pt x="123" y="657" on="1"/>
        <pt x="123" y="300" on="1"/>
        <pt x="327" y="300" on="1"/>
        <pt x="467" y="300" on="0"/>
        <pt x="467" y="486" on="1"/>
        <pt x="467" y="570" on="0"/>
        <pt x="392" y="657" on="0"/>
        <pt x="324" y="657" on="1"/>
      </contour>
    </TTGlyph>
    <TTGlyph name="Racute" xMin="78" yMin="0" xMax="513" yMax="871">
      <contour>
        <pt x="78" y="700" on="1"/>
        <pt x="322" y="700" on="1"/>
        <pt x="418" y="700" on="0"/>
        <pt x="512" y="584" on="0"/>
        <pt x="512" y="486" on="1"/>
        <pt x="512" y="317" on="0"/>
        <pt x="410" y="272" on="1"/>
        <pt x="513" y="0" on="1"/>
        <pt x="467" y="0" on="1"/>
        <pt x="367" y="258" on="1"/>
        <pt x="345" y="256" on="0"/>
        <pt x="331" y="256" on="1"/>
        <pt x="123" y="256" on="1"/>
        <pt x="123" y="0" on="1"/>
        <pt x="78" y="0" on="1"/>
      </contour>
      <contour>
        <pt x="123" y="657" on="1"/>
        <pt x="123" y="300" on="1"/>
        <pt x="327" y="300" on="1"/>
        <pt x="467" y="300" on="0"/>
        <pt x="467" y="486" on="1"/>
        <pt x="467" y="570" on="0"/>
        <pt x="392" y="657" on="0"/>
        <pt x="324" y="657" on="1"/>
      </contour>
      <contour>
        <pt x="227" y="730" on="1"/>
        <pt x="279" y="851" on="1"/>
        <pt x="288" y="871" on="0"/>
        <pt x="305" y="871" on="1"/>
        <pt x="329" y="871" on="0"/>
        <pt x="334" y="852" on="1"/>
        <pt x="336" y="847" on="0"/>
        <pt x="336" y="835" on="0"/>
        <pt x="331" y="828" on="1"/>
        <pt x="263" y="730" on="1"/>
      </contour>
    </TTGlyph>
    <TTGlyph name="Rcaron" xMin="78" yMin="0" xMax="513" yMax="907">
      <contour>
        <pt x="78" y="700" on="1"/>
        <pt x="322" y="700" on="1"/>
        <pt x="418" y="700" on="0"/>
        <pt x="512" y="584" on="0"/>
        <pt x="512" y="486" on="1"/>
        <pt x="512" y="317" on="0"/>
        <pt x="410" y="272" on="1"/>
        <pt x="513" y="0" on="1"/>
        <pt x="467" y="0" on="1"/>
        <pt x="367" y="258" on="1"/>
        <pt x="345" y="256" on="0"/>
        <pt x="331" y="256" on="1"/>
        <pt x="123" y="256" on="1"/>
        <pt x="123" y="0" on="1"/>
        <pt x="78" y="0" on="1"/>
      </contour>
      <contour>
        <pt x="123" y="657" on="1"/>
        <pt x="123" y="300" on="1"/>
        <pt x="327" y="300" on="1"/>
        <pt x="467" y="300" on="0"/>
        <pt x="467" y="486" on="1"/>
        <pt x="467" y="570" on="0"/>
        <pt x="392" y="657" on="0"/>
        <pt x="324" y="657" on="1"/>
      </contour>
      <contour>
        <pt x="137" y="875" on="1"/>
        <pt x="168" y="907" on="1"/>
        <pt x="284" y="796" on="1"/>
        <pt x="396" y="907" on="1"/>
        <pt x="427" y="875" on="1"/>
        <pt x="285" y="734" on="1"/>
      </contour>
    </TTGlyph>
    <TTGlyph name="Rcommaaccent" xMin="78" yMin="-184" xMax="513" yMax="700">
      <contour>
        <pt x="78" y="700" on="1"/>
        <pt x="322" y="700" on="1"/>
        <pt x="418" y="700" on="0"/>
        <pt x="512" y="584" on="0"/>
        <pt x="512" y="486" on="1"/>
        <pt x="512" y="317" on="0"/>
        <pt x="410" y="272" on="1"/>
        <pt x="513" y="0" on="1"/>
        <pt x="467" y="0" on="1"/>
        <pt x="367" y="258" on="1"/>
        <pt x="345" y="256" on="0"/>
        <pt x="331" y="256" on="1"/>
        <pt x="123" y="256" on="1"/>
        <pt x="123" y="0" on="1"/>
        <pt x="78" y="0" on="1"/>
      </contour>
      <contour>
        <pt x="123" y="657" on="1"/>
        <pt x="123" y="300" on="1"/>
        <pt x="327" y="300" on="1"/>
        <pt x="467" y="300" on="0"/>
        <pt x="467" y="486" on="1"/>
        <pt x="467" y="570" on="0"/>
        <pt x="392" y="657" on="0"/>
        <pt x="324" y="657" on="1"/>
      </contour>
      <contour>
        <pt x="279" y="-102" on="1"/>
        <pt x="272" y="-100" on="1"/>
        <pt x="255" y="-90" on="0"/>
        <pt x="256" y="-59" on="0"/>
        <pt x="271" y="-45" on="0"/>
        <pt x="283" y="-45" on="0"/>
        <pt x="295" y="-46" on="0"/>
        <pt x="313" y="-65" on="0"/>
        <pt x="313" y="-76" on="1"/>
        <pt x="313" y="-131" on="0"/>
        <pt x="249" y="-184" on="1"/>
        <pt x="217" y="-161" on="1"/>
        <pt x="239" y="-149" on="0"/>
        <pt x="270" y="-119" on="0"/>
      </contour>
    </TTGlyph>
    <TTGlyph name="Rho" xMin="78" yMin="0" xMax="512" yMax="700">
      <contour>
        <pt x="123" y="657" on="1"/>
        <pt x="123" y="300" on="1"/>
        <pt x="325" y="300" on="1"/>
        <pt x="365" y="300" on="0"/>
        <pt x="421" y="329" on="0"/>
        <pt x="449" y="366" on="0"/>
        <pt x="457" y="395" on="1"/>
        <pt x="467" y="431" on="0"/>
        <pt x="467" y="486" on="1"/>
        <pt x="467" y="569" on="0"/>
        <pt x="395" y="657" on="0"/>
        <pt x="327" y="657" on="1"/>
      </contour>
      <contour>
        <pt x="78" y="700" on="1"/>
        <pt x="324" y="700" on="1"/>
        <pt x="419" y="700" on="0"/>
        <pt x="512" y="584" on="0"/>
        <pt x="512" y="486" on="1"/>
        <pt x="512" y="364" on="0"/>
        <pt x="467" y="310" on="1"/>
        <pt x="448" y="288" on="0"/>
        <pt x="375" y="256" on="0"/>
        <pt x="325" y="256" on="1"/>
        <pt x="123" y="256" on="1"/>
        <pt x="123" y="0" on="1"/>
        <pt x="78" y="0" on="1"/>
      </contour>
    </TTGlyph>
    <TTGlyph name="S" xMin="37" yMin="-11" xMax="512" yMax="710">
      <contour>
        <pt x="37" y="178" on="1"/>
        <pt x="83" y="178" on="1"/>
        <pt x="87" y="122" on="0"/>
        <pt x="189" y="32" on="0"/>
        <pt x="355" y="32" on="0"/>
        <pt x="464" y="106" on="0"/>
        <pt x="464" y="187" on="1"/>
        <pt x="464" y="234" on="0"/>
        <pt x="403" y="301" on="0"/>
        <pt x="313" y="335" on="0"/>
        <pt x="206" y="374" on="0"/>
        <pt x="116" y="412" on="0"/>
        <pt x="55" y="486" on="0"/>
        <pt x="55" y="538" on="1"/>
        <pt x="55" y="608" on="0"/>
        <pt x="171" y="710" on="0"/>
        <pt x="280" y="710" on="1"/>
        <pt x="363" y="710" on="0"/>
        <pt x="426" y="680" on="1"/>
        <pt x="412" y="637" on="1"/>
        <pt x="355" y="666" on="0"/>
        <pt x="202" y="666" on="0"/>
        <pt x="102" y="598" on="0"/>
        <pt x="102" y="535" on="1"/>
        <pt x="102" y="495" on="0"/>
        <pt x="163" y="436" on="0"/>
        <pt x="254" y="405" on="0"/>
        <pt x="360" y="366" on="0"/>
        <pt x="451" y="325" on="0"/>
        <pt x="512" y="245" on="0"/>
        <pt x="512" y="190" on="1"/>
        <pt x="512" y="98" on="0"/>
        <pt x="395" y="-11" on="0"/>
        <pt x="164" y="-11" on="0"/>
        <pt x="39" y="104" on="0"/>
      </contour>
    </TTGlyph>
    <TTGlyph name="Sacute" xMin="37" yMin="-11" xMax="512" yMax="876">
      <contour>
        <pt x="37" y="178" on="1"/>
        <pt x="83" y="178" on="1"/>
        <pt x="87" y="122" on="0"/>
        <pt x="189" y="32" on="0"/>
        <pt x="355" y="32" on="0"/>
        <pt x="464" y="106" on="0"/>
        <pt x="464" y="187" on="1"/>
        <pt x="464" y="234" on="0"/>
        <pt x="403" y="301" on="0"/>
        <pt x="313" y="335" on="0"/>
        <pt x="206" y="374" on="0"/>
        <pt x="116" y="412" on="0"/>
        <pt x="55" y="486" on="0"/>
        <pt x="55" y="538" on="1"/>
        <pt x="55" y="608" on="0"/>
        <pt x="171" y="710" on="0"/>
        <pt x="280" y="710" on="1"/>
        <pt x="363" y="710" on="0"/>
        <pt x="426" y="680" on="1"/>
        <pt x="412" y="637" on="1"/>
        <pt x="355" y="666" on="0"/>
        <pt x="202" y="666" on="0"/>
        <pt x="102" y="598" on="0"/>
        <pt x="102" y="535" on="1"/>
        <pt x="102" y="495" on="0"/>
        <pt x="163" y="436" on="0"/>
        <pt x="254" y="405" on="0"/>
        <pt x="360" y="366" on="0"/>
        <pt x="451" y="325" on="0"/>
        <pt x="512" y="245" on="0"/>
        <pt x="512" y="190" on="1"/>
        <pt x="512" y="98" on="0"/>
        <pt x="395" y="-11" on="0"/>
        <pt x="164" y="-11" on="0"/>
        <pt x="39" y="104" on="0"/>
      </contour>
      <contour>
        <pt x="240" y="735" on="1"/>
        <pt x="292" y="856" on="1"/>
        <pt x="301" y="876" on="0"/>
        <pt x="318" y="876" on="1"/>
        <pt x="342" y="876" on="0"/>
        <pt x="348" y="856" on="1"/>
        <pt x="349" y="852" on="0"/>
        <pt x="349" y="840" on="0"/>
        <pt x="344" y="833" on="1"/>
        <pt x="276" y="735" on="1"/>
      </contour>
    </TTGlyph>
    <TTGlyph name="Scaron" xMin="37" yMin="-11" xMax="512" yMax="957">
      <contour>
        <pt x="37" y="178" on="1"/>
        <pt x="83" y="178" on="1"/>
        <pt x="87" y="122" on="0"/>
        <pt x="189" y="32" on="0"/>
        <pt x="355" y="32" on="0"/>
        <pt x="464" y="106" on="0"/>
        <pt x="464" y="187" on="1"/>
        <pt x="464" y="234" on="0"/>
        <pt x="403" y="301" on="0"/>
        <pt x="313" y="335" on="0"/>
        <pt x="206" y="374" on="0"/>
        <pt x="116" y="412" on="0"/>
        <pt x="55" y="486" on="0"/>
        <pt x="55" y="538" on="1"/>
        <pt x="55" y="608" on="0"/>
        <pt x="171" y="710" on="0"/>
        <pt x="280" y="710" on="1"/>
        <pt x="363" y="710" on="0"/>
        <pt x="426" y="680" on="1"/>
        <pt x="412" y="637" on="1"/>
        <pt x="355" y="666" on="0"/>
        <pt x="202" y="666" on="0"/>
        <pt x="102" y="598" on="0"/>
        <pt x="102" y="535" on="1"/>
        <pt x="102" y="495" on="0"/>
        <pt x="163" y="436" on="0"/>
        <pt x="254" y="405" on="0"/>
        <pt x="360" y="366" on="0"/>
        <pt x="451" y="325" on="0"/>
        <pt x="512" y="245" on="0"/>
        <pt x="512" y="190" on="1"/>
        <pt x="512" y="98" on="0"/>
        <pt x="395" y="-11" on="0"/>
        <pt x="164" y="-11" on="0"/>
        <pt x="39" y="104" on="0"/>
      </contour>
      <contour>
        <pt x="154" y="925" on="1"/>
        <pt x="185" y="957" on="1"/>
        <pt x="301" y="846" on="1"/>
        <pt x="413" y="957" on="1"/>
        <pt x="444" y="925" on="1"/>
        <pt x="302" y="784" on="1"/>
      </contour>
    </TTGlyph>
    <TTGlyph name="Scircumflex" xMin="37" yMin="-11" xMax="512" yMax="913">
      <contour>
        <pt x="37" y="178" on="1"/>
        <pt x="83" y="178" on="1"/>
        <pt x="87" y="122" on="0"/>
        <pt x="189" y="32" on="0"/>
        <pt x="355" y="32" on="0"/>
        <pt x="464" y="106" on="0"/>
        <pt x="464" y="187" on="1"/>
        <pt x="464" y="234" on="0"/>
        <pt x="403" y="301" on="0"/>
        <pt x="313" y="335" on="0"/>
        <pt x="206" y="374" on="0"/>
        <pt x="116" y="412" on="0"/>
        <pt x="55" y="486" on="0"/>
        <pt x="55" y="538" on="1"/>
        <pt x="55" y="608" on="0"/>
        <pt x="171" y="710" on="0"/>
        <pt x="280" y="710" on="1"/>
        <pt x="363" y="710" on="0"/>
        <pt x="426" y="680" on="1"/>
        <pt x="412" y="637" on="1"/>
        <pt x="355" y="666" on="0"/>
        <pt x="202" y="666" on="0"/>
        <pt x="102" y="598" on="0"/>
        <pt x="102" y="535" on="1"/>
        <pt x="102" y="495" on="0"/>
        <pt x="163" y="436" on="0"/>
        <pt x="254" y="405" on="0"/>
        <pt x="360" y="366" on="0"/>
        <pt x="451" y="325" on="0"/>
        <pt x="512" y="245" on="0"/>
        <pt x="512" y="190" on="1"/>
        <pt x="512" y="98" on="0"/>
        <pt x="395" y="-11" on="0"/>
        <pt x="164" y="-11" on="0"/>
        <pt x="39" y="104" on="0"/>
      </contour>
      <contour>
        <pt x="139" y="772" on="1"/>
        <pt x="287" y="913" on="1"/>
        <pt x="429" y="772" on="1"/>
        <pt x="397" y="740" on="1"/>
        <pt x="286" y="851" on="1"/>
        <pt x="170" y="740" on="1"/>
      </contour>
    </TTGlyph>
    <TTGlyph name="Scommaaccent" xMin="37" yMin="-184" xMax="512" yMax="710">
      <contour>
        <pt x="37" y="178" on="1"/>
        <pt x="83" y="178" on="1"/>
        <pt x="87" y="122" on="0"/>
        <pt x="189" y="32" on="0"/>
        <pt x="355" y="32" on="0"/>
        <pt x="464" y="106" on="0"/>
        <pt x="464" y="187" on="1"/>
        <pt x="464" y="234" on="0"/>
        <pt x="403" y="301" on="0"/>
        <pt x="313" y="335" on="0"/>
        <pt x="206" y="374" on="0"/>
        <pt x="116" y="412" on="0"/>
        <pt x="55" y="486" on="0"/>
        <pt x="55" y="538" on="1"/>
        <pt x="55" y="608" on="0"/>
        <pt x="171" y="710" on="0"/>
        <pt x="280" y="710" on="1"/>
        <pt x="363" y="710" on="0"/>
        <pt x="426" y="680" on="1"/>
        <pt x="412" y="637" on="1"/>
        <pt x="355" y="666" on="0"/>
        <pt x="202" y="666" on="0"/>
        <pt x="102" y="598" on="0"/>
        <pt x="102" y="535" on="1"/>
        <pt x="102" y="495" on="0"/>
        <pt x="163" y="436" on="0"/>
        <pt x="254" y="405" on="0"/>
        <pt x="360" y="366" on="0"/>
        <pt x="451" y="325" on="0"/>
        <pt x="512" y="245" on="0"/>
        <pt x="512" y="190" on="1"/>
        <pt x="512" y="98" on="0"/>
        <pt x="395" y="-11" on="0"/>
        <pt x="164" y="-11" on="0"/>
        <pt x="39" y="104" on="0"/>
      </contour>
      <contour>
        <pt x="273" y="-102" on="1"/>
        <pt x="266" y="-100" on="1"/>
        <pt x="249" y="-90" on="0"/>
        <pt x="250" y="-59" on="0"/>
        <pt x="265" y="-45" on="0"/>
        <pt x="277" y="-45" on="0"/>
        <pt x="289" y="-46" on="0"/>
        <pt x="307" y="-65" on="0"/>
        <pt x="307" y="-76" on="1"/>
        <pt x="307" y="-131" on="0"/>
        <pt x="243" y="-184" on="1"/>
        <pt x="211" y="-161" on="1"/>
        <pt x="233" y="-149" on="0"/>
        <pt x="264" y="-119" on="0"/>
      </contour>
    </TTGlyph>
    <TTGlyph name="Sigma" xMin="78" yMin="0" xMax="546" yMax="700">
      <contour>
        <pt x="94" y="700" on="1"/>
        <pt x="522" y="700" on="1"/>
        <pt x="507" y="658" on="1"/>
        <pt x="176" y="658" on="1"/>
        <pt x="358" y="386" on="1"/>
        <pt x="153" y="42" on="1"/>
        <pt x="393" y="42" on="1"/>
        <pt x="485" y="42" on="0"/>
        <pt x="510" y="119" on="1"/>
        <pt x="546" y="106" on="1"/>
        <pt x="530" y="50" on="0"/>
        <pt x="460" y="0" on="0"/>
        <pt x="401" y="0" on="1"/>
        <pt x="78" y="0" on="1"/>
        <pt x="304" y="384" on="1"/>
      </contour>
    </TTGlyph>
    <TTGlyph name="T" xMin="0" yMin="0" xMax="402" yMax="700">
      <contour>
        <pt x="0" y="700" on="1"/>
        <pt x="402" y="700" on="1"/>
        <pt x="402" y="659" on="1"/>
        <pt x="221" y="659" on="1"/>
        <pt x="221" y="0" on="1"/>
        <pt x="176" y="0" on="1"/>
        <pt x="176" y="659" on="1"/>
        <pt x="0" y="659" on="1"/>
      </contour>
    </TTGlyph>
    <TTGlyph name="Tau" xMin="78" yMin="0" xMax="480" yMax="700">
      <contour>
        <pt x="78" y="700" on="1"/>
        <pt x="480" y="700" on="1"/>
        <pt x="480" y="659" on="1"/>
        <pt x="299" y="659" on="1"/>
        <pt x="299" y="0" on="1"/>
        <pt x="254" y="0" on="1"/>
        <pt x="254" y="659" on="1"/>
        <pt x="78" y="659" on="1"/>
      </contour>
    </TTGlyph>
    <TTGlyph name="Tbar" xMin="0" yMin="0" xMax="402" yMax="788">
      <contour>
        <pt x="0" y="700" on="1"/>
        <pt x="402" y="700" on="1"/>
        <pt x="402" y="659" on="1"/>
        <pt x="221" y="659" on="1"/>
        <pt x="221" y="0" on="1"/>
        <pt x="176" y="0" on="1"/>
        <pt x="176" y="659" on="1"/>
        <pt x="0" y="659" on="1"/>
      </contour>
      <contour>
        <pt x="90" y="788" on="1"/>
        <pt x="307" y="788" on="1"/>
        <pt x="307" y="742" on="1"/>
        <pt x="90" y="742" on="1"/>
      </contour>
    </TTGlyph>
    <TTGlyph name="Tcaron" xMin="0" yMin="0" xMax="402" yMax="907">
      <contour>
        <pt x="0" y="700" on="1"/>
        <pt x="402" y="700" on="1"/>
        <pt x="402" y="659" on="1"/>
        <pt x="221" y="659" on="1"/>
        <pt x="221" y="0" on="1"/>
        <pt x="176" y="0" on="1"/>
        <pt x="176" y="659" on="1"/>
        <pt x="0" y="659" on="1"/>
      </contour>
      <contour>
        <pt x="54" y="875" on="1"/>
        <pt x="85" y="907" on="1"/>
        <pt x="201" y="796" on="1"/>
        <pt x="313" y="907" on="1"/>
        <pt x="344" y="875" on="1"/>
        <pt x="202" y="734" on="1"/>
      </contour>
    </TTGlyph>
    <TTGlyph name="Tcommaaccent" xMin="0" yMin="-184" xMax="402" yMax="700">
      <contour>
        <pt x="0" y="700" on="1"/>
        <pt x="402" y="700" on="1"/>
        <pt x="402" y="659" on="1"/>
        <pt x="221" y="659" on="1"/>
        <pt x="221" y="0" on="1"/>
        <pt x="176" y="0" on="1"/>
        <pt x="176" y="659" on="1"/>
        <pt x="0" y="659" on="1"/>
      </contour>
      <contour>
        <pt x="199" y="-102" on="1"/>
        <pt x="192" y="-100" on="1"/>
        <pt x="175" y="-90" on="0"/>
        <pt x="176" y="-59" on="0"/>
        <pt x="191" y="-45" on="0"/>
        <pt x="203" y="-45" on="0"/>
        <pt x="215" y="-46" on="0"/>
        <pt x="233" y="-65" on="0"/>
        <pt x="233" y="-76" on="1"/>
        <pt x="233" y="-131" on="0"/>
        <pt x="169" y="-184" on="1"/>
        <pt x="137" y="-161" on="1"/>
        <pt x="159" y="-149" on="0"/>
        <pt x="190" y="-119" on="0"/>
      </contour>
    </TTGlyph>
    <TTGlyph name="Theta" xMin="78" yMin="-11" xMax="498" yMax="716">
      <contour>
        <pt x="78" y="185" on="1"/>
        <pt x="78" y="507" on="1"/>
        <pt x="78" y="610" on="0"/>
        <pt x="191" y="716" on="0"/>
        <pt x="389" y="716" on="0"/>
        <pt x="498" y="604" on="0"/>
        <pt x="498" y="506" on="1"/>
        <pt x="498" y="185" on="1"/>
        <pt x="498" y="84" on="0"/>
        <pt x="375" y="-11" on="0"/>
        <pt x="203" y="-11" on="0"/>
        <pt x="78" y="84" on="0"/>
      </contour>
      <contour>
        <pt x="123" y="514" on="1"/>
        <pt x="123" y="361" on="1"/>
        <pt x="454" y="361" on="1"/>
        <pt x="454" y="514" on="1"/>
        <pt x="454" y="591" on="0"/>
        <pt x="365" y="673" on="0"/>
        <pt x="211" y="673" on="0"/>
        <pt x="123" y="591" on="0"/>
      </contour>
      <contour>
        <pt x="123" y="109" on="0"/>
        <pt x="218" y="32" on="0"/>
        <pt x="360" y="32" on="0"/>
        <pt x="454" y="107" on="0"/>
        <pt x="454" y="186" on="1"/>
        <pt x="454" y="316" on="1"/>
        <pt x="123" y="316" on="1"/>
        <pt x="123" y="185" on="1"/>
      </contour>
    </TTGlyph>
    <TTGlyph name="Thorn" xMin="78" yMin="0" xMax="455" yMax="700">
      <contour>
        <pt x="78" y="700" on="1"/>
        <pt x="123" y="700" on="1"/>
        <pt x="123" y="441" on="1"/>
        <pt x="177" y="509" on="0"/>
        <pt x="358" y="509" on="0"/>
        <pt x="455" y="400" on="0"/>
        <pt x="455" y="221" on="0"/>
        <pt x="351" y="116" on="0"/>
        <pt x="269" y="116" on="1"/>
        <pt x="228" y="116" on="0"/>
        <pt x="144" y="158" on="0"/>
        <pt x="123" y="200" on="1"/>
        <pt x="123" y="0" on="1"/>
        <pt x="78" y="0" on="1"/>
      </contour>
      <contour>
        <pt x="410" y="395" on="0"/>
        <pt x="326" y="469" on="0"/>
        <pt x="211" y="469" on="0"/>
        <pt x="125" y="397" on="0"/>
        <pt x="123" y="325" on="1"/>
        <pt x="123" y="244" on="0"/>
        <pt x="204" y="159" on="0"/>
        <pt x="329" y="159" on="0"/>
        <pt x="410" y="238" on="0"/>
      </contour>
    </TTGlyph>
    <TTGlyph name="U" xMin="74" yMin="-7" xMax="495" yMax="701">
      <contour>
        <pt x="74" y="701" on="1"/>
        <pt x="119" y="701" on="1"/>
        <pt x="119" y="180" on="1"/>
        <pt x="119" y="110" on="0"/>
        <pt x="217" y="34" on="0"/>
        <pt x="353" y="34" on="0"/>
        <pt x="450" y="110" on="0"/>
        <pt x="450" y="180" on="1"/>
        <pt x="450" y="701" on="1"/>
        <pt x="495" y="701" on="1"/>
        <pt x="495" y="186" on="1"/>
        <pt x="495" y="133" on="0"/>
        <pt x="458" y="55" on="0"/>
        <pt x="395" y="13" on="0"/>
        <pt x="325" y="-7" on="0"/>
        <pt x="245" y="-7" on="0"/>
        <pt x="174" y="13" on="0"/>
        <pt x="111" y="55" on="0"/>
        <pt x="74" y="133" on="0"/>
        <pt x="74" y="186" on="1"/>
      </contour>
    </TTGlyph>
    <TTGlyph name="Uacute" xMin="74" yMin="-7" xMax="495" yMax="872">
      <contour>
        <pt x="74" y="701" on="1"/>
        <pt x="119" y="701" on="1"/>
        <pt x="119" y="180" on="1"/>
        <pt x="119" y="110" on="0"/>
        <pt x="217" y="34" on="0"/>
        <pt x="353" y="34" on="0"/>
        <pt x="450" y="110" on="0"/>
        <pt x="450" y="180" on="1"/>
        <pt x="450" y="701" on="1"/>
        <pt x="495" y="701" on="1"/>
        <pt x="495" y="186" on="1"/>
        <pt x="495" y="133" on="0"/>
        <pt x="458" y="55" on="0"/>
        <pt x="395" y="13" on="0"/>
        <pt x="325" y="-7" on="0"/>
        <pt x="245" y="-7" on="0"/>
        <pt x="174" y="13" on="0"/>
        <pt x="111" y="55" on="0"/>
        <pt x="74" y="133" on="0"/>
        <pt x="74" y="186" on="1"/>
      </contour>
      <contour>
        <pt x="262" y="731" on="1"/>
        <pt x="314" y="852" on="1"/>
        <pt x="323" y="872" on="0"/>
        <pt x="340" y="872" on="1"/>
        <pt x="364" y="872" on="0"/>
        <pt x="370" y="852" on="1"/>
        <pt x="371" y="848" on="0"/>
        <pt x="371" y="836" on="0"/>
        <pt x="366" y="829" on="1"/>
        <pt x="298" y="731" on="1"/>
      </contour>
    </TTGlyph>
    <TTGlyph name="Ubreve" xMin="74" yMin="-7" xMax="495" yMax="842">
      <contour>
        <pt x="74" y="701" on="1"/>
        <pt x="119" y="701" on="1"/>
        <pt x="119" y="180" on="1"/>
        <pt x="119" y="110" on="0"/>
        <pt x="217" y="34" on="0"/>
        <pt x="353" y="34" on="0"/>
        <pt x="450" y="110" on="0"/>
        <pt x="450" y="180" on="1"/>
        <pt x="450" y="701" on="1"/>
        <pt x="495" y="701" on="1"/>
        <pt x="495" y="186" on="1"/>
        <pt x="495" y="133" on="0"/>
        <pt x="458" y="55" on="0"/>
        <pt x="395" y="13" on="0"/>
        <pt x="325" y="-7" on="0"/>
        <pt x="245" y="-7" on="0"/>
        <pt x="174" y="13" on="0"/>
        <pt x="111" y="55" on="0"/>
        <pt x="74" y="133" on="0"/>
        <pt x="74" y="186" on="1"/>
      </contour>
      <contour>
        <pt x="171" y="842" on="1"/>
        <pt x="209" y="842" on="1"/>
        <pt x="209" y="837" on="1"/>
        <pt x="209" y="807" on="0"/>
        <pt x="252" y="761" on="0"/>
        <pt x="316" y="761" on="0"/>
        <pt x="359" y="807" on="0"/>
        <pt x="359" y="837" on="1"/>
        <pt x="359" y="842" on="1"/>
        <pt x="397" y="842" on="1"/>
        <pt x="397" y="837" on="1"/>
        <pt x="397" y="790" on="0"/>
        <pt x="330" y="724" on="0"/>
        <pt x="238" y="724" on="0"/>
        <pt x="171" y="790" on="0"/>
        <pt x="171" y="837" on="1"/>
      </contour>
    </TTGlyph>
    <TTGlyph name="Ucircumflex" xMin="74" yMin="-7" xMax="495" yMax="913">
      <contour>
        <pt x="74" y="701" on="1"/>
        <pt x="119" y="701" on="1"/>
        <pt x="119" y="180" on="1"/>
        <pt x="119" y="110" on="0"/>
        <pt x="217" y="34" on="0"/>
        <pt x="353" y="34" on="0"/>
        <pt x="450" y="110" on="0"/>
        <pt x="450" y="180" on="1"/>
        <pt x="450" y="701" on="1"/>
        <pt x="495" y="701" on="1"/>
        <pt x="495" y="186" on="1"/>
        <pt x="495" y="133" on="0"/>
        <pt x="458" y="55" on="0"/>
        <pt x="395" y="13" on="0"/>
        <pt x="325" y="-7" on="0"/>
        <pt x="245" y="-7" on="0"/>
        <pt x="174" y="13" on="0"/>
        <pt x="111" y="55" on="0"/>
        <pt x="74" y="133" on="0"/>
        <pt x="74" y="186" on="1"/>
      </contour>
      <contour>
        <pt x="144" y="772" on="1"/>
        <pt x="292" y="913" on="1"/>
        <pt x="434" y="772" on="1"/>
        <pt x="402" y="740" on="1"/>
        <pt x="291" y="851" on="1"/>
        <pt x="175" y="740" on="1"/>
      </contour>
    </TTGlyph>
    <TTGlyph name="Udieresis" xMin="74" yMin="-7" xMax="495" yMax="701">
      <contour>
        <pt x="74" y="701" on="1"/>
        <pt x="119" y="701" on="1"/>
        <pt x="119" y="180" on="1"/>
        <pt x="119" y="110" on="0"/>
        <pt x="217" y="34" on="0"/>
        <pt x="353" y="34" on="0"/>
        <pt x="450" y="110" on="0"/>
        <pt x="450" y="180" on="1"/>
        <pt x="450" y="701" on="1"/>
        <pt x="495" y="701" on="1"/>
        <pt x="495" y="186" on="1"/>
        <pt x="495" y="133" on="0"/>
        <pt x="458" y="55" on="0"/>
        <pt x="395" y="13" on="0"/>
        <pt x="325" y="-7" on="0"/>
        <pt x="245" y="-7" on="0"/>
        <pt x="174" y="13" on="0"/>
        <pt x="111" y="55" on="0"/>
        <pt x="74" y="133" on="0"/>
        <pt x="74" y="186" on="1"/>
      </contour>
    </TTGlyph>
    <TTGlyph name="Ugrave" xMin="74" yMin="-7" xMax="495" yMax="870">
      <contour>
        <pt x="74" y="701" on="1"/>
        <pt x="119" y="701" on="1"/>
        <pt x="119" y="180" on="1"/>
        <pt x="119" y="110" on="0"/>
        <pt x="217" y="34" on="0"/>
        <pt x="353" y="34" on="0"/>
        <pt x="450" y="110" on="0"/>
        <pt x="450" y="180" on="1"/>
        <pt x="450" y="701" on="1"/>
        <pt x="495" y="701" on="1"/>
        <pt x="495" y="186" on="1"/>
        <pt x="495" y="133" on="0"/>
        <pt x="458" y="55" on="0"/>
        <pt x="395" y="13" on="0"/>
        <pt x="325" y="-7" on="0"/>
        <pt x="245" y="-7" on="0"/>
        <pt x="174" y="13" on="0"/>
        <pt x="111" y="55" on="0"/>
        <pt x="74" y="133" on="0"/>
        <pt x="74" y="186" on="1"/>
      </contour>
      <contour>
        <pt x="249" y="850" on="1"/>
        <pt x="302" y="729" on="1"/>
        <pt x="265" y="729" on="1"/>
        <pt x="198" y="828" on="1"/>
        <pt x="193" y="835" on="0"/>
        <pt x="193" y="841" on="1"/>
        <pt x="193" y="870" on="0"/>
        <pt x="223" y="870" on="1"/>
        <pt x="241" y="870" on="0"/>
      </contour>
    </TTGlyph>
    <TTGlyph name="Uhungarumlaut" xMin="74" yMin="-7" xMax="495" yMax="872">
      <contour>
        <pt x="74" y="701" on="1"/>
        <pt x="119" y="701" on="1"/>
        <pt x="119" y="180" on="1"/>
        <pt x="119" y="110" on="0"/>
        <pt x="217" y="34" on="0"/>
        <pt x="353" y="34" on="0"/>
        <pt x="450" y="110" on="0"/>
        <pt x="450" y="180" on="1"/>
        <pt x="450" y="701" on="1"/>
        <pt x="495" y="701" on="1"/>
        <pt x="495" y="186" on="1"/>
        <pt x="495" y="133" on="0"/>
        <pt x="458" y="55" on="0"/>
        <pt x="395" y="13" on="0"/>
        <pt x="325" y="-7" on="0"/>
        <pt x="245" y="-7" on="0"/>
        <pt x="174" y="13" on="0"/>
        <pt x="111" y="55" on="0"/>
        <pt x="74" y="133" on="0"/>
        <pt x="74" y="186" on="1"/>
      </contour>
      <contour>
        <pt x="313" y="731" on="1"/>
        <pt x="365" y="852" on="1"/>
        <pt x="374" y="872" on="0"/>
        <pt x="391" y="872" on="1"/>
        <pt x="415" y="872" on="0"/>
        <pt x="420" y="852" on="1"/>
        <pt x="422" y="848" on="0"/>
        <pt x="422" y="836" on="0"/>
        <pt x="417" y="829" on="1"/>
        <pt x="349" y="731" on="1"/>
      </contour>
      <contour>
        <pt x="201" y="731" on="1"/>
        <pt x="253" y="852" on="1"/>
        <pt x="262" y="872" on="0"/>
        <pt x="279" y="872" on="1"/>
        <pt x="303" y="872" on="0"/>
        <pt x="308" y="852" on="1"/>
        <pt x="310" y="848" on="0"/>
        <pt x="310" y="836" on="0"/>
        <pt x="305" y="829" on="1"/>
        <pt x="237" y="731" on="1"/>
      </contour>
    </TTGlyph>
    <TTGlyph name="Umacron" xMin="74" yMin="-7" xMax="495" yMax="788">
      <contour>
        <pt x="74" y="701" on="1"/>
        <pt x="119" y="701" on="1"/>
        <pt x="119" y="180" on="1"/>
        <pt x="119" y="110" on="0"/>
        <pt x="217" y="34" on="0"/>
        <pt x="353" y="34" on="0"/>
        <pt x="450" y="110" on="0"/>
        <pt x="450" y="180" on="1"/>
        <pt x="450" y="701" on="1"/>
        <pt x="495" y="701" on="1"/>
        <pt x="495" y="186" on="1"/>
        <pt x="495" y="133" on="0"/>
        <pt x="458" y="55" on="0"/>
        <pt x="395" y="13" on="0"/>
        <pt x="325" y="-7" on="0"/>
        <pt x="245" y="-7" on="0"/>
        <pt x="174" y="13" on="0"/>
        <pt x="111" y="55" on="0"/>
        <pt x="74" y="133" on="0"/>
        <pt x="74" y="186" on="1"/>
      </contour>
      <contour>
        <pt x="174" y="788" on="1"/>
        <pt x="391" y="788" on="1"/>
        <pt x="391" y="742" on="1"/>
        <pt x="174" y="742" on="1"/>
      </contour>
    </TTGlyph>
    <TTGlyph name="Uogonek" xMin="74" yMin="-213" xMax="495" yMax="701">
      <contour>
        <pt x="74" y="701" on="1"/>
        <pt x="119" y="701" on="1"/>
        <pt x="119" y="180" on="1"/>
        <pt x="119" y="110" on="0"/>
        <pt x="217" y="34" on="0"/>
        <pt x="353" y="34" on="0"/>
        <pt x="450" y="110" on="0"/>
        <pt x="450" y="180" on="1"/>
        <pt x="450" y="701" on="1"/>
        <pt x="495" y="701" on="1"/>
        <pt x="495" y="186" on="1"/>
        <pt x="495" y="94" on="0"/>
        <pt x="393" y="2" on="0"/>
        <pt x="316" y="-5" on="1"/>
        <pt x="220" y="-83" on="0"/>
        <pt x="220" y="-129" on="1"/>
        <pt x="220" y="-147" on="0"/>
        <pt x="246" y="-174" on="0"/>
        <pt x="269" y="-174" on="1"/>
        <pt x="311" y="-174" on="0"/>
        <pt x="337" y="-132" on="1"/>
        <pt x="368" y="-163" on="1"/>
        <pt x="336" y="-213" on="0"/>
        <pt x="271" y="-213" on="1"/>
        <pt x="245" y="-213" on="0"/>
        <pt x="223" y="-202" on="1"/>
        <pt x="179" y="-181" on="0"/>
        <pt x="179" y="-130" on="1"/>
        <pt x="179" y="-66" on="0"/>
        <pt x="265" y="-6" on="1"/>
        <pt x="184" y="-1" on="0"/>
        <pt x="74" y="91" on="0"/>
        <pt x="74" y="186" on="1"/>
      </contour>
    </TTGlyph>
    <TTGlyph name="Upsilon" xMin="60" yMin="-7" xMax="504" yMax="700">
      <contour>
        <pt x="60" y="700" on="1"/>
        <pt x="105" y="700" on="1"/>
        <pt x="105" y="447" on="1"/>
        <pt x="105" y="371" on="0"/>
        <pt x="203" y="289" on="0"/>
        <pt x="354" y="289" on="0"/>
        <pt x="448" y="348" on="0"/>
        <pt x="458" y="401" on="1"/>
        <pt x="458" y="700" on="1"/>
        <pt x="504" y="700" on="1"/>
        <pt x="504" y="153" on="1"/>
        <pt x="504" y="11" on="0"/>
        <pt x="399" y="-7" on="1"/>
        <pt x="388" y="24" on="1"/>
        <pt x="438" y="43" on="0"/>
        <pt x="452" y="92" on="1"/>
        <pt x="458" y="117" on="0"/>
        <pt x="458" y="152" on="1"/>
        <pt x="458" y="308" on="1"/>
        <pt x="431" y="276" on="0"/>
        <pt x="333" y="245" on="0"/>
        <pt x="289" y="245" on="1"/>
        <pt x="183" y="245" on="0"/>
        <pt x="60" y="350" on="0"/>
        <pt x="60" y="453" on="1"/>
      </contour>
    </TTGlyph>
    <TTGlyph name="Upsilon_alt" xMin="11" yMin="0" xMax="483" yMax="700">
      <contour>
        <pt x="11" y="700" on="1"/>
        <pt x="62" y="700" on="1"/>
        <pt x="246" y="393" on="1"/>
        <pt x="432" y="700" on="1"/>
        <pt x="483" y="700" on="1"/>
        <pt x="269" y="342" on="1"/>
        <pt x="269" y="0" on="1"/>
        <pt x="224" y="0" on="1"/>
        <pt x="224" y="341" on="1"/>
      </contour>
    </TTGlyph>
    <TTGlyph name="Upsilondieresis" xMin="78" yMin="-7" xMax="522" yMax="794">
      <contour>
        <pt x="78" y="700" on="1"/>
        <pt x="123" y="700" on="1"/>
        <pt x="123" y="447" on="1"/>
        <pt x="123" y="371" on="0"/>
        <pt x="221" y="289" on="0"/>
        <pt x="372" y="289" on="0"/>
        <pt x="466" y="348" on="0"/>
        <pt x="476" y="401" on="1"/>
        <pt x="476" y="700" on="1"/>
        <pt x="522" y="700" on="1"/>
        <pt x="522" y="153" on="1"/>
        <pt x="522" y="11" on="0"/>
        <pt x="417" y="-7" on="1"/>
        <pt x="406" y="24" on="1"/>
        <pt x="456" y="43" on="0"/>
        <pt x="470" y="92" on="1"/>
        <pt x="476" y="117" on="0"/>
        <pt x="476" y="152" on="1"/>
        <pt x="476" y="308" on="1"/>
        <pt x="449" y="276" on="0"/>
        <pt x="351" y="245" on="0"/>
        <pt x="307" y="245" on="1"/>
        <pt x="201" y="245" on="0"/>
        <pt x="78" y="350" on="0"/>
        <pt x="78" y="453" on="1"/>
      </contour>
      <contour>
        <pt x="207" y="794" on="0"/>
        <pt x="229" y="794" on="0"/>
        <pt x="246" y="777" on="0"/>
        <pt x="246" y="755" on="0"/>
        <pt x="229" y="739" on="0"/>
        <pt x="207" y="739" on="0"/>
        <pt x="190" y="755" on="0"/>
        <pt x="190" y="777" on="0"/>
      </contour>
      <contour>
        <pt x="365" y="794" on="0"/>
        <pt x="387" y="794" on="0"/>
        <pt x="404" y="778" on="0"/>
        <pt x="404" y="756" on="0"/>
        <pt x="387" y="739" on="0"/>
        <pt x="365" y="739" on="0"/>
        <pt x="349" y="756" on="0"/>
        <pt x="349" y="778" on="0"/>
      </contour>
    </TTGlyph>
    <TTGlyph name="Upsilondieresis_alt" xMin="0" yMin="0" xMax="472" yMax="794">
      <contour>
        <pt x="0" y="700" on="1"/>
        <pt x="51" y="700" on="1"/>
        <pt x="235" y="393" on="1"/>
        <pt x="421" y="700" on="1"/>
        <pt x="472" y="700" on="1"/>
        <pt x="258" y="342" on="1"/>
        <pt x="258" y="0" on="1"/>
        <pt x="213" y="0" on="1"/>
        <pt x="213" y="341" on="1"/>
      </contour>
      <contour>
        <pt x="140" y="794" on="0"/>
        <pt x="162" y="794" on="0"/>
        <pt x="179" y="777" on="0"/>
        <pt x="179" y="755" on="0"/>
        <pt x="162" y="739" on="0"/>
        <pt x="140" y="739" on="0"/>
        <pt x="123" y="755" on="0"/>
        <pt x="123" y="777" on="0"/>
      </contour>
      <contour>
        <pt x="298" y="794" on="0"/>
        <pt x="320" y="794" on="0"/>
        <pt x="337" y="778" on="0"/>
        <pt x="337" y="756" on="0"/>
        <pt x="320" y="739" on="0"/>
        <pt x="298" y="739" on="0"/>
        <pt x="282" y="756" on="0"/>
        <pt x="282" y="778" on="0"/>
      </contour>
    </TTGlyph>
    <TTGlyph name="Upsilontonos" xMin="78" yMin="-7" xMax="685" yMax="709">
      <contour>
        <pt x="78" y="568" on="1"/>
        <pt x="130" y="689" on="1"/>
        <pt x="139" y="709" on="0"/>
        <pt x="156" y="709" on="1"/>
        <pt x="180" y="709" on="0"/>
        <pt x="186" y="690" on="1"/>
        <pt x="189" y="676" on="0"/>
        <pt x="182" y="666" on="1"/>
        <pt x="114" y="568" on="1"/>
      </contour>
      <contour>
        <pt x="241" y="700" on="1"/>
        <pt x="286" y="700" on="1"/>
        <pt x="286" y="447" on="1"/>
        <pt x="286" y="371" on="0"/>
        <pt x="384" y="289" on="0"/>
        <pt x="535" y="289" on="0"/>
        <pt x="629" y="348" on="0"/>
        <pt x="639" y="401" on="1"/>
        <pt x="639" y="700" on="1"/>
        <pt x="685" y="700" on="1"/>
        <pt x="685" y="153" on="1"/>
        <pt x="685" y="11" on="0"/>
        <pt x="580" y="-7" on="1"/>
        <pt x="569" y="24" on="1"/>
        <pt x="619" y="43" on="0"/>
        <pt x="632" y="92" on="1"/>
        <pt x="639" y="117" on="0"/>
        <pt x="639" y="152" on="1"/>
        <pt x="639" y="308" on="1"/>
        <pt x="612" y="276" on="0"/>
        <pt x="514" y="245" on="0"/>
        <pt x="470" y="245" on="1"/>
        <pt x="364" y="245" on="0"/>
        <pt x="241" y="350" on="0"/>
        <pt x="241" y="453" on="1"/>
      </contour>
    </TTGlyph>
    <TTGlyph name="Upsilontonos_alt" xMin="78" yMin="0" xMax="702" yMax="709">
      <contour>
        <pt x="78" y="568" on="1"/>
        <pt x="130" y="689" on="1"/>
        <pt x="139" y="709" on="0"/>
        <pt x="156" y="709" on="1"/>
        <pt x="180" y="709" on="0"/>
        <pt x="186" y="690" on="1"/>
        <pt x="189" y="676" on="0"/>
        <pt x="182" y="666" on="1"/>
        <pt x="114" y="568" on="1"/>
      </contour>
      <contour>
        <pt x="230" y="700" on="1"/>
        <pt x="281" y="700" on="1"/>
        <pt x="465" y="393" on="1"/>
        <pt x="651" y="700" on="1"/>
        <pt x="702" y="700" on="1"/>
        <pt x="488" y="342" on="1"/>
        <pt x="488" y="0" on="1"/>
        <pt x="443" y="0" on="1"/>
        <pt x="443" y="341" on="1"/>
      </contour>
    </TTGlyph>
    <TTGlyph name="Uring" xMin="74" yMin="-7" xMax="495" yMax="883">
      <contour>
        <pt x="74" y="701" on="1"/>
        <pt x="119" y="701" on="1"/>
        <pt x="119" y="180" on="1"/>
        <pt x="119" y="110" on="0"/>
        <pt x="217" y="34" on="0"/>
        <pt x="353" y="34" on="0"/>
        <pt x="450" y="110" on="0"/>
        <pt x="450" y="180" on="1"/>
        <pt x="450" y="701" on="1"/>
        <pt x="495" y="701" on="1"/>
        <pt x="495" y="186" on="1"/>
        <pt x="495" y="133" on="0"/>
        <pt x="458" y="55" on="0"/>
        <pt x="395" y="13" on="0"/>
        <pt x="325" y="-7" on="0"/>
        <pt x="245" y="-7" on="0"/>
        <pt x="174" y="13" on="0"/>
        <pt x="111" y="55" on="0"/>
        <pt x="74" y="133" on="0"/>
        <pt x="74" y="186" on="1"/>
      </contour>
      <contour>
        <pt x="209" y="802" on="0"/>
        <pt x="209" y="738" on="0"/>
        <pt x="252" y="695" on="0"/>
        <pt x="316" y="695" on="0"/>
        <pt x="359" y="738" on="0"/>
        <pt x="359" y="802" on="0"/>
        <pt x="316" y="845" on="0"/>
        <pt x="252" y="845" on="0"/>
      </contour>
      <contour>
        <pt x="171" y="724" on="0"/>
        <pt x="171" y="816" on="0"/>
        <pt x="238" y="883" on="0"/>
        <pt x="330" y="883" on="0"/>
        <pt x="397" y="816" on="0"/>
        <pt x="397" y="724" on="0"/>
        <pt x="330" y="657" on="0"/>
        <pt x="238" y="657" on="0"/>
      </contour>
    </TTGlyph>
    <TTGlyph name="Utilde" xMin="74" yMin="-7" xMax="495" yMax="827">
      <contour>
        <pt x="74" y="701" on="1"/>
        <pt x="119" y="701" on="1"/>
        <pt x="119" y="180" on="1"/>
        <pt x="119" y="110" on="0"/>
        <pt x="217" y="34" on="0"/>
        <pt x="353" y="34" on="0"/>
        <pt x="450" y="110" on="0"/>
        <pt x="450" y="180" on="1"/>
        <pt x="450" y="701" on="1"/>
        <pt x="495" y="701" on="1"/>
        <pt x="495" y="186" on="1"/>
        <pt x="495" y="133" on="0"/>
        <pt x="458" y="55" on="0"/>
        <pt x="395" y="13" on="0"/>
        <pt x="325" y="-7" on="0"/>
        <pt x="245" y="-7" on="0"/>
        <pt x="174" y="13" on="0"/>
        <pt x="111" y="55" on="0"/>
        <pt x="74" y="133" on="0"/>
        <pt x="74" y="186" on="1"/>
      </contour>
      <contour>
        <pt x="218" y="781" on="1"/>
        <pt x="176" y="781" on="0"/>
        <pt x="141" y="743" on="1"/>
        <pt x="120" y="775" on="1"/>
        <pt x="167" y="827" on="0"/>
        <pt x="220" y="827" on="1"/>
        <pt x="244" y="827" on="0"/>
        <pt x="312" y="796" on="1"/>
        <pt x="335" y="785" on="0"/>
        <pt x="359" y="785" on="1"/>
        <pt x="399" y="785" on="0"/>
        <pt x="430" y="819" on="1"/>
        <pt x="450" y="786" on="1"/>
        <pt x="407" y="739" on="0"/>
        <pt x="358" y="739" on="1"/>
        <pt x="338" y="739" on="0"/>
        <pt x="291" y="759" on="0"/>
        <pt x="242" y="781" on="0"/>
      </contour>
    </TTGlyph>
    <TTGlyph name="V" xMin="78" yMin="0" xMax="556" yMax="700">
      <contour>
        <pt x="78" y="700" on="1"/>
        <pt x="126" y="700" on="1"/>
        <pt x="317" y="56" on="1"/>
        <pt x="508" y="700" on="1"/>
        <pt x="556" y="700" on="1"/>
        <pt x="348" y="0" on="1"/>
        <pt x="287" y="0" on="1"/>
      </contour>
    </TTGlyph>
    <TTGlyph name="W" xMin="78" yMin="0" xMax="774" yMax="700">
      <contour>
        <pt x="78" y="700" on="1"/>
        <pt x="126" y="700" on="1"/>
        <pt x="278" y="59" on="1"/>
        <pt x="397" y="700" on="1"/>
        <pt x="457" y="700" on="1"/>
        <pt x="576" y="59" on="1"/>
        <pt x="725" y="700" on="1"/>
        <pt x="774" y="700" on="1"/>
        <pt x="606" y="0" on="1"/>
        <pt x="540" y="0" on="1"/>
        <pt x="427" y="615" on="1"/>
        <pt x="314" y="0" on="1"/>
        <pt x="248" y="0" on="1"/>
      </contour>
    </TTGlyph>
    <TTGlyph name="X" xMin="45" yMin="0" xMax="552" yMax="700">
      <contour>
        <pt x="64" y="700" on="1"/>
        <pt x="114" y="700" on="1"/>
        <pt x="299" y="399" on="1"/>
        <pt x="484" y="700" on="1"/>
        <pt x="536" y="700" on="1"/>
        <pt x="326" y="356" on="1"/>
        <pt x="552" y="1" on="1"/>
        <pt x="497" y="0" on="1"/>
        <pt x="299" y="310" on="1"/>
        <pt x="101" y="0" on="1"/>
        <pt x="45" y="0" on="1"/>
        <pt x="272" y="356" on="1"/>
      </contour>
    </TTGlyph>
    <TTGlyph name="Xi" xMin="78" yMin="0" xMax="587" yMax="700">
      <contour>
        <pt x="205" y="413" on="1"/>
        <pt x="469" y="413" on="1"/>
        <pt x="469" y="369" on="1"/>
        <pt x="205" y="369" on="1"/>
      </contour>
      <contour>
        <pt x="223" y="700" on="1"/>
        <pt x="548" y="700" on="1"/>
        <pt x="531" y="658" on="1"/>
        <pt x="223" y="658" on="1"/>
        <pt x="139" y="658" on="0"/>
        <pt x="113" y="582" on="1"/>
        <pt x="78" y="595" on="1"/>
        <pt x="94" y="651" on="0"/>
        <pt x="164" y="700" on="0"/>
      </contour>
      <contour>
        <pt x="134" y="42" on="1"/>
        <pt x="442" y="42" on="1"/>
        <pt x="525" y="42" on="0"/>
        <pt x="551" y="119" on="1"/>
        <pt x="587" y="106" on="1"/>
        <pt x="571" y="50" on="0"/>
        <pt x="501" y="0" on="0"/>
        <pt x="442" y="0" on="1"/>
        <pt x="117" y="0" on="1"/>
      </contour>
    </TTGlyph>
    <TTGlyph name="Y" xMin="60" yMin="-7" xMax="504" yMax="700">
      <contour>
        <pt x="60" y="700" on="1"/>
        <pt x="105" y="700" on="1"/>
        <pt x="105" y="447" on="1"/>
        <pt x="105" y="371" on="0"/>
        <pt x="203" y="289" on="0"/>
        <pt x="354" y="289" on="0"/>
        <pt x="448" y="348" on="0"/>
        <pt x="458" y="401" on="1"/>
        <pt x="458" y="700" on="1"/>
        <pt x="504" y="700" on="1"/>
        <pt x="504" y="153" on="1"/>
        <pt x="504" y="11" on="0"/>
        <pt x="399" y="-7" on="1"/>
        <pt x="388" y="24" on="1"/>
        <pt x="438" y="43" on="0"/>
        <pt x="452" y="92" on="1"/>
        <pt x="458" y="117" on="0"/>
        <pt x="458" y="152" on="1"/>
        <pt x="458" y="308" on="1"/>
        <pt x="431" y="276" on="0"/>
        <pt x="333" y="245" on="0"/>
        <pt x="289" y="245" on="1"/>
        <pt x="183" y="245" on="0"/>
        <pt x="60" y="350" on="0"/>
        <pt x="60" y="453" on="1"/>
      </contour>
    </TTGlyph>
    <TTGlyph name="Y_alt" xMin="49" yMin="0" xMax="521" yMax="700">
      <contour>
        <pt x="49" y="700" on="1"/>
        <pt x="100" y="700" on="1"/>
        <pt x="284" y="393" on="1"/>
        <pt x="470" y="700" on="1"/>
        <pt x="521" y="700" on="1"/>
        <pt x="307" y="342" on="1"/>
        <pt x="307" y="0" on="1"/>
        <pt x="262" y="0" on="1"/>
        <pt x="262" y="341" on="1"/>
      </contour>
    </TTGlyph>
    <TTGlyph name="Yacute" xMin="60" yMin="-7" xMax="504" yMax="872">
      <contour>
        <pt x="60" y="700" on="1"/>
        <pt x="105" y="700" on="1"/>
        <pt x="105" y="447" on="1"/>
        <pt x="105" y="371" on="0"/>
        <pt x="203" y="289" on="0"/>
        <pt x="354" y="289" on="0"/>
        <pt x="448" y="348" on="0"/>
        <pt x="458" y="401" on="1"/>
        <pt x="458" y="700" on="1"/>
        <pt x="504" y="700" on="1"/>
        <pt x="504" y="153" on="1"/>
        <pt x="504" y="11" on="0"/>
        <pt x="399" y="-7" on="1"/>
        <pt x="388" y="24" on="1"/>
        <pt x="438" y="43" on="0"/>
        <pt x="452" y="92" on="1"/>
        <pt x="458" y="117" on="0"/>
        <pt x="458" y="152" on="1"/>
        <pt x="458" y="308" on="1"/>
        <pt x="431" y="276" on="0"/>
        <pt x="333" y="245" on="0"/>
        <pt x="289" y="245" on="1"/>
        <pt x="183" y="245" on="0"/>
        <pt x="60" y="350" on="0"/>
        <pt x="60" y="453" on="1"/>
      </contour>
      <contour>
        <pt x="262" y="731" on="1"/>
        <pt x="314" y="852" on="1"/>
        <pt x="323" y="872" on="0"/>
        <pt x="340" y="872" on="1"/>
        <pt x="364" y="872" on="0"/>
        <pt x="370" y="852" on="1"/>
        <pt x="371" y="848" on="0"/>
        <pt x="371" y="836" on="0"/>
        <pt x="366" y="829" on="1"/>
        <pt x="298" y="731" on="1"/>
      </contour>
    </TTGlyph>
    <TTGlyph name="Yacute_alt" xMin="3" yMin="0" xMax="475" yMax="872">
      <contour>
        <pt x="217" y="731" on="1"/>
        <pt x="269" y="852" on="1"/>
        <pt x="278" y="872" on="0"/>
        <pt x="295" y="872" on="1"/>
        <pt x="319" y="872" on="0"/>
        <pt x="324" y="852" on="1"/>
        <pt x="328" y="839" on="0"/>
        <pt x="321" y="829" on="1"/>
        <pt x="253" y="731" on="1"/>
      </contour>
      <contour>
        <pt x="3" y="700" on="1"/>
        <pt x="54" y="700" on="1"/>
        <pt x="238" y="393" on="1"/>
        <pt x="424" y="700" on="1"/>
        <pt x="475" y="700" on="1"/>
        <pt x="261" y="342" on="1"/>
        <pt x="261" y="0" on="1"/>
        <pt x="216" y="0" on="1"/>
        <pt x="216" y="341" on="1"/>
      </contour>
    </TTGlyph>
    <TTGlyph name="Ydieresis" xMin="60" yMin="-7" xMax="504" yMax="700">
      <contour>
        <pt x="60" y="700" on="1"/>
        <pt x="105" y="700" on="1"/>
        <pt x="105" y="447" on="1"/>
        <pt x="105" y="371" on="0"/>
        <pt x="203" y="289" on="0"/>
        <pt x="354" y="289" on="0"/>
        <pt x="448" y="348" on="0"/>
        <pt x="458" y="401" on="1"/>
        <pt x="458" y="700" on="1"/>
        <pt x="504" y="700" on="1"/>
        <pt x="504" y="153" on="1"/>
        <pt x="504" y="11" on="0"/>
        <pt x="399" y="-7" on="1"/>
        <pt x="388" y="24" on="1"/>
        <pt x="438" y="43" on="0"/>
        <pt x="452" y="92" on="1"/>
        <pt x="458" y="117" on="0"/>
        <pt x="458" y="152" on="1"/>
        <pt x="458" y="308" on="1"/>
        <pt x="431" y="276" on="0"/>
        <pt x="333" y="245" on="0"/>
        <pt x="289" y="245" on="1"/>
        <pt x="183" y="245" on="0"/>
        <pt x="60" y="350" on="0"/>
        <pt x="60" y="453" on="1"/>
      </contour>
    </TTGlyph>
    <TTGlyph name="Ydieresis_alt" xMin="12" yMin="0" xMax="484" yMax="700">
      <contour>
        <pt x="12" y="700" on="1"/>
        <pt x="63" y="700" on="1"/>
        <pt x="247" y="393" on="1"/>
        <pt x="433" y="700" on="1"/>
        <pt x="484" y="700" on="1"/>
        <pt x="270" y="342" on="1"/>
        <pt x="270" y="0" on="1"/>
        <pt x="225" y="0" on="1"/>
        <pt x="225" y="341" on="1"/>
      </contour>
    </TTGlyph>
    <TTGlyph name="Z" xMin="31" yMin="0" xMax="518" yMax="700">
      <contour>
        <pt x="44" y="700" on="1"/>
        <pt x="512" y="700" on="1"/>
        <pt x="512" y="659" on="1"/>
        <pt x="88" y="41" on="1"/>
        <pt x="518" y="41" on="1"/>
        <pt x="518" y="0" on="1"/>
        <pt x="31" y="0" on="1"/>
        <pt x="31" y="41" on="1"/>
        <pt x="455" y="659" on="1"/>
        <pt x="44" y="659" on="1"/>
      </contour>
    </TTGlyph>
    <TTGlyph name="Zacute" xMin="31" yMin="0" xMax="518" yMax="926">
      <contour>
        <pt x="44" y="700" on="1"/>
        <pt x="512" y="700" on="1"/>
        <pt x="512" y="659" on="1"/>
        <pt x="88" y="41" on="1"/>
        <pt x="518" y="41" on="1"/>
        <pt x="518" y="0" on="1"/>
        <pt x="31" y="0" on="1"/>
        <pt x="31" y="41" on="1"/>
        <pt x="455" y="659" on="1"/>
        <pt x="44" y="659" on="1"/>
      </contour>
      <contour>
        <pt x="272" y="785" on="1"/>
        <pt x="324" y="906" on="1"/>
        <pt x="333" y="926" on="0"/>
        <pt x="350" y="926" on="1"/>
        <pt x="374" y="926" on="0"/>
        <pt x="380" y="906" on="1"/>
        <pt x="381" y="902" on="0"/>
        <pt x="381" y="890" on="0"/>
        <pt x="376" y="883" on="1"/>
        <pt x="308" y="785" on="1"/>
      </contour>
    </TTGlyph>
    <TTGlyph name="Zcaron" xMin="31" yMin="0" xMax="518" yMax="957">
      <contour>
        <pt x="44" y="700" on="1"/>
        <pt x="512" y="700" on="1"/>
        <pt x="512" y="659" on="1"/>
        <pt x="88" y="41" on="1"/>
        <pt x="518" y="41" on="1"/>
        <pt x="518" y="0" on="1"/>
        <pt x="31" y="0" on="1"/>
        <pt x="31" y="41" on="1"/>
        <pt x="455" y="659" on="1"/>
        <pt x="44" y="659" on="1"/>
      </contour>
      <contour>
        <pt x="154" y="925" on="1"/>
        <pt x="185" y="957" on="1"/>
        <pt x="301" y="846" on="1"/>
        <pt x="413" y="957" on="1"/>
        <pt x="444" y="925" on="1"/>
        <pt x="302" y="784" on="1"/>
      </contour>
    </TTGlyph>
    <TTGlyph name="Zdotaccent" xMin="31" yMin="0" xMax="518" yMax="793">
      <contour>
        <pt x="44" y="700" on="1"/>
        <pt x="512" y="700" on="1"/>
        <pt x="512" y="659" on="1"/>
        <pt x="88" y="41" on="1"/>
        <pt x="518" y="41" on="1"/>
        <pt x="518" y="0" on="1"/>
        <pt x="31" y="0" on="1"/>
        <pt x="31" y="41" on="1"/>
        <pt x="455" y="659" on="1"/>
        <pt x="44" y="659" on="1"/>
      </contour>
      <contour>
        <pt x="259" y="755" on="0"/>
        <pt x="259" y="777" on="0"/>
        <pt x="276" y="793" on="0"/>
        <pt x="298" y="793" on="0"/>
        <pt x="314" y="777" on="0"/>
        <pt x="314" y="755" on="0"/>
        <pt x="298" y="738" on="0"/>
        <pt x="276" y="738" on="0"/>
      </contour>
    </TTGlyph>
    <TTGlyph name="Zeta" xMin="78" yMin="0" xMax="565" yMax="700">
      <contour>
        <pt x="91" y="700" on="1"/>
        <pt x="559" y="700" on="1"/>
        <pt x="559" y="659" on="1"/>
        <pt x="135" y="41" on="1"/>
        <pt x="565" y="41" on="1"/>
        <pt x="565" y="0" on="1"/>
        <pt x="78" y="0" on="1"/>
        <pt x="78" y="41" on="1"/>
        <pt x="502" y="659" on="1"/>
        <pt x="91" y="659" on="1"/>
      </contour>
    </TTGlyph>
    <TTGlyph name="_196" xMin="78" yMin="0" xMax="583" yMax="700">
      <contour>
        <pt x="307" y="700" on="1"/>
        <pt x="350" y="700" on="1"/>
        <pt x="583" y="0" on="1"/>
        <pt x="78" y="0" on="1"/>
      </contour>
      <contour>
        <pt x="328" y="631" on="1"/>
        <pt x="138" y="41" on="1"/>
        <pt x="522" y="41" on="1"/>
      </contour>
    </TTGlyph>
    <TTGlyph name="a" xMin="37" yMin="-10" xMax="422" yMax="509">
      <contour>
        <pt x="256" y="-10" on="1"/>
        <pt x="37" y="-10" on="0"/>
        <pt x="37" y="169" on="1"/>
        <pt x="37" y="252" on="1"/>
        <pt x="37" y="351" on="0"/>
        <pt x="107" y="385" on="1"/>
        <pt x="143" y="402" on="0"/>
        <pt x="180" y="402" on="1"/>
        <pt x="302" y="402" on="0"/>
        <pt x="377" y="346" on="1"/>
        <pt x="377" y="403" on="0"/>
        <pt x="308" y="473" on="0"/>
        <pt x="216" y="473" on="1"/>
        <pt x="214" y="473" on="0"/>
        <pt x="211" y="473" on="1"/>
        <pt x="214" y="509" on="1"/>
        <pt x="295" y="509" on="0"/>
        <pt x="334" y="490" on="1"/>
        <pt x="355" y="479" on="0"/>
        <pt x="387" y="457" on="0"/>
        <pt x="405" y="421" on="0"/>
        <pt x="417" y="394" on="0"/>
        <pt x="419" y="371" on="1"/>
        <pt x="422" y="336" on="0"/>
        <pt x="422" y="298" on="1"/>
        <pt x="422" y="0" on="1"/>
        <pt x="318" y="-10" on="0"/>
      </contour>
      <contour>
        <pt x="81" y="249" on="1"/>
        <pt x="81" y="162" on="1"/>
        <pt x="81" y="114" on="0"/>
        <pt x="128" y="52" on="0"/>
        <pt x="168" y="42" on="1"/>
        <pt x="258" y="18" on="0"/>
        <pt x="377" y="38" on="1"/>
        <pt x="377" y="309" on="1"/>
        <pt x="294" y="355" on="0"/>
        <pt x="196" y="361" on="1"/>
        <pt x="191" y="361" on="0"/>
        <pt x="187" y="361" on="1"/>
        <pt x="144" y="361" on="0"/>
        <pt x="81" y="308" on="0"/>
      </contour>
    </TTGlyph>
    <TTGlyph name="aacute" xMin="78" yMin="-10" xMax="463" yMax="679">
      <contour>
        <pt x="297" y="-10" on="1"/>
        <pt x="78" y="-10" on="0"/>
        <pt x="78" y="169" on="1"/>
        <pt x="78" y="252" on="1"/>
        <pt x="78" y="351" on="0"/>
        <pt x="148" y="385" on="1"/>
        <pt x="184" y="402" on="0"/>
        <pt x="221" y="402" on="1"/>
        <pt x="343" y="402" on="0"/>
        <pt x="418" y="346" on="1"/>
        <pt x="418" y="403" on="0"/>
        <pt x="349" y="473" on="0"/>
        <pt x="257" y="473" on="1"/>
        <pt x="255" y="473" on="0"/>
        <pt x="252" y="473" on="1"/>
        <pt x="255" y="509" on="1"/>
        <pt x="336" y="509" on="0"/>
        <pt x="375" y="490" on="1"/>
        <pt x="396" y="479" on="0"/>
        <pt x="428" y="457" on="0"/>
        <pt x="446" y="421" on="0"/>
        <pt x="458" y="394" on="0"/>
        <pt x="460" y="371" on="1"/>
        <pt x="463" y="336" on="0"/>
        <pt x="463" y="298" on="1"/>
        <pt x="463" y="0" on="1"/>
        <pt x="359" y="-10" on="0"/>
      </contour>
      <contour>
        <pt x="122" y="249" on="1"/>
        <pt x="122" y="162" on="1"/>
        <pt x="122" y="114" on="0"/>
        <pt x="169" y="52" on="0"/>
        <pt x="210" y="42" on="1"/>
        <pt x="257" y="29" on="0"/>
        <pt x="366" y="29" on="0"/>
        <pt x="418" y="38" on="1"/>
        <pt x="418" y="309" on="1"/>
        <pt x="335" y="355" on="0"/>
        <pt x="237" y="361" on="1"/>
        <pt x="232" y="361" on="0"/>
        <pt x="228" y="361" on="1"/>
        <pt x="185" y="361" on="0"/>
        <pt x="122" y="308" on="0"/>
      </contour>
      <contour>
        <pt x="258" y="538" on="1"/>
        <pt x="310" y="659" on="1"/>
        <pt x="319" y="679" on="0"/>
        <pt x="336" y="679" on="1"/>
        <pt x="360" y="679" on="0"/>
        <pt x="366" y="660" on="1"/>
        <pt x="367" y="655" on="0"/>
        <pt x="367" y="643" on="0"/>
        <pt x="362" y="636" on="1"/>
        <pt x="294" y="538" on="1"/>
      </contour>
    </TTGlyph>
    <TTGlyph name="abreve" xMin="78" yMin="-10" xMax="463" yMax="656">
      <contour>
        <pt x="297" y="-10" on="1"/>
        <pt x="78" y="-10" on="0"/>
        <pt x="78" y="169" on="1"/>
        <pt x="78" y="252" on="1"/>
        <pt x="78" y="351" on="0"/>
        <pt x="148" y="385" on="1"/>
        <pt x="184" y="402" on="0"/>
        <pt x="221" y="402" on="1"/>
        <pt x="343" y="402" on="0"/>
        <pt x="418" y="346" on="1"/>
        <pt x="418" y="403" on="0"/>
        <pt x="349" y="473" on="0"/>
        <pt x="257" y="473" on="1"/>
        <pt x="255" y="473" on="0"/>
        <pt x="252" y="473" on="1"/>
        <pt x="255" y="509" on="1"/>
        <pt x="336" y="509" on="0"/>
        <pt x="375" y="490" on="1"/>
        <pt x="396" y="479" on="0"/>
        <pt x="428" y="457" on="0"/>
        <pt x="446" y="421" on="0"/>
        <pt x="458" y="394" on="0"/>
        <pt x="460" y="371" on="1"/>
        <pt x="463" y="336" on="0"/>
        <pt x="463" y="298" on="1"/>
        <pt x="463" y="0" on="1"/>
        <pt x="359" y="-10" on="0"/>
      </contour>
      <contour>
        <pt x="122" y="249" on="1"/>
        <pt x="122" y="162" on="1"/>
        <pt x="122" y="114" on="0"/>
        <pt x="169" y="52" on="0"/>
        <pt x="210" y="42" on="1"/>
        <pt x="257" y="29" on="0"/>
        <pt x="366" y="29" on="0"/>
        <pt x="418" y="38" on="1"/>
        <pt x="418" y="309" on="1"/>
        <pt x="335" y="355" on="0"/>
        <pt x="237" y="361" on="1"/>
        <pt x="232" y="361" on="0"/>
        <pt x="228" y="361" on="1"/>
        <pt x="185" y="361" on="0"/>
        <pt x="122" y="308" on="0"/>
      </contour>
      <contour>
        <pt x="196" y="656" on="1"/>
        <pt x="234" y="656" on="1"/>
        <pt x="234" y="651" on="1"/>
        <pt x="234" y="621" on="0"/>
        <pt x="276" y="575" on="0"/>
        <pt x="341" y="575" on="0"/>
        <pt x="384" y="621" on="0"/>
        <pt x="384" y="651" on="1"/>
        <pt x="384" y="656" on="1"/>
        <pt x="422" y="656" on="1"/>
        <pt x="422" y="651" on="1"/>
        <pt x="422" y="604" on="0"/>
        <pt x="356" y="538" on="0"/>
        <pt x="262" y="538" on="0"/>
        <pt x="196" y="604" on="0"/>
        <pt x="196" y="651" on="1"/>
      </contour>
    </TTGlyph>
    <TTGlyph name="acircumflex" xMin="78" yMin="-10" xMax="463" yMax="720">
      <contour>
        <pt x="297" y="-10" on="1"/>
        <pt x="78" y="-10" on="0"/>
        <pt x="78" y="169" on="1"/>
        <pt x="78" y="252" on="1"/>
        <pt x="78" y="351" on="0"/>
        <pt x="148" y="385" on="1"/>
        <pt x="184" y="402" on="0"/>
        <pt x="221" y="402" on="1"/>
        <pt x="343" y="402" on="0"/>
        <pt x="418" y="346" on="1"/>
        <pt x="418" y="403" on="0"/>
        <pt x="349" y="473" on="0"/>
        <pt x="257" y="473" on="1"/>
        <pt x="255" y="473" on="0"/>
        <pt x="252" y="473" on="1"/>
        <pt x="255" y="509" on="1"/>
        <pt x="336" y="509" on="0"/>
        <pt x="375" y="490" on="1"/>
        <pt x="396" y="479" on="0"/>
        <pt x="428" y="457" on="0"/>
        <pt x="446" y="421" on="0"/>
        <pt x="458" y="394" on="0"/>
        <pt x="460" y="371" on="1"/>
        <pt x="463" y="336" on="0"/>
        <pt x="463" y="298" on="1"/>
        <pt x="463" y="0" on="1"/>
        <pt x="359" y="-10" on="0"/>
      </contour>
      <contour>
        <pt x="122" y="249" on="1"/>
        <pt x="122" y="162" on="1"/>
        <pt x="122" y="114" on="0"/>
        <pt x="169" y="52" on="0"/>
        <pt x="210" y="42" on="1"/>
        <pt x="257" y="29" on="0"/>
        <pt x="366" y="29" on="0"/>
        <pt x="418" y="38" on="1"/>
        <pt x="418" y="309" on="1"/>
        <pt x="335" y="355" on="0"/>
        <pt x="237" y="361" on="1"/>
        <pt x="232" y="361" on="0"/>
        <pt x="228" y="361" on="1"/>
        <pt x="185" y="361" on="0"/>
        <pt x="122" y="308" on="0"/>
      </contour>
      <contour>
        <pt x="129" y="579" on="1"/>
        <pt x="277" y="720" on="1"/>
        <pt x="419" y="579" on="1"/>
        <pt x="387" y="547" on="1"/>
        <pt x="276" y="658" on="1"/>
        <pt x="160" y="547" on="1"/>
      </contour>
    </TTGlyph>
    <TTGlyph name="acute" xMin="46" yMin="588" xMax="155" yMax="729">
      <contour>
        <pt x="46" y="588" on="1"/>
        <pt x="98" y="709" on="1"/>
        <pt x="107" y="729" on="0"/>
        <pt x="124" y="729" on="1"/>
        <pt x="148" y="729" on="0"/>
        <pt x="154" y="710" on="1"/>
        <pt x="155" y="705" on="0"/>
        <pt x="155" y="693" on="0"/>
        <pt x="150" y="686" on="1"/>
        <pt x="82" y="588" on="1"/>
      </contour>
    </TTGlyph>
    <TTGlyph name="adieresis" xMin="78" yMin="-10" xMax="463" yMax="509">
      <contour>
        <pt x="297" y="-10" on="1"/>
        <pt x="78" y="-10" on="0"/>
        <pt x="78" y="169" on="1"/>
        <pt x="78" y="252" on="1"/>
        <pt x="78" y="351" on="0"/>
        <pt x="148" y="385" on="1"/>
        <pt x="184" y="402" on="0"/>
        <pt x="221" y="402" on="1"/>
        <pt x="343" y="402" on="0"/>
        <pt x="418" y="346" on="1"/>
        <pt x="418" y="403" on="0"/>
        <pt x="349" y="473" on="0"/>
        <pt x="257" y="473" on="1"/>
        <pt x="255" y="473" on="0"/>
        <pt x="252" y="473" on="1"/>
        <pt x="255" y="509" on="1"/>
        <pt x="336" y="509" on="0"/>
        <pt x="375" y="490" on="1"/>
        <pt x="396" y="479" on="0"/>
        <pt x="428" y="457" on="0"/>
        <pt x="446" y="421" on="0"/>
        <pt x="458" y="394" on="0"/>
        <pt x="460" y="371" on="1"/>
        <pt x="463" y="336" on="0"/>
        <pt x="463" y="298" on="1"/>
        <pt x="463" y="0" on="1"/>
        <pt x="359" y="-10" on="0"/>
      </contour>
      <contour>
        <pt x="122" y="249" on="1"/>
        <pt x="122" y="162" on="1"/>
        <pt x="122" y="114" on="0"/>
        <pt x="169" y="52" on="0"/>
        <pt x="210" y="42" on="1"/>
        <pt x="257" y="29" on="0"/>
        <pt x="366" y="29" on="0"/>
        <pt x="418" y="38" on="1"/>
        <pt x="418" y="309" on="1"/>
        <pt x="335" y="355" on="0"/>
        <pt x="237" y="361" on="1"/>
        <pt x="232" y="361" on="0"/>
        <pt x="228" y="361" on="1"/>
        <pt x="185" y="361" on="0"/>
        <pt x="122" y="308" on="0"/>
      </contour>
    </TTGlyph>
    <TTGlyph name="ae" xMin="78" yMin="-12" xMax="779" yMax="510">
      <contour>
        <pt x="297" y="-10" on="1"/>
        <pt x="78" y="-10" on="0"/>
        <pt x="78" y="169" on="1"/>
        <pt x="78" y="252" on="1"/>
        <pt x="78" y="351" on="0"/>
        <pt x="148" y="385" on="1"/>
        <pt x="184" y="402" on="0"/>
        <pt x="221" y="402" on="1"/>
        <pt x="343" y="402" on="0"/>
        <pt x="418" y="346" on="1"/>
        <pt x="418" y="403" on="0"/>
        <pt x="349" y="473" on="0"/>
        <pt x="257" y="473" on="1"/>
        <pt x="255" y="473" on="0"/>
        <pt x="252" y="473" on="1"/>
        <pt x="255" y="509" on="1"/>
        <pt x="400" y="509" on="0"/>
        <pt x="442" y="431" on="1"/>
        <pt x="488" y="510" on="0"/>
        <pt x="603" y="510" on="1"/>
        <pt x="686" y="510" on="0"/>
        <pt x="779" y="421" on="0"/>
        <pt x="779" y="342" on="1"/>
        <pt x="779" y="222" on="1"/>
        <pt x="464" y="205" on="1"/>
        <pt x="464" y="133" on="1"/>
        <pt x="464" y="76" on="0"/>
        <pt x="538" y="27" on="0"/>
        <pt x="585" y="27" on="1"/>
        <pt x="657" y="27" on="0"/>
        <pt x="736" y="70" on="1"/>
        <pt x="754" y="35" on="1"/>
        <pt x="677" y="-12" on="0"/>
        <pt x="504" y="-12" on="0"/>
        <pt x="463" y="24" on="1"/>
        <pt x="463" y="0" on="1"/>
        <pt x="359" y="-10" on="0"/>
      </contour>
      <contour>
        <pt x="122" y="249" on="1"/>
        <pt x="122" y="162" on="1"/>
        <pt x="122" y="114" on="0"/>
        <pt x="169" y="52" on="0"/>
        <pt x="210" y="42" on="1"/>
        <pt x="257" y="29" on="0"/>
        <pt x="366" y="29" on="0"/>
        <pt x="418" y="38" on="1"/>
        <pt x="418" y="309" on="1"/>
        <pt x="335" y="355" on="0"/>
        <pt x="237" y="361" on="1"/>
        <pt x="232" y="361" on="0"/>
        <pt x="228" y="361" on="1"/>
        <pt x="185" y="361" on="0"/>
        <pt x="122" y="308" on="0"/>
      </contour>
      <contour>
        <pt x="464" y="339" on="1"/>
        <pt x="464" y="249" on="1"/>
        <pt x="734" y="263" on="1"/>
        <pt x="734" y="347" on="1"/>
        <pt x="734" y="414" on="0"/>
        <pt x="652" y="471" on="0"/>
        <pt x="543" y="471" on="0"/>
        <pt x="464" y="407" on="0"/>
      </contour>
    </TTGlyph>
    <TTGlyph name="agrave" xMin="78" yMin="-10" xMax="463" yMax="678">
      <contour>
        <pt x="297" y="-10" on="1"/>
        <pt x="78" y="-10" on="0"/>
        <pt x="78" y="169" on="1"/>
        <pt x="78" y="252" on="1"/>
        <pt x="78" y="351" on="0"/>
        <pt x="148" y="385" on="1"/>
        <pt x="184" y="402" on="0"/>
        <pt x="221" y="402" on="1"/>
        <pt x="343" y="402" on="0"/>
        <pt x="418" y="346" on="1"/>
        <pt x="418" y="403" on="0"/>
        <pt x="349" y="473" on="0"/>
        <pt x="257" y="473" on="1"/>
        <pt x="255" y="473" on="0"/>
        <pt x="252" y="473" on="1"/>
        <pt x="255" y="509" on="1"/>
        <pt x="336" y="509" on="0"/>
        <pt x="375" y="490" on="1"/>
        <pt x="396" y="479" on="0"/>
        <pt x="428" y="457" on="0"/>
        <pt x="446" y="421" on="0"/>
        <pt x="458" y="394" on="0"/>
        <pt x="460" y="371" on="1"/>
        <pt x="463" y="336" on="0"/>
        <pt x="463" y="298" on="1"/>
        <pt x="463" y="0" on="1"/>
        <pt x="359" y="-10" on="0"/>
      </contour>
      <contour>
        <pt x="122" y="249" on="1"/>
        <pt x="122" y="162" on="1"/>
        <pt x="122" y="114" on="0"/>
        <pt x="169" y="52" on="0"/>
        <pt x="210" y="42" on="1"/>
        <pt x="257" y="29" on="0"/>
        <pt x="366" y="29" on="0"/>
        <pt x="418" y="38" on="1"/>
        <pt x="418" y="309" on="1"/>
        <pt x="335" y="355" on="0"/>
        <pt x="237" y="361" on="1"/>
        <pt x="232" y="361" on="0"/>
        <pt x="228" y="361" on="1"/>
        <pt x="185" y="361" on="0"/>
        <pt x="122" y="308" on="0"/>
      </contour>
      <contour>
        <pt x="240" y="658" on="1"/>
        <pt x="293" y="537" on="1"/>
        <pt x="256" y="537" on="1"/>
        <pt x="189" y="636" on="1"/>
        <pt x="184" y="643" on="0"/>
        <pt x="184" y="649" on="1"/>
        <pt x="184" y="678" on="0"/>
        <pt x="214" y="678" on="1"/>
        <pt x="232" y="678" on="0"/>
      </contour>
    </TTGlyph>
    <TTGlyph name="alpha" xMin="78" yMin="-4" xMax="470" yMax="507">
      <contour>
        <pt x="223" y="507" on="1"/>
        <pt x="312" y="507" on="0"/>
        <pt x="398" y="463" on="1"/>
        <pt x="414" y="503" on="1"/>
        <pt x="450" y="486" on="1"/>
        <pt x="443" y="431" on="0"/>
        <pt x="443" y="399" on="1"/>
        <pt x="443" y="61" on="1"/>
        <pt x="449" y="40" on="0"/>
        <pt x="470" y="28" on="1"/>
        <pt x="449" y="2" on="1"/>
        <pt x="446" y="2" on="0"/>
        <pt x="420" y="5" on="0"/>
        <pt x="332" y="-4" on="0"/>
        <pt x="233" y="-4" on="0"/>
        <pt x="206" y="2" on="1"/>
        <pt x="78" y="26" on="0"/>
        <pt x="78" y="169" on="1"/>
        <pt x="78" y="354" on="1"/>
        <pt x="78" y="424" on="0"/>
        <pt x="143" y="501" on="0"/>
        <pt x="194" y="506" on="1"/>
        <pt x="208" y="507" on="0"/>
      </contour>
      <contour>
        <pt x="398" y="421" on="1"/>
        <pt x="299" y="466" on="0"/>
        <pt x="217" y="466" on="1"/>
        <pt x="174" y="466" on="0"/>
        <pt x="122" y="408" on="0"/>
        <pt x="122" y="351" on="1"/>
        <pt x="122" y="162" on="1"/>
        <pt x="122" y="40" on="0"/>
        <pt x="252" y="36" on="1"/>
        <pt x="262" y="36" on="0"/>
        <pt x="327" y="36" on="0"/>
        <pt x="398" y="44" on="1"/>
      </contour>
    </TTGlyph>
    <TTGlyph name="alphatonos" xMin="78" yMin="-4" xMax="470" yMax="679">
      <contour>
        <pt x="223" y="507" on="1"/>
        <pt x="312" y="507" on="0"/>
        <pt x="398" y="463" on="1"/>
        <pt x="414" y="503" on="1"/>
        <pt x="450" y="486" on="1"/>
        <pt x="443" y="431" on="0"/>
        <pt x="443" y="399" on="1"/>
        <pt x="443" y="61" on="1"/>
        <pt x="449" y="40" on="0"/>
        <pt x="470" y="28" on="1"/>
        <pt x="449" y="2" on="1"/>
        <pt x="446" y="2" on="0"/>
        <pt x="420" y="5" on="0"/>
        <pt x="332" y="-4" on="0"/>
        <pt x="233" y="-4" on="0"/>
        <pt x="206" y="2" on="1"/>
        <pt x="78" y="26" on="0"/>
        <pt x="78" y="169" on="1"/>
        <pt x="78" y="354" on="1"/>
        <pt x="78" y="424" on="0"/>
        <pt x="143" y="501" on="0"/>
        <pt x="194" y="506" on="1"/>
        <pt x="208" y="507" on="0"/>
      </contour>
      <contour>
        <pt x="398" y="421" on="1"/>
        <pt x="299" y="466" on="0"/>
        <pt x="217" y="466" on="1"/>
        <pt x="174" y="466" on="0"/>
        <pt x="122" y="408" on="0"/>
        <pt x="122" y="351" on="1"/>
        <pt x="122" y="162" on="1"/>
        <pt x="122" y="40" on="0"/>
        <pt x="252" y="36" on="1"/>
        <pt x="262" y="36" on="0"/>
        <pt x="327" y="36" on="0"/>
        <pt x="398" y="44" on="1"/>
      </contour>
      <contour>
        <pt x="237" y="538" on="1"/>
        <pt x="289" y="659" on="1"/>
        <pt x="298" y="679" on="0"/>
        <pt x="315" y="679" on="1"/>
        <pt x="339" y="679" on="0"/>
        <pt x="344" y="660" on="1"/>
        <pt x="346" y="655" on="0"/>
        <pt x="346" y="643" on="0"/>
        <pt x="341" y="636" on="1"/>
        <pt x="273" y="538" on="1"/>
      </contour>
    </TTGlyph>
    <TTGlyph name="amacron" xMin="78" yMin="-10" xMax="463" yMax="596">
      <contour>
        <pt x="297" y="-10" on="1"/>
        <pt x="78" y="-10" on="0"/>
        <pt x="78" y="169" on="1"/>
        <pt x="78" y="252" on="1"/>
        <pt x="78" y="351" on="0"/>
        <pt x="148" y="385" on="1"/>
        <pt x="184" y="402" on="0"/>
        <pt x="221" y="402" on="1"/>
        <pt x="343" y="402" on="0"/>
        <pt x="418" y="346" on="1"/>
        <pt x="418" y="403" on="0"/>
        <pt x="349" y="473" on="0"/>
        <pt x="257" y="473" on="1"/>
        <pt x="255" y="473" on="0"/>
        <pt x="252" y="473" on="1"/>
        <pt x="255" y="509" on="1"/>
        <pt x="336" y="509" on="0"/>
        <pt x="375" y="490" on="1"/>
        <pt x="396" y="479" on="0"/>
        <pt x="428" y="457" on="0"/>
        <pt x="446" y="421" on="0"/>
        <pt x="458" y="394" on="0"/>
        <pt x="460" y="371" on="1"/>
        <pt x="463" y="336" on="0"/>
        <pt x="463" y="298" on="1"/>
        <pt x="463" y="0" on="1"/>
        <pt x="359" y="-10" on="0"/>
      </contour>
      <contour>
        <pt x="122" y="249" on="1"/>
        <pt x="122" y="162" on="1"/>
        <pt x="122" y="114" on="0"/>
        <pt x="169" y="52" on="0"/>
        <pt x="210" y="42" on="1"/>
        <pt x="257" y="29" on="0"/>
        <pt x="366" y="29" on="0"/>
        <pt x="418" y="38" on="1"/>
        <pt x="418" y="309" on="1"/>
        <pt x="335" y="355" on="0"/>
        <pt x="237" y="361" on="1"/>
        <pt x="232" y="361" on="0"/>
        <pt x="228" y="361" on="1"/>
        <pt x="185" y="361" on="0"/>
        <pt x="122" y="308" on="0"/>
      </contour>
      <contour>
        <pt x="169" y="596" on="1"/>
        <pt x="386" y="596" on="1"/>
        <pt x="386" y="550" on="1"/>
        <pt x="169" y="550" on="1"/>
      </contour>
    </TTGlyph>
    <TTGlyph name="ampersand" xMin="35" yMin="-11" xMax="515" yMax="711">
      <contour>
        <pt x="381" y="699" on="1"/>
        <pt x="356" y="662" on="1"/>
        <pt x="331" y="670" on="0"/>
        <pt x="271" y="670" on="0"/>
        <pt x="241" y="647" on="1"/>
        <pt x="200" y="616" on="0"/>
        <pt x="200" y="569" on="1"/>
        <pt x="200" y="561" on="0"/>
        <pt x="201" y="553" on="1"/>
        <pt x="209" y="498" on="0"/>
        <pt x="250" y="476" on="1"/>
        <pt x="279" y="461" on="0"/>
        <pt x="324" y="461" on="0"/>
        <pt x="339" y="464" on="1"/>
        <pt x="386" y="474" on="1"/>
        <pt x="386" y="609" on="1"/>
        <pt x="432" y="609" on="1"/>
        <pt x="432" y="484" on="1"/>
        <pt x="505" y="500" on="1"/>
        <pt x="515" y="457" on="1"/>
        <pt x="432" y="439" on="1"/>
        <pt x="432" y="135" on="1"/>
        <pt x="432" y="45" on="0"/>
        <pt x="495" y="24" on="1"/>
        <pt x="482" y="-11" on="1"/>
        <pt x="443" y="1" on="0"/>
        <pt x="398" y="58" on="0"/>
        <pt x="393" y="95" on="1"/>
        <pt x="329" y="-11" on="0"/>
        <pt x="213" y="-11" on="1"/>
        <pt x="123" y="-11" on="0"/>
        <pt x="76" y="52" on="1"/>
        <pt x="35" y="107" on="0"/>
        <pt x="35" y="179" on="1"/>
        <pt x="35" y="242" on="0"/>
        <pt x="82" y="333" on="0"/>
        <pt x="151" y="388" on="0"/>
        <pt x="207" y="419" on="0"/>
        <pt x="247" y="436" on="1"/>
        <pt x="213" y="441" on="0"/>
        <pt x="186" y="472" on="1"/>
        <pt x="155" y="509" on="0"/>
        <pt x="155" y="567" on="1"/>
        <pt x="155" y="642" on="0"/>
        <pt x="219" y="684" on="1"/>
        <pt x="262" y="711" on="0"/>
        <pt x="345" y="711" on="0"/>
      </contour>
      <contour>
        <pt x="386" y="214" on="1"/>
        <pt x="386" y="429" on="1"/>
        <pt x="234" y="396" on="0"/>
        <pt x="159" y="339" on="1"/>
        <pt x="129" y="316" on="0"/>
        <pt x="106" y="279" on="1"/>
        <pt x="79" y="236" on="0"/>
        <pt x="79" y="120" on="0"/>
        <pt x="148" y="32" on="0"/>
        <pt x="292" y="32" on="0"/>
        <pt x="386" y="144" on="0"/>
      </contour>
    </TTGlyph>
    <TTGlyph name="aogonek" xMin="37" yMin="-213" xMax="466" yMax="509">
      <contour>
        <pt x="364" y="-5" on="1"/>
        <pt x="304" y="-11" on="0"/>
        <pt x="229" y="-11" on="0"/>
        <pt x="137" y="4" on="0"/>
        <pt x="78" y="40" on="0"/>
        <pt x="37" y="115" on="0"/>
        <pt x="37" y="169" on="1"/>
        <pt x="37" y="252" on="1"/>
        <pt x="37" y="351" on="0"/>
        <pt x="107" y="385" on="1"/>
        <pt x="143" y="402" on="0"/>
        <pt x="180" y="402" on="1"/>
        <pt x="302" y="402" on="0"/>
        <pt x="377" y="346" on="1"/>
        <pt x="377" y="403" on="0"/>
        <pt x="308" y="473" on="0"/>
        <pt x="216" y="473" on="1"/>
        <pt x="214" y="473" on="0"/>
        <pt x="211" y="473" on="1"/>
        <pt x="214" y="509" on="1"/>
        <pt x="295" y="509" on="0"/>
        <pt x="334" y="490" on="1"/>
        <pt x="355" y="479" on="0"/>
        <pt x="387" y="457" on="0"/>
        <pt x="405" y="421" on="0"/>
        <pt x="417" y="394" on="0"/>
        <pt x="419" y="371" on="1"/>
        <pt x="422" y="336" on="0"/>
        <pt x="422" y="298" on="1"/>
        <pt x="422" y="0" on="1"/>
        <pt x="421" y="0" on="1"/>
        <pt x="318" y="-82" on="0"/>
        <pt x="318" y="-129" on="1"/>
        <pt x="318" y="-147" on="0"/>
        <pt x="344" y="-174" on="0"/>
        <pt x="367" y="-174" on="1"/>
        <pt x="409" y="-174" on="0"/>
        <pt x="435" y="-132" on="1"/>
        <pt x="466" y="-163" on="1"/>
        <pt x="434" y="-213" on="0"/>
        <pt x="369" y="-213" on="1"/>
        <pt x="343" y="-213" on="0"/>
        <pt x="321" y="-202" on="1"/>
        <pt x="277" y="-181" on="0"/>
        <pt x="277" y="-130" on="1"/>
        <pt x="277" y="-66" on="0"/>
      </contour>
      <contour>
        <pt x="81" y="249" on="1"/>
        <pt x="81" y="162" on="1"/>
        <pt x="81" y="114" on="0"/>
        <pt x="128" y="52" on="0"/>
        <pt x="168" y="42" on="1"/>
        <pt x="258" y="18" on="0"/>
        <pt x="377" y="38" on="1"/>
        <pt x="377" y="309" on="1"/>
        <pt x="294" y="355" on="0"/>
        <pt x="196" y="361" on="1"/>
        <pt x="191" y="361" on="0"/>
        <pt x="187" y="361" on="1"/>
        <pt x="144" y="361" on="0"/>
        <pt x="81" y="308" on="0"/>
      </contour>
    </TTGlyph>
    <TTGlyph name="aring" xMin="78" yMin="-10" xMax="463" yMax="699">
      <contour>
        <pt x="297" y="-10" on="1"/>
        <pt x="78" y="-10" on="0"/>
        <pt x="78" y="169" on="1"/>
        <pt x="78" y="252" on="1"/>
        <pt x="78" y="351" on="0"/>
        <pt x="148" y="385" on="1"/>
        <pt x="184" y="402" on="0"/>
        <pt x="221" y="402" on="1"/>
        <pt x="343" y="402" on="0"/>
        <pt x="418" y="346" on="1"/>
        <pt x="418" y="403" on="0"/>
        <pt x="349" y="473" on="0"/>
        <pt x="257" y="473" on="1"/>
        <pt x="255" y="473" on="0"/>
        <pt x="252" y="473" on="1"/>
        <pt x="208" y="477" on="0"/>
        <pt x="148" y="542" on="0"/>
        <pt x="148" y="632" on="0"/>
        <pt x="214" y="699" on="0"/>
        <pt x="308" y="699" on="0"/>
        <pt x="374" y="632" on="0"/>
        <pt x="374" y="535" on="0"/>
        <pt x="335" y="501" on="1"/>
        <pt x="372" y="493" on="0"/>
        <pt x="423" y="459" on="0"/>
        <pt x="448" y="425" on="0"/>
        <pt x="454" y="396" on="1"/>
        <pt x="463" y="357" on="0"/>
        <pt x="463" y="298" on="1"/>
        <pt x="463" y="0" on="1"/>
        <pt x="359" y="-10" on="0"/>
      </contour>
      <contour>
        <pt x="122" y="249" on="1"/>
        <pt x="122" y="162" on="1"/>
        <pt x="122" y="114" on="0"/>
        <pt x="169" y="52" on="0"/>
        <pt x="210" y="42" on="1"/>
        <pt x="257" y="29" on="0"/>
        <pt x="366" y="29" on="0"/>
        <pt x="418" y="38" on="1"/>
        <pt x="418" y="309" on="1"/>
        <pt x="335" y="355" on="0"/>
        <pt x="237" y="361" on="1"/>
        <pt x="232" y="361" on="0"/>
        <pt x="228" y="361" on="1"/>
        <pt x="185" y="361" on="0"/>
        <pt x="122" y="308" on="0"/>
      </contour>
      <contour>
        <pt x="186" y="618" on="0"/>
        <pt x="186" y="554" on="0"/>
        <pt x="230" y="511" on="0"/>
        <pt x="292" y="511" on="0"/>
        <pt x="336" y="554" on="0"/>
        <pt x="336" y="618" on="0"/>
        <pt x="292" y="661" on="0"/>
        <pt x="230" y="661" on="0"/>
      </contour>
    </TTGlyph>
    <TTGlyph name="asciicircum" xMin="78" yMin="726" xMax="368" yMax="899">
      <contour>
        <pt x="78" y="758" on="1"/>
        <pt x="226" y="899" on="1"/>
        <pt x="368" y="758" on="1"/>
        <pt x="337" y="726" on="1"/>
        <pt x="225" y="837" on="1"/>
        <pt x="109" y="726" on="1"/>
      </contour>
    </TTGlyph>
    <TTGlyph name="asciitilde" xMin="78" yMin="289" xMax="479" yMax="376">
      <contour>
        <pt x="479" y="342" on="1"/>
        <pt x="436" y="293" on="0"/>
        <pt x="372" y="293" on="1"/>
        <pt x="348" y="293" on="0"/>
        <pt x="317" y="302" on="1"/>
        <pt x="247" y="322" on="1"/>
        <pt x="221" y="330" on="0"/>
        <pt x="194" y="330" on="1"/>
        <pt x="169" y="328" on="1"/>
        <pt x="130" y="323" on="0"/>
        <pt x="100" y="289" on="1"/>
        <pt x="78" y="321" on="1"/>
        <pt x="125" y="376" on="0"/>
        <pt x="194" y="376" on="1"/>
        <pt x="222" y="376" on="0"/>
        <pt x="315" y="347" on="1"/>
        <pt x="344" y="338" on="0"/>
        <pt x="373" y="338" on="1"/>
        <pt x="426" y="338" on="0"/>
        <pt x="457" y="374" on="1"/>
      </contour>
    </TTGlyph>
    <TTGlyph name="asterisk" xMin="26" yMin="422" xMax="326" yMax="700">
      <contour>
        <pt x="40" y="623" on="1"/>
        <pt x="153" y="580" on="1"/>
        <pt x="152" y="700" on="1"/>
        <pt x="196" y="700" on="1"/>
        <pt x="196" y="580" on="1"/>
        <pt x="310" y="623" on="1"/>
        <pt x="326" y="583" on="1"/>
        <pt x="210" y="543" on="1"/>
        <pt x="281" y="447" on="1"/>
        <pt x="248" y="422" on="1"/>
        <pt x="175" y="522" on="1"/>
        <pt x="106" y="422" on="1"/>
        <pt x="70" y="447" on="1"/>
        <pt x="138" y="543" on="1"/>
        <pt x="26" y="583" on="1"/>
      </contour>
    </TTGlyph>
    <TTGlyph name="at" xMin="26" yMin="-66" xMax="685" yMax="579">
      <contour>
        <pt x="322" y="54" on="1"/>
        <pt x="160" y="54" on="0"/>
        <pt x="149" y="204" on="1"/>
        <pt x="149" y="305" on="1"/>
        <pt x="149" y="416" on="0"/>
        <pt x="237" y="449" on="1"/>
        <pt x="270" y="461" on="0"/>
        <pt x="308" y="461" on="1"/>
        <pt x="385" y="461" on="0"/>
        <pt x="486" y="413" on="1"/>
        <pt x="482" y="474" on="0"/>
        <pt x="438" y="506" on="1"/>
        <pt x="394" y="538" on="0"/>
        <pt x="318" y="538" on="1"/>
        <pt x="212" y="538" on="0"/>
        <pt x="71" y="445" on="0"/>
        <pt x="71" y="342" on="1"/>
        <pt x="71" y="190" on="1"/>
        <pt x="71" y="85" on="0"/>
        <pt x="212" y="-22" on="0"/>
        <pt x="321" y="-22" on="1"/>
        <pt x="323" y="-22" on="0"/>
        <pt x="325" y="-22" on="1"/>
        <pt x="448" y="-22" on="0"/>
        <pt x="608" y="77" on="0"/>
        <pt x="608" y="162" on="1"/>
        <pt x="608" y="353" on="1"/>
        <pt x="608" y="432" on="0"/>
        <pt x="621" y="452" on="1"/>
        <pt x="639" y="479" on="0"/>
        <pt x="672" y="491" on="1"/>
        <pt x="685" y="460" on="1"/>
        <pt x="651" y="445" on="0"/>
        <pt x="651" y="390" on="1"/>
        <pt x="652" y="171" on="1"/>
        <pt x="652" y="108" on="0"/>
        <pt x="591" y="12" on="0"/>
        <pt x="541" y="-14" on="1"/>
        <pt x="441" y="-66" on="0"/>
        <pt x="197" y="-66" on="0"/>
        <pt x="26" y="61" on="0"/>
        <pt x="26" y="186" on="1"/>
        <pt x="26" y="341" on="1"/>
        <pt x="26" y="464" on="0"/>
        <pt x="115" y="526" on="1"/>
        <pt x="192" y="579" on="0"/>
        <pt x="316" y="579" on="1"/>
        <pt x="448" y="579" on="0"/>
        <pt x="502" y="508" on="1"/>
        <pt x="534" y="465" on="0"/>
        <pt x="534" y="398" on="1"/>
        <pt x="571" y="382" on="1"/>
        <pt x="571" y="341" on="1"/>
        <pt x="534" y="357" on="1"/>
        <pt x="534" y="91" on="1"/>
        <pt x="398" y="54" on="0"/>
      </contour>
      <contour>
        <pt x="489" y="372" on="1"/>
        <pt x="394" y="419" on="0"/>
        <pt x="301" y="419" on="1"/>
        <pt x="255" y="419" on="0"/>
        <pt x="193" y="362" on="0"/>
        <pt x="193" y="302" on="1"/>
        <pt x="193" y="205" on="1"/>
        <pt x="194" y="94" on="0"/>
        <pt x="334" y="94" on="1"/>
        <pt x="401" y="94" on="0"/>
        <pt x="489" y="125" on="1"/>
      </contour>
    </TTGlyph>
    <TTGlyph name="atilde" xMin="78" yMin="-10" xMax="463" yMax="638">
      <contour>
        <pt x="297" y="-10" on="1"/>
        <pt x="78" y="-10" on="0"/>
        <pt x="78" y="169" on="1"/>
        <pt x="78" y="252" on="1"/>
        <pt x="78" y="351" on="0"/>
        <pt x="148" y="385" on="1"/>
        <pt x="184" y="402" on="0"/>
        <pt x="221" y="402" on="1"/>
        <pt x="343" y="402" on="0"/>
        <pt x="418" y="346" on="1"/>
        <pt x="418" y="403" on="0"/>
        <pt x="349" y="473" on="0"/>
        <pt x="257" y="473" on="1"/>
        <pt x="255" y="473" on="0"/>
        <pt x="252" y="473" on="1"/>
        <pt x="255" y="509" on="1"/>
        <pt x="336" y="509" on="0"/>
        <pt x="375" y="490" on="1"/>
        <pt x="396" y="479" on="0"/>
        <pt x="428" y="457" on="0"/>
        <pt x="446" y="421" on="0"/>
        <pt x="458" y="394" on="0"/>
        <pt x="460" y="371" on="1"/>
        <pt x="463" y="336" on="0"/>
        <pt x="463" y="298" on="1"/>
        <pt x="463" y="0" on="1"/>
        <pt x="359" y="-10" on="0"/>
      </contour>
      <contour>
        <pt x="122" y="249" on="1"/>
        <pt x="122" y="162" on="1"/>
        <pt x="122" y="114" on="0"/>
        <pt x="169" y="52" on="0"/>
        <pt x="210" y="42" on="1"/>
        <pt x="257" y="29" on="0"/>
        <pt x="366" y="29" on="0"/>
        <pt x="418" y="38" on="1"/>
        <pt x="418" y="309" on="1"/>
        <pt x="335" y="355" on="0"/>
        <pt x="237" y="361" on="1"/>
        <pt x="232" y="361" on="0"/>
        <pt x="228" y="361" on="1"/>
        <pt x="185" y="361" on="0"/>
        <pt x="122" y="308" on="0"/>
      </contour>
      <contour>
        <pt x="210" y="592" on="1"/>
        <pt x="168" y="592" on="0"/>
        <pt x="133" y="554" on="1"/>
        <pt x="112" y="586" on="1"/>
        <pt x="159" y="638" on="0"/>
        <pt x="212" y="638" on="1"/>
        <pt x="236" y="638" on="0"/>
        <pt x="304" y="607" on="1"/>
        <pt x="327" y="596" on="0"/>
        <pt x="351" y="596" on="1"/>
        <pt x="391" y="596" on="0"/>
        <pt x="422" y="630" on="1"/>
        <pt x="442" y="597" on="1"/>
        <pt x="399" y="550" on="0"/>
        <pt x="350" y="550" on="1"/>
        <pt x="330" y="550" on="0"/>
        <pt x="283" y="570" on="0"/>
        <pt x="234" y="592" on="0"/>
      </contour>
    </TTGlyph>
    <TTGlyph name="b" xMin="78" yMin="-12" xMax="447" yMax="700">
      <contour>
        <pt x="123" y="475" on="1"/>
        <pt x="176" y="509" on="0"/>
        <pt x="263" y="509" on="1"/>
        <pt x="320" y="509" on="0"/>
        <pt x="362" y="490" on="1"/>
        <pt x="447" y="451" on="0"/>
        <pt x="447" y="346" on="1"/>
        <pt x="447" y="157" on="1"/>
        <pt x="447" y="58" on="0"/>
        <pt x="369" y="18" on="1"/>
        <pt x="310" y="-12" on="0"/>
        <pt x="164" y="-12" on="0"/>
        <pt x="78" y="0" on="1"/>
        <pt x="78" y="700" on="1"/>
        <pt x="123" y="700" on="1"/>
      </contour>
      <contour>
        <pt x="266" y="468" on="1"/>
        <pt x="184" y="468" on="0"/>
        <pt x="123" y="435" on="1"/>
        <pt x="123" y="40" on="1"/>
        <pt x="190" y="30" on="0"/>
        <pt x="252" y="30" on="0"/>
        <pt x="255" y="30" on="1"/>
        <pt x="317" y="31" on="0"/>
        <pt x="403" y="95" on="0"/>
        <pt x="403" y="156" on="1"/>
        <pt x="403" y="343" on="1"/>
        <pt x="403" y="399" on="0"/>
        <pt x="341" y="463" on="0"/>
        <pt x="296" y="467" on="1"/>
        <pt x="281" y="468" on="0"/>
      </contour>
    </TTGlyph>
    <TTGlyph name="backslash" xMin="78" yMin="-114" xMax="448" yMax="817">
      <contour>
        <pt x="78" y="817" on="1"/>
        <pt x="124" y="817" on="1"/>
        <pt x="448" y="-114" on="1"/>
        <pt x="400" y="-114" on="1"/>
      </contour>
    </TTGlyph>
    <TTGlyph name="bar" xMin="78" yMin="-114" xMax="123" yMax="817">
      <contour>
        <pt x="78" y="817" on="1"/>
        <pt x="123" y="817" on="1"/>
        <pt x="123" y="-114" on="1"/>
        <pt x="78" y="-114" on="1"/>
      </contour>
    </TTGlyph>
    <TTGlyph name="beta" xMin="78" yMin="-161" xMax="448" yMax="701">
      <contour>
        <pt x="78" y="614" on="0"/>
        <pt x="147" y="701" on="0"/>
        <pt x="275" y="701" on="0"/>
        <pt x="342" y="626" on="0"/>
        <pt x="342" y="527" on="0"/>
        <pt x="302" y="495" on="1"/>
        <pt x="367" y="487" on="0"/>
        <pt x="448" y="398" on="0"/>
        <pt x="448" y="330" on="1"/>
        <pt x="448" y="146" on="1"/>
        <pt x="448" y="-19" on="0"/>
        <pt x="230" y="-19" on="1"/>
        <pt x="180" y="-19" on="0"/>
        <pt x="123" y="-9" on="1"/>
        <pt x="123" y="-161" on="1"/>
        <pt x="78" y="-161" on="1"/>
        <pt x="78" y="537" on="1"/>
      </contour>
      <contour>
        <pt x="266" y="454" on="1"/>
        <pt x="185" y="454" on="0"/>
        <pt x="124" y="422" on="1"/>
        <pt x="124" y="32" on="1"/>
        <pt x="182" y="21" on="0"/>
        <pt x="271" y="21" on="0"/>
        <pt x="354" y="38" on="0"/>
        <pt x="404" y="96" on="0"/>
        <pt x="404" y="143" on="1"/>
        <pt x="404" y="327" on="1"/>
        <pt x="404" y="385" on="0"/>
        <pt x="341" y="449" on="0"/>
        <pt x="295" y="453" on="1"/>
        <pt x="280" y="454" on="0"/>
      </contour>
      <contour>
        <pt x="124" y="538" on="1"/>
        <pt x="124" y="463" on="1"/>
        <pt x="164" y="484" on="0"/>
        <pt x="247" y="507" on="1"/>
        <pt x="282" y="517" on="0"/>
        <pt x="292" y="554" on="1"/>
        <pt x="295" y="566" on="0"/>
        <pt x="295" y="602" on="0"/>
        <pt x="281" y="624" on="1"/>
        <pt x="260" y="657" on="0"/>
        <pt x="218" y="657" on="1"/>
        <pt x="124" y="657" on="0"/>
      </contour>
    </TTGlyph>
    <TTGlyph name="braceleft" xMin="78" yMin="-116" xMax="273" yMax="822">
      <contour>
        <pt x="256" y="822" on="1"/>
        <pt x="271" y="791" on="1"/>
        <pt x="248" y="774" on="0"/>
        <pt x="220" y="746" on="0"/>
        <pt x="195" y="683" on="0"/>
        <pt x="195" y="641" on="1"/>
        <pt x="195" y="456" on="1"/>
        <pt x="195" y="415" on="0"/>
        <pt x="135" y="355" on="1"/>
        <pt x="197" y="293" on="0"/>
        <pt x="197" y="253" on="1"/>
        <pt x="197" y="68" on="1"/>
        <pt x="197" y="9" on="0"/>
        <pt x="235" y="-60" on="0"/>
        <pt x="273" y="-85" on="1"/>
        <pt x="258" y="-116" on="1"/>
        <pt x="192" y="-78" on="0"/>
        <pt x="152" y="14" on="0"/>
        <pt x="152" y="128" on="1"/>
        <pt x="152" y="247" on="1"/>
        <pt x="152" y="266" on="0"/>
        <pt x="120" y="315" on="0"/>
        <pt x="99" y="335" on="0"/>
        <pt x="78" y="354" on="1"/>
        <pt x="102" y="373" on="0"/>
        <pt x="150" y="435" on="0"/>
        <pt x="150" y="462" on="1"/>
        <pt x="150" y="583" on="1"/>
        <pt x="150" y="693" on="0"/>
        <pt x="191" y="784" on="0"/>
      </contour>
    </TTGlyph>
    <TTGlyph name="braceright" xMin="78" yMin="-116" xMax="273" yMax="822">
      <contour>
        <pt x="80" y="791" on="1"/>
        <pt x="95" y="822" on="1"/>
        <pt x="160" y="784" on="0"/>
        <pt x="201" y="693" on="0"/>
        <pt x="201" y="583" on="1"/>
        <pt x="201" y="462" on="1"/>
        <pt x="201" y="435" on="0"/>
        <pt x="249" y="373" on="0"/>
        <pt x="273" y="354" on="1"/>
        <pt x="252" y="335" on="0"/>
        <pt x="231" y="315" on="0"/>
        <pt x="199" y="266" on="0"/>
        <pt x="199" y="247" on="1"/>
        <pt x="199" y="128" on="1"/>
        <pt x="199" y="14" on="0"/>
        <pt x="159" y="-78" on="0"/>
        <pt x="93" y="-116" on="1"/>
        <pt x="78" y="-85" on="1"/>
        <pt x="116" y="-60" on="0"/>
        <pt x="154" y="9" on="0"/>
        <pt x="154" y="68" on="1"/>
        <pt x="154" y="253" on="1"/>
        <pt x="154" y="293" on="0"/>
        <pt x="216" y="355" on="1"/>
        <pt x="156" y="415" on="0"/>
        <pt x="156" y="456" on="1"/>
        <pt x="156" y="641" on="1"/>
        <pt x="156" y="683" on="0"/>
        <pt x="131" y="746" on="0"/>
        <pt x="103" y="774" on="0"/>
      </contour>
    </TTGlyph>
    <TTGlyph name="bracketleft" xMin="78" yMin="-114" xMax="239" yMax="817">
      <contour>
        <pt x="78" y="817" on="1"/>
        <pt x="239" y="817" on="1"/>
        <pt x="239" y="780" on="1"/>
        <pt x="123" y="773" on="1"/>
        <pt x="123" y="-70" on="1"/>
        <pt x="239" y="-77" on="1"/>
        <pt x="239" y="-114" on="1"/>
        <pt x="78" y="-114" on="1"/>
      </contour>
    </TTGlyph>
    <TTGlyph name="bracketright" xMin="78" yMin="-114" xMax="239" yMax="817">
      <contour>
        <pt x="78" y="817" on="1"/>
        <pt x="239" y="817" on="1"/>
        <pt x="239" y="-114" on="1"/>
        <pt x="78" y="-114" on="1"/>
        <pt x="78" y="-77" on="1"/>
        <pt x="194" y="-70" on="1"/>
        <pt x="194" y="773" on="1"/>
        <pt x="78" y="780" on="1"/>
      </contour>
    </TTGlyph>
    <TTGlyph name="breve" xMin="46" yMin="582" xMax="272" yMax="700">
      <contour>
        <pt x="46" y="700" on="1"/>
        <pt x="84" y="700" on="1"/>
        <pt x="84" y="695" on="1"/>
        <pt x="84" y="665" on="0"/>
        <pt x="126" y="619" on="0"/>
        <pt x="191" y="619" on="0"/>
        <pt x="234" y="665" on="0"/>
        <pt x="234" y="695" on="1"/>
        <pt x="234" y="700" on="1"/>
        <pt x="272" y="700" on="1"/>
        <pt x="272" y="695" on="1"/>
        <pt x="272" y="648" on="0"/>
        <pt x="206" y="582" on="0"/>
        <pt x="112" y="582" on="0"/>
        <pt x="46" y="648" on="0"/>
        <pt x="46" y="695" on="1"/>
      </contour>
    </TTGlyph>
    <TTGlyph name="bullet" xMin="78" yMin="158" xMax="435" yMax="515">
      <contour>
        <pt x="182" y="515" on="0"/>
        <pt x="330" y="515" on="0"/>
        <pt x="435" y="411" on="0"/>
        <pt x="435" y="263" on="0"/>
        <pt x="330" y="158" on="0"/>
        <pt x="182" y="158" on="0"/>
        <pt x="78" y="263" on="0"/>
        <pt x="78" y="411" on="0"/>
      </contour>
    </TTGlyph>
    <TTGlyph name="c" xMin="36" yMin="-11" xMax="358" yMax="510">
      <contour>
        <pt x="343" y="443" on="1"/>
        <pt x="285" y="469" on="0"/>
        <pt x="195" y="469" on="0"/>
        <pt x="128" y="446" on="0"/>
        <pt x="81" y="371" on="0"/>
        <pt x="81" y="314" on="1"/>
        <pt x="81" y="169" on="1"/>
        <pt x="81" y="29" on="0"/>
        <pt x="241" y="29" on="1"/>
        <pt x="290" y="29" on="0"/>
        <pt x="348" y="43" on="1"/>
        <pt x="358" y="6" on="1"/>
        <pt x="294" y="-11" on="0"/>
        <pt x="190" y="-11" on="0"/>
        <pt x="140" y="5" on="1"/>
        <pt x="36" y="39" on="0"/>
        <pt x="36" y="180" on="1"/>
        <pt x="36" y="308" on="1"/>
        <pt x="36" y="379" on="0"/>
        <pt x="64" y="427" on="1"/>
        <pt x="112" y="510" on="0"/>
        <pt x="222" y="510" on="1"/>
        <pt x="288" y="510" on="0"/>
        <pt x="356" y="478" on="1"/>
      </contour>
    </TTGlyph>
    <TTGlyph name="cacute" xMin="78" yMin="-11" xMax="400" yMax="679">
      <contour>
        <pt x="385" y="443" on="1"/>
        <pt x="327" y="469" on="0"/>
        <pt x="237" y="469" on="0"/>
        <pt x="170" y="446" on="0"/>
        <pt x="123" y="371" on="0"/>
        <pt x="123" y="314" on="1"/>
        <pt x="123" y="169" on="1"/>
        <pt x="123" y="29" on="0"/>
        <pt x="283" y="29" on="1"/>
        <pt x="332" y="29" on="0"/>
        <pt x="390" y="43" on="1"/>
        <pt x="400" y="6" on="1"/>
        <pt x="336" y="-11" on="0"/>
        <pt x="232" y="-11" on="0"/>
        <pt x="182" y="5" on="1"/>
        <pt x="78" y="39" on="0"/>
        <pt x="78" y="180" on="1"/>
        <pt x="78" y="308" on="1"/>
        <pt x="78" y="379" on="0"/>
        <pt x="106" y="427" on="1"/>
        <pt x="154" y="510" on="0"/>
        <pt x="264" y="510" on="1"/>
        <pt x="330" y="510" on="0"/>
        <pt x="398" y="478" on="1"/>
      </contour>
      <contour>
        <pt x="209" y="538" on="1"/>
        <pt x="261" y="659" on="1"/>
        <pt x="270" y="679" on="0"/>
        <pt x="287" y="679" on="1"/>
        <pt x="311" y="679" on="0"/>
        <pt x="316" y="660" on="1"/>
        <pt x="318" y="655" on="0"/>
        <pt x="318" y="643" on="0"/>
        <pt x="313" y="636" on="1"/>
        <pt x="245" y="538" on="1"/>
      </contour>
    </TTGlyph>
    <TTGlyph name="caron" xMin="46" yMin="591" xMax="336" yMax="764">
      <contour>
        <pt x="46" y="732" on="1"/>
        <pt x="77" y="764" on="1"/>
        <pt x="193" y="653" on="1"/>
        <pt x="305" y="764" on="1"/>
        <pt x="336" y="732" on="1"/>
        <pt x="194" y="591" on="1"/>
      </contour>
    </TTGlyph>
    <TTGlyph name="ccaron" xMin="78" yMin="-11" xMax="401" yMax="716">
      <contour>
        <pt x="385" y="443" on="1"/>
        <pt x="327" y="469" on="0"/>
        <pt x="237" y="469" on="0"/>
        <pt x="170" y="446" on="0"/>
        <pt x="123" y="371" on="0"/>
        <pt x="123" y="314" on="1"/>
        <pt x="123" y="169" on="1"/>
        <pt x="123" y="29" on="0"/>
        <pt x="283" y="29" on="1"/>
        <pt x="332" y="29" on="0"/>
        <pt x="390" y="43" on="1"/>
        <pt x="400" y="6" on="1"/>
        <pt x="336" y="-11" on="0"/>
        <pt x="232" y="-11" on="0"/>
        <pt x="182" y="5" on="1"/>
        <pt x="78" y="39" on="0"/>
        <pt x="78" y="180" on="1"/>
        <pt x="78" y="308" on="1"/>
        <pt x="78" y="379" on="0"/>
        <pt x="106" y="427" on="1"/>
        <pt x="154" y="510" on="0"/>
        <pt x="264" y="510" on="1"/>
        <pt x="330" y="510" on="0"/>
        <pt x="398" y="478" on="1"/>
      </contour>
      <contour>
        <pt x="111" y="684" on="1"/>
        <pt x="142" y="716" on="1"/>
        <pt x="258" y="605" on="1"/>
        <pt x="370" y="716" on="1"/>
        <pt x="401" y="684" on="1"/>
        <pt x="259" y="543" on="1"/>
      </contour>
    </TTGlyph>
</ttFont>
